<?xml version="1.0" standalone="no"?>
<!DOCTYPE svg PUBLIC "-//W3C//DTD SVG 1.1//EN" "http://www.w3.org/Graphics/SVG/1.1/DTD/svg11.dtd" >
<svg xmlns="http://www.w3.org/2000/svg" xmlns:xlink="http://www.w3.org/1999/xlink" version="1.1">
<metadata>
Created by FontForge 20201107 at Wed Nov 30 10:10:50 2016
 By Unknown
2016 Iconian Fonts - www.iconian.com
</metadata>
<defs>
<font id="KovacsLaser" horiz-adv-x="758" >
  <font-face 
    font-family="Kovacs Laser"
    font-weight="400"
    font-stretch="normal"
    units-per-em="1000"
    panose-1="0 0 0 0 0 0 0 0 0 0"
    ascent="800"
    descent="-200"
    x-height="644"
    cap-height="644"
    bbox="-79 -201 1382 884"
    underline-thickness="50"
    underline-position="-175"
    unicode-range="U+0020-2122"
  />
<missing-glyph horiz-adv-x="500" 
 />
    <glyph glyph-name=".notdef" horiz-adv-x="500" 
 />
    <glyph glyph-name=".null" horiz-adv-x="0" 
 />
    <glyph glyph-name="nonmarkingreturn" horiz-adv-x="500" 
 />
    <glyph glyph-name="space" unicode=" " horiz-adv-x="386" 
 />
    <glyph glyph-name="space" unicode="&#xa0;" horiz-adv-x="386" 
 />
    <glyph glyph-name="exclam" unicode="!" horiz-adv-x="283" 
d="M239 644h-195v-194h195v194zM247 95q0 19 -8 37.5t-22.5 32.5t-33.5 22.5t-41 8.5q-20 0 -39 -7.5t-34 -20.5t-24 -31t-9 -39q0 -22 9 -40.5t23.5 -32t33.5 -21t39 -7.5q22 0 41 8t33.5 21.5t23 31t8.5 37.5zM239 253v156h-195v-156h195z" />
    <glyph glyph-name="quotedbl" unicode="&#x22;" horiz-adv-x="544" 
d="M294 450h184q27 42 27 95q0 19 -8 37.5t-22.5 32.5t-33.5 22.5t-41 8.5q-20 0 -39 -7.5t-34 -20.5t-24 -31t-9 -39v-98zM44 450h184q27 42 27 95q0 19 -8 37.5t-22.5 32.5t-33.5 22.5t-41 8.5q-20 0 -39 -7.5t-34 -20.5t-24 -31t-9 -39v-98zM44 362q48 0 85 12.5t63 34.5
h-148v-47zM294 362q48 0 85 12.5t63 34.5h-148v-47z" />
    <glyph glyph-name="FL0023h" unicode="#" horiz-adv-x="714" 
d="M670 282h-84v80h84v47h-626v-47h83v-80h-83v-170h83v-112h195v112h69v-112h195v112h84v170zM670 532h-84v112h-195v-112h-69v112h-195v-112h-83v-82h626v82zM322 362h69v-80h-69v80z" />
    <glyph glyph-name="dollar" unicode="$" horiz-adv-x="761" 
d="M335 409h-284q-12 -42 -12 -84v-3l439 -100q-18 -14 -44 -25.5t-52 -11.5h-3q-30 0 -55 13.5t-42 30.5h-229q22 -76 81.5 -135.5t153.5 -83.5v-93h185v93q58 15 104 46t78 72.5t49 90t18 99.5zM66 450h276q10 2 19.5 3t17.5 1h3q8 -1 15.5 -1.5t15.5 -2.5h280
q-29 64 -85 113.5t-135 70.5v83h-185v-83q-81 -21 -137 -70.5t-85 -113.5z" />
    <glyph glyph-name="FL0025h" unicode="%" horiz-adv-x="1029" 
d="M990 175q0 34 -12.5 66.5t-36 58t-58.5 41t-80 15.5t-80 -15.5t-59.5 -40.5t-37 -57t-12.5 -65v-3q0 -33 12.5 -65t37 -56.5t59.5 -40t80 -15.5q43 0 77.5 15.5t58.5 40t37 56.5t14 65zM513 0l125 409h-197l-125 -409h197zM415 465q0 34 -12.5 66.5t-36 58t-58.5 41
t-80 15.5t-80 -15.5t-59.5 -40.5t-37 -57t-12.5 -65v-3v-15h124q-1 5 -1 15v4q0 28 16 44t48 16h2q33 0 48.5 -16t15.5 -44v-4q0 -5 -0.5 -8t-1.5 -7h123q2 10 2 15zM710 644h-197l-60 -194h197zM228 405h-2q-17 0 -28 4h-150q9 -25 25 -47t38.5 -38.5t52 -26t64.5 -9.5
q34 0 62.5 9.5t51 26t38 38.5t24.5 47h-148q-11 -4 -28 -4zM803 115h-2q-32 0 -48 16t-16 44v4q0 28 16 44t48 16h2q33 0 48.5 -16t15.5 -44v-4q0 -28 -15.5 -44t-48.5 -16z" />
    <glyph glyph-name="ampersand" unicode="&#x26;" horiz-adv-x="816" 
d="M772 373h-518q7 19 23 36h-227q-11 -44 -11 -86v-4q0 -60 22.5 -118t66 -103.5t106.5 -73t145 -27.5q73 0 131 22.5t100.5 60.5t69 87t35.5 103h57v103zM65 450h291q5 1 11 1.5t12 0.5h3q6 -1 12 -1t11 -1h284q-18 41 -46 77t-67 62.5t-88 42t-109 15.5t-110 -15.5
t-89.5 -42t-68.5 -62.5t-46 -77zM380 191h-3q-45 1 -77 23t-46 56h250q-14 -34 -46.5 -56t-77.5 -23z" />
    <glyph glyph-name="quotesingle" unicode="'" horiz-adv-x="294" 
d="M44 450h184q27 42 27 95q0 19 -8 37.5t-22.5 32.5t-33.5 22.5t-41 8.5q-20 0 -39 -7.5t-34 -20.5t-24 -31t-9 -39v-98zM44 362q48 0 85 12.5t63 34.5h-148v-47z" />
    <glyph glyph-name="parenleft" unicode="(" horiz-adv-x="406" 
d="M244 409h-205v-16v-144q0 -60 20 -118t60 -103.5t100.5 -73t142.5 -27.5v194h-2q-30 0 -51.5 10.5t-36 28t-21.5 40.5t-7 48v147v14zM362 522v195q-72 0 -128 -22t-95.5 -59t-63.5 -85.5t-32 -100.5h210q12 31 38.5 51.5t68.5 20.5h2z" />
    <glyph glyph-name="parenright" unicode=")" horiz-adv-x="406" 
d="M366 409h-205q1 -4 1 -8v-6v-147q0 -25 -7 -48t-21.5 -40.5t-36 -28t-51.5 -10.5h-2v-194q82 0 142.5 27.5t100.5 73t60 103.5t20 118v144q0 4 -0.5 7.5t-0.5 8.5zM46 522q42 0 68.5 -20.5t37.5 -51.5h210q-8 52 -32 100.5t-63.5 85.5t-95 59t-127.5 22v-195h2z" />
    <glyph glyph-name="asterisk" unicode="*" horiz-adv-x="289" 
d="M250 609q0 19 -8 37.5t-22.5 32.5t-33.5 22.5t-41 8.5q-20 0 -39 -7.5t-34 -20.5t-24 -31t-9 -39q0 -22 9 -40.5t23.5 -32t33.5 -21t39 -7.5q22 0 41 8t33.5 21.5t23 31t8.5 37.5z" />
    <glyph glyph-name="plus" unicode="+" horiz-adv-x="491" 
d="M332 120v115h115v174h-403v-174h114v-115h174zM158 450h174v73h-174v-73z" />
    <glyph glyph-name="comma" unicode="," horiz-adv-x="289" 
d="M106 -88q34 14 60.5 36t45 47.5t28.5 51.5t10 48q0 19 -8 37.5t-22.5 32.5t-33.5 22.5t-41 8.5q-20 0 -39 -7.5t-34 -20.5t-24 -31t-9 -39q0 -35 18.5 -60t48.5 -36v-90z" />
    <glyph glyph-name="hyphen" unicode="-" horiz-adv-x="419" 
d="M375 225v184h-331v-184h331z" />
    <glyph glyph-name="period" unicode="." horiz-adv-x="289" 
d="M250 95q0 19 -8 37.5t-22.5 32.5t-33.5 22.5t-41 8.5q-20 0 -39 -7.5t-34 -20.5t-24 -31t-9 -39q0 -22 9 -40.5t23.5 -32t33.5 -21t39 -7.5q22 0 41 8t33.5 21.5t23 31t8.5 37.5z" />
    <glyph glyph-name="slash" unicode="/" horiz-adv-x="472" 
d="M236 0l125 409h-197l-125 -409h197zM433 644h-197l-60 -194h197z" />
    <glyph glyph-name="zero" unicode="0" horiz-adv-x="761" 
d="M722 319q0 47 -13 90h-226q16 -17 25 -39t9 -45v-7q0 -25 -10 -48t-28 -40.5t-42.5 -28t-54.5 -10.5h-3q-30 0 -54.5 10.5t-42.5 28t-28 40.5t-10 48v7q0 48 33 84h-227q-6 -21 -8.5 -42.5t-2.5 -43.5v-4q0 -60 23 -118t66.5 -103.5t107 -73t145.5 -27.5q81 0 144 27.5
t106.5 73t66.5 103.5t24 118zM65 450h288q6 1 12.5 1.5t13.5 0.5h3q7 0 13 -0.5t12 -1.5h288q-18 41 -47 77t-68.5 62.5t-89 42t-109.5 15.5t-110.5 -15.5t-90 -42t-68.5 -62.5t-47 -77zM476 320q0 17 -7 33t-20 28.5t-30 20t-37 7.5q-18 0 -35 -6.5t-30.5 -18t-21.5 -27.5
t-8 -35q0 -20 8 -36t21 -28t30 -18.5t35 -6.5q19 0 36.5 7t30.5 19t20.5 28t7.5 33z" />
    <glyph glyph-name="one" unicode="1" horiz-adv-x="373" 
d="M44 338v-338h195v328q0 22 8.5 43t22.5 38h-218q-4 -18 -6 -35.5t-2 -35.5zM329 644q-54 -2 -97.5 -18t-76.5 -42.5t-56 -60.5t-36 -73h266v194z" />
    <glyph glyph-name="FL0032h" unicode="2" horiz-adv-x="756" 
d="M239 349h-195v-349h668v194h-473v155zM688 450q-16 39 -41.5 74t-60 62t-76.5 42.5t-90 15.5h-376v-194h644zM518 324v-29h194v40q0 18 -2.5 36.5t-7.5 37.5h-221q17 -20 27 -43t10 -42z" />
    <glyph glyph-name="three" unicode="3" horiz-adv-x="756" 
d="M374 191q-45 1 -78.5 24t-47.5 58h-209q9 -54 35 -104t69 -88t101 -61t132 -23q81 0 144.5 27.5t107 73t66.5 103.5t23 118v4q0 44 -12 86h-227q3 -4 6 -7t6 -7h-83q-38 0 -54.5 -18.5t-16.5 -55.5q0 -29 18 -51t56 -22h52l36 11q-17 -29 -47.5 -48.5t-72.5 -19.5h-4z
M376 647q-60 0 -109.5 -15.5t-89.5 -42t-68.5 -62.5t-46.5 -77h290q5 1 10.5 1.5t11.5 0.5h4q5 0 10.5 -0.5t10.5 -1.5h291q-18 41 -47 77t-68.5 62.5t-89.5 42t-109 15.5zM39 372h210q4 10 10 19.5t14 17.5h-226q-2 -9 -4 -18.5t-4 -18.5z" />
    <glyph glyph-name="four" unicode="4" 
d="M240 409h-197q4 -57 27.5 -110.5t66 -95t102.5 -67t137 -25.5q18 2 35.5 3t35.5 5t36 12t36 23v-154h194v409h-194v-63q-10 -8 -26.5 -16.5t-36 -15.5t-38.5 -11.5t-33 -4.5h-6q-4 0 -5 1q-51 8 -88.5 37.5t-45.5 72.5zM238 643h-195v-193h195v193zM519 450h194v193h-194
v-193z" />
    <glyph glyph-name="FLE005h" unicode="5" horiz-adv-x="756" 
d="M518 320q0 -18 -9.5 -40t-24.5 -41t-34 -32t-38 -13h-368v-194h376q65 0 119 28t92.5 72.5t59.5 99.5t21 109v40h-194v-29zM712 644h-668v-194h668v194zM239 295v114h-195v-114h195z" />
    <glyph glyph-name="six" unicode="6" horiz-adv-x="764" 
d="M720 317l-343 92h-328q-5 -18 -7.5 -36.5t-2.5 -35.5v-28q0 -59 23.5 -115t67.5 -99.5t107.5 -70t143.5 -26.5q79 0 141 27.5t105.5 72.5t67 102t25.5 117zM356 451h360v194h-374q-48 0 -91 -15.5t-79 -42.5t-63.5 -62.5t-44.5 -74.5h279q3 0 6 0.5t7 0.5zM382 192h-3
q-43 1 -75.5 21t-48.5 52v17l219 -52q-17 -15 -41 -26.5t-51 -11.5z" />
    <glyph glyph-name="seven" unicode="7" horiz-adv-x="646" 
d="M44 450h534q-16 39 -42.5 74t-61 62t-76 42.5t-89.5 15.5h-265v-194zM407 324v-324h195v336q0 18 -2.5 36t-7.5 37h-222q17 -20 27 -43t10 -42z" />
    <glyph glyph-name="eight" unicode="8" horiz-adv-x="761" 
d="M722 319q0 47 -13 90h-226q15 -17 24 -36h-253q7 19 23 36h-227q-6 -21 -8.5 -42.5t-2.5 -43.5v-4q0 -60 23 -118t66.5 -103.5t107 -73t145.5 -27.5q81 0 144 27.5t106.5 73t66.5 103.5t24 118zM379 452h3q6 0 11.5 -0.5t11.5 -1.5h290q-18 41 -47 77t-68.5 62.5t-89 42
t-109.5 15.5t-110.5 -15.5t-90 -42t-68.5 -62.5t-47 -77h291q5 1 11 1.5t12 0.5zM382 191h-3q-45 1 -78 23t-47 56h253q-14 -34 -47 -56t-78 -23z" />
    <glyph glyph-name="nine" unicode="9" horiz-adv-x="764" 
d="M44 328l423 -112q-25 -22 -53 -22h-366v-194h374q65 0 120.5 28t96 72.5t63.5 99.5t23 109v28q0 36 -9 72h-227q13 -14 20 -29v-22l-196 51h-256q-11 -39 -13 -81zM382 454h4q8 0 16 -1t16 -3h284q-17 41 -46.5 77t-70 62.5t-91 42t-110.5 15.5q-59 0 -108.5 -15.5
t-88.5 -42t-68 -62.5t-47 -77h280q7 2 14.5 3t15.5 1z" />
    <glyph glyph-name="colon" unicode=":" horiz-adv-x="289" 
d="M250 95q0 19 -8 37.5t-22.5 32.5t-33.5 22.5t-41 8.5q-20 0 -39 -7.5t-34 -20.5t-24 -31t-9 -39q0 -22 9 -40.5t23.5 -32t33.5 -21t39 -7.5q22 0 41 8t33.5 21.5t23 31t8.5 37.5zM39 450h210q-5 36 -33.5 63t-70.5 27q-19 0 -37.5 -7t-33 -19t-24 -28.5t-11.5 -35.5z
M244 409h-199q11 -31 39 -49.5t60 -18.5q35 0 62 19.5t38 48.5z" />
    <glyph glyph-name="semicolon" unicode=";" horiz-adv-x="289" 
d="M106 -88q34 14 60.5 36t45 47.5t28.5 51.5t10 48q0 19 -8 37.5t-22.5 32.5t-33.5 22.5t-41 8.5q-20 0 -39 -7.5t-34 -20.5t-24 -31t-9 -39q0 -35 18.5 -60t48.5 -36v-90zM39 450h210q-5 36 -33.5 63t-70.5 27q-19 0 -37.5 -7t-33 -19t-24 -28.5t-11.5 -35.5zM244 409
h-199q11 -31 39 -49.5t60 -18.5q35 0 62 19.5t38 48.5z" />
    <glyph glyph-name="FL003Ch" unicode="&#x3c;" horiz-adv-x="264" 
d="M171 320l-2 2q2 2 2 3q16 17 31.5 39.5t20.5 44.5h-160q-12 -18 -18 -39t-6 -38v-19q0 -21 9.5 -47.5t26.5 -45.5q20 -21 47.5 -37t51.5 -16q22 0 33 11q18 15 18 45q0 23 -18 50t-36 47zM103 450h116q-5 10 -12 17q-11 11 -33 11q-17 0 -35.5 -8t-35.5 -20z" />
    <glyph glyph-name="equal" unicode="=" horiz-adv-x="470" 
d="M426 302h-382v-170h382v170zM426 342v67h-382v-67h382zM426 512h-382v-62h382v62z" />
    <glyph glyph-name="FL003Eh" unicode="&#x3e;" horiz-adv-x="264" 
d="M93 320q-18 -20 -36 -47t-18 -50q0 -30 18 -45q11 -11 33 -11q24 0 51.5 16t47.5 37q17 19 26.5 45.5t9.5 47.5v19q0 17 -6.5 38t-17.5 39h-161q5 -22 21 -44.5t32 -39.5q0 -1 2 -3zM90 478q-22 0 -33 -11q-8 -6 -13 -17h116q-17 12 -35 20t-35 8z" />
    <glyph glyph-name="FL003Fh" unicode="?" horiz-adv-x="756" 
d="M44 450h644q-16 39 -41.5 74t-60 62t-76.5 42.5t-90 15.5h-376v-194zM483 95q0 19 -8 37.5t-22.5 32.5t-33.5 22.5t-41 8.5q-20 0 -39 -7.5t-34 -20.5t-24 -31t-9 -39q0 -22 9 -40.5t23.5 -32t33.5 -21t39 -7.5q22 0 41 8t33.5 21.5t23 31t8.5 37.5zM518 324v-29h194v41
q0 18 -2.5 36t-7.5 37h-221q17 -20 27 -43t10 -42z" />
    <glyph glyph-name="FL0040h" unicode="@" horiz-adv-x="924" 
d="M672 450h208q-8 52 -31.5 100.5t-63.5 86t-95.5 59.5t-127.5 22h-200q-72 0 -128 -22t-95.5 -59.5t-63.5 -86t-32 -100.5h210q11 32 37.5 52.5t69.5 20.5h204q43 0 69.5 -20.5t38.5 -52.5zM634 313q0 52 -29 96h-288q-14 -21 -21 -45t-7 -48v-3q0 -30 11.5 -59.5t34 -53
t54.5 -37.5t74 -14q58 0 99 27v-114q82 0 142.5 27.5t100.5 73t60 103.5t20 118v10q0 4 -0.5 7.5t-0.5 7.5h-204q1 -5 1 -13v-13q0 -34 -13 -64t-39 -44q2 10 3.5 19t1.5 19zM244 409h-205v-16v-144q0 -60 20 -118t60 -103.5t100.5 -73t142.5 -27.5v194h-2q-30 0 -51.5 10.5
t-36 28t-21.5 40.5t-7 48v147v14zM463 258h-2q-59 0 -59 55v4q0 26 14.5 41t44.5 15h2q30 0 44.5 -15t14.5 -41v-4q0 -55 -59 -55zM355 450h213q-20 16 -46.5 25.5t-58.5 9.5q-33 0 -60 -9.5t-48 -25.5z" />
    <glyph glyph-name="FLE003h" unicode="A" horiz-adv-x="771" 
d="M384 191q-38 0 -67 15.5t-47 41.5h53q38 0 56 22t18 51q-1 37 -17 55.5t-54 18.5h-282v-76q0 -61 19.5 -118.5t61 -102t106.5 -71.5t155 -27h341v336q0 34 -11 73h-226q14 -17 23.5 -37.5t9.5 -37.5v-143h-139zM424 644h-380v-194h657q-17 39 -44.5 74t-63.5 62
t-78.5 42.5t-90.5 15.5z" />
    <glyph glyph-name="B" unicode="B" horiz-adv-x="753" 
d="M520 317q-1 -18 -11 -39.5t-25 -40t-33.5 -31t-37.5 -12.5h-174v215h-195v-409h378q64 0 118 29t92.5 75t60 101.5t21.5 109.5v14q0 39 -11 80h-218q17 -17 26 -37.5t9 -44.5v-10zM382 647q-18 -2 -36 -3t-35.5 -4.5t-35.5 -11.5t-36 -23v154h-195v-309h274
q15 5 29.5 7.5t25.5 2.5q10 0 11 -1q19 -3 35 -9h271q-17 41 -45 77t-67 62.5t-88 42t-108 15.5z" />
    <glyph glyph-name="C" unicode="C" horiz-adv-x="756" 
d="M393 191h-14q-30 0 -54.5 10.5t-42.5 28t-28 40.5t-10 48v7q0 48 33 84h-227q-6 -21 -8.5 -42.5t-2.5 -43.5v-4q0 -60 23 -118t66.5 -103.5t107 -73t145.5 -27.5q51 0 96 12v189q-39 -5 -56.5 -6t-27.5 -1zM65 450h288q6 1 12.5 1.5t13.5 0.5h3q6 0 11.5 -0.5t11.5 -1.5
h289q-18 41 -46.5 77t-68 62.5t-89.5 42t-109 15.5q-60 0 -110.5 -15.5t-90 -42t-68.5 -62.5t-47 -77zM709 409h-226q15 -17 24 -36h210l-4 18z" />
    <glyph glyph-name="D" unicode="D" horiz-adv-x="753" 
d="M417 450h271q-17 39 -43 74t-60 62t-75 42.5t-88 15.5h-378v-194h369h4zM520 328v-10q0 -25 -10.5 -49t-28.5 -42.5t-43 -30t-54 -11.5h-6q-6 0 -18 0.5t-26.5 2t-29.5 5t-26 9.5v-186q26 -8 49.5 -13.5t54.5 -5.5q80 0 142 27.5t104 72t64 101t22 115.5v18q0 37 -11 78
h-221q16 -19 26 -41t12 -40zM239 0v409h-195v-409h195z" />
    <glyph glyph-name="E" unicode="E" horiz-adv-x="764" 
d="M720 328q-1 20 -4.5 40.5t-8.5 40.5h-256l-196 -51v22q9 17 19 29h-226q-9 -36 -9 -72v-28q0 -54 23 -109t63.5 -99.5t96 -72.5t120.5 -28h374v194h-360q-28 0 -53 22zM382 454q8 0 15 -1t15 -3h280q-18 41 -47 77t-68 62.5t-88.5 42t-107.5 15.5q-60 0 -111 -15.5
t-91.5 -42t-70 -62.5t-46.5 -77h284q8 2 16 3t17 1h3z" />
    <glyph glyph-name="F" unicode="F" horiz-adv-x="757" 
d="M239 194v174q7 22 25 41h-212q-4 -20 -6 -40.5t-2 -41.5v-441h195v114h474v194h-474zM374 454h3q8 0 16 -1t16 -3h281q-18 41 -46.5 77t-68.5 63t-89.5 42.5t-109.5 15.5q-124 0 -202.5 -54.5t-109.5 -143.5h275q8 2 17 3t18 1zM503 372h209q-2 9 -3.5 18.5t-4.5 18.5
h-224q14 -17 23 -37z" />
    <glyph glyph-name="G" unicode="G" horiz-adv-x="766" 
d="M382 191h-3q-30 0 -54.5 10.5t-42.5 28t-28 40.5t-10 48l-1 16q0 17 9 37.5t24 37.5h-227q-10 -36 -10 -73v-28q0 -59 23.5 -115t67.5 -99.5t107.5 -70t143.5 -26.5q81 0 144.5 27.5t107 72.5t66.5 103t23 119v76h-200v-66q0 -22 -6.5 -44t-15.5 -37q-18 -26 -49 -41.5
t-69 -15.5zM64 450h282h4h372v194h-380q-48 0 -91 -15.5t-79 -42.5t-63.5 -62t-44.5 -74z" />
    <glyph glyph-name="H" unicode="H" 
d="M419 450h271q-17 41 -45 77t-67 62.5t-88 42t-108 15.5q-18 -2 -36 -3t-35.5 -4.5t-35.5 -11.5t-36 -23v154h-195v-309h274q15 5 29.5 7.5t25.5 2.5q10 0 11 -1q19 -3 35 -9zM520 0h194v329q0 39 -11 80h-218q17 -17 26 -37.5t9 -44.5v-327zM239 0v409h-195v-409h195z
" />
    <glyph glyph-name="I" unicode="I" horiz-adv-x="373" 
d="M329 336q-1 18 -2.5 36.5t-6.5 36.5h-217q14 -17 22.5 -38t8.5 -43v-328h195v336zM44 450h264q-14 39 -36.5 73t-55.5 60.5t-76 42.5t-96 18v-194z" />
    <glyph glyph-name="J" unicode="J" horiz-adv-x="646" 
d="M407 320q0 -18 -9.5 -40t-24.5 -41t-34 -32t-38 -13h-257v-194h265q65 0 119 28t92.5 72.5t60 99.5t21.5 109v100h-195v-89zM407 450h195v194h-195v-194z" />
    <glyph glyph-name="K" unicode="K" horiz-adv-x="747" 
d="M599 409h-225q-12 -42 -12 -86v-4q0 -60 23 -118t66.5 -103.5t107 -73t144.5 -27.5v194h-2q-29 0 -54 10.5t-43 28t-28 40.5t-10 48v7q0 48 33 84zM331 318v91h-195v-93q0 -20 -7.5 -39t-20 -35.5t-29.5 -28.5t-35 -16v-197q72 3 126 32t89.5 74t53.5 100.5t18 111.5z
M703 452v195q-59 0 -109 -15.5t-90 -42t-69 -62.5t-47 -77h287q7 1 13 1.5t13 0.5h2zM331 644h-195v-194h195v194z" />
    <glyph glyph-name="L" unicode="L" horiz-adv-x="525" 
d="M239 318v91h-195v-96q0 -59 22 -115.5t64.5 -101t104.5 -72t142 -27.5q31 0 54.5 5.5t49.5 13.5v186q-12 -6 -27 -9.5t-29.5 -5t-26.5 -2t-18 -0.5h-5q-30 0 -55 11.5t-43 30t-28 42.5t-10 49zM239 644h-195v-194h195v194z" />
    <glyph glyph-name="M" unicode="M" horiz-adv-x="1155" 
d="M378 450h270q-16 39 -42 74t-60 62t-75.5 42.5t-88.5 15.5h-338v-194h330h4zM480 0h194v329q0 39 -12 80h-219q16 -19 25.5 -41t11.5 -40v-328zM917 0h194v331q0 20 -2.5 39t-7.5 39h-215q14 -18 22.5 -39t8.5 -43v-327zM239 0v409h-195v-409h195zM828 450h260
q-17 41 -45 77t-67 62.5t-88.5 42t-108.5 15.5q-32 0 -54.5 -5.5t-48.5 -13.5v-178h22q22 6 44.5 7.5t32.5 1.5h6q13 0 24.5 -2.5t22.5 -6.5z" />
    <glyph glyph-name="N" unicode="N" horiz-adv-x="705" 
d="M333 318v91h-194v-93q0 -20 -8 -39t-21 -35.5t-30.5 -28.5t-35.5 -16v-197q72 3 126 32t90.5 74t54.5 100.5t18 111.5zM661 327q-1 39 -11 82h-217q15 -17 24.5 -38t9.5 -43v-328h194v327zM333 644h-194v-194h194v194zM372 450h265q-15 38 -38.5 72.5t-56.5 60.5
t-75.5 42.5t-94.5 18.5v-194z" />
    <glyph glyph-name="O" unicode="O" horiz-adv-x="761" 
d="M722 319q0 47 -13 90h-226q16 -17 25 -39t9 -45v-7q0 -25 -10 -48t-28 -40.5t-42.5 -28t-54.5 -10.5h-3q-30 0 -54.5 10.5t-42.5 28t-28 40.5t-10 48v7q0 48 33 84h-227q-6 -21 -8.5 -42.5t-2.5 -43.5v-4q0 -60 23 -118t66.5 -103.5t107 -73t145.5 -27.5q81 0 144 27.5
t106.5 73t66.5 103.5t24 118zM65 450h288q6 1 12.5 1.5t13.5 0.5h3q7 0 13 -0.5t12 -1.5h288q-18 41 -47 77t-68.5 62.5t-89 42t-109.5 15.5t-110.5 -15.5t-90 -42t-68.5 -62.5t-47 -77z" />
    <glyph glyph-name="P" unicode="P" horiz-adv-x="753" 
d="M382 -3q80 0 142 27.5t104 72.5t64 102t22 116v14q0 39 -12 80h-220q16 -19 26 -41t12 -40v-10q0 -26 -10.5 -48t-28.5 -39t-43 -29t-54 -17q-1 -1 -11 -1q-14 0 -33.5 4.5t-39 11.5t-36 15.5t-25.5 16.5v177h-195v-523h195v154q18 -15 36 -23t35.5 -12t35.5 -5t36 -3z
M44 450h369h4h271q-17 39 -43 74t-60 62t-75.5 42.5t-87.5 15.5h-378v-194z" />
    <glyph glyph-name="Q" unicode="Q" horiz-adv-x="808" 
d="M686 0l125 194h-116q13 30 20 61.5t7 63.5q0 47 -13 90h-226q16 -17 25 -39t9 -45v-7q0 -25 -10 -48t-28 -40.5t-42.5 -28t-54.5 -10.5h-3q-30 0 -54.5 10.5t-42.5 28t-28 40.5t-10 48v7q0 48 33 84h-227q-6 -21 -8.5 -42.5t-2.5 -43.5v-4q0 -60 23 -117.5t66.5 -102.5
t107 -72t145.5 -27h305zM65 450h288q6 1 12.5 1.5t13.5 0.5h3q7 0 13 -0.5t12 -1.5h288q-18 41 -47 77t-68.5 62.5t-89 42t-109.5 15.5t-110.5 -15.5t-90 -42t-68.5 -62.5t-47 -77z" />
    <glyph glyph-name="R" unicode="R" horiz-adv-x="753" 
d="M277 12l143 -126h220l-143 128q53 17 93.5 48t68 71.5t41.5 87t14 94.5v14q0 39 -12 80h-220q16 -19 26 -41t12 -40v-10q0 -25 -10.5 -49t-28.5 -42.5t-43 -30t-54 -11.5h-6q-6 0 -18 0.5t-26.5 2t-29.5 5t-26 9.5zM417 450h271q-17 39 -43 74t-60 62t-75.5 42.5
t-87.5 15.5h-378v-194h369h4zM239 -114v523h-195v-523h195z" />
    <glyph glyph-name="S" unicode="S" horiz-adv-x="761" 
d="M335 409h-285q-6 -21 -8.5 -42t-2.5 -42v-3l439 -100q-18 -14 -44 -25.5t-52 -11.5h-3q-30 0 -55 13.5t-42 30.5h-229q14 -47 42 -89.5t69 -74t95.5 -50t121.5 -18.5q81 0 144 27.5t106.5 72.5t66.5 103t24 118zM64 450h278q10 2 19.5 3t17.5 1h3q8 -1 15.5 -1.5
t15.5 -2.5h281q-18 41 -47 77t-68.5 62.5t-89 42t-108.5 15.5q-60 0 -110.5 -15.5t-90.5 -42t-69 -62.5t-47 -77z" />
    <glyph glyph-name="T" unicode="T" horiz-adv-x="757" 
d="M240 276v133h-196v-91q0 -70 21.5 -129t63.5 -101.5t104 -66.5t143 -24q73 0 131.5 23t101.5 61t69 88t34 104h-209q-14 -35 -47 -58t-79 -24h-3q-48 1 -84.5 25t-49.5 60zM44 450h669v194h-474v116h-195v-310z" />
    <glyph glyph-name="U" unicode="U" 
d="M520 318q0 -25 -10.5 -49t-28.5 -42.5t-43 -30t-54 -11.5h-6q-6 0 -18 0.5t-26.5 2t-29.5 5t-26 9.5v-186q26 -8 49.5 -13.5t54.5 -5.5q80 0 142 26.5t104 70t64 100t22 115.5v100h-194v-91zM239 0v409h-195v-409h195zM239 644h-195v-194h195v194zM520 450h194v194h-194
v-194z" />
    <glyph glyph-name="V" unicode="V" horiz-adv-x="705" 
d="M44 318q1 -56 19.5 -111.5t54.5 -100.5t89.5 -74t125.5 -32v197q-18 4 -35 16t-30 28.5t-21 36t-8 38.5v93h-195v-91zM372 0h194v328q0 22 9 43t25 38h-218q-10 -39 -10 -82v-327zM44 450h195v194h-195v-194zM394 450h267v194q-52 -2 -95 -18t-76 -42.5t-57 -60.5
t-39 -73z" />
    <glyph glyph-name="W" unicode="W" horiz-adv-x="1155" 
d="M675 317v92h-194v-94q0 -54 21.5 -109.5t60 -101.5t92 -75t118.5 -29h338v409h-194v-215h-135q-20 0 -38.5 12.5t-33.5 31t-24.5 40t-10.5 39.5zM239 318v91h-195v-96q0 -59 22 -115.5t64.5 -101t104.5 -72t142 -27.5q31 0 53.5 5.5t48.5 13.5v186q-11 -6 -25.5 -9.5
t-29 -5t-26.5 -2t-18 -0.5h-5q-30 0 -55 11.5t-43 30t-28 42.5t-10 49zM239 644h-195v-194h195v194zM917 450h194v194h-194v-194zM675 644h-194v-194h194v194z" />
    <glyph glyph-name="X" unicode="X" horiz-adv-x="705" 
d="M661 0v197q-18 4 -35.5 16t-30.5 28.5t-21 35.5t-8 39v93h-194v-91q0 -56 18 -111.5t54.5 -100.5t90.5 -74t126 -32zM333 0v327q0 20 -2.5 41t-7.5 41h-218q15 -17 24.5 -38t9.5 -43v-328h194zM372 644v-194h194v194h-194zM44 644v-194h266q-15 39 -39 73t-57 60.5
t-75.5 42.5t-94.5 18z" />
    <glyph glyph-name="Y" unicode="Y" 
d="M239 318v91h-195v-94q0 -59 22 -116t64.5 -102t104.5 -72.5t142 -27.5q18 2 35.5 3t35.5 5t36 12t36 23v-154h194v523h-194v-177q-10 -8 -26.5 -16.5t-36 -15.5t-38.5 -11.5t-33 -4.5h-6q-4 0 -5 1q-29 5 -54 17t-43 29t-28.5 39t-10.5 48zM239 644h-195v-194h195v194z
M520 450h194v194h-194v-194z" />
    <glyph glyph-name="Z" unicode="Z" horiz-adv-x="756" 
d="M712 336q0 18 -2.5 36t-7.5 37h-298l-359 -67v-33q0 -54 21.5 -109t60 -99.5t92.5 -72.5t119 -28h374v194h-366q-28 0 -53 24l419 80v38zM415 450h273q-16 39 -42.5 74t-61 62t-76 42.5t-89.5 15.5h-375v-194h367h4z" />
    <glyph glyph-name="bracketleft" unicode="[" horiz-adv-x="384" 
d="M239 121v288h-195v-482h296v194h-101zM340 717h-296v-267h195v72h101v195z" />
    <glyph glyph-name="backslash" unicode="\" horiz-adv-x="472" 
d="M236 0h197l-125 409h-197zM39 644l59 -194h197l-59 194h-197z" />
    <glyph glyph-name="bracketright" unicode="]" horiz-adv-x="384" 
d="M44 121v-194h296v482h-195v-288h-101zM44 717v-195h101v-72h195v267h-296z" />
    <glyph glyph-name="asciicircum" unicode="^" horiz-adv-x="701" 
d="M370 318q0 -56 18 -111.5t53.5 -100.5t89.5 -74t126 -32v197q-18 4 -35 16t-29.5 28.5t-20 35.5t-7.5 39v93h-195v-91zM331 318v91h-195v-93q0 -20 -7.5 -39t-20 -35.5t-29.5 -28.5t-35 -16v-197q72 3 126 32t89.5 74t53.5 100.5t18 111.5zM370 450h195v194h-195v-194z
M331 644h-195v-194h195v194z" />
    <glyph glyph-name="FL005Fh" unicode="_" horiz-adv-x="496" 
d="M452 128h-408v-152h408v152z" />
    <glyph glyph-name="grave" unicode="`" horiz-adv-x="213" 
d="M34 735q20 -17 43.5 -27t45.5 -10q30 0 45 18q11 11 11 33q0 24 -13.5 51.5t-34.5 47.5q-19 17 -43 26.5t-45 9.5q-28 0 -43 -16q-12 -15 -12 -38t12 -49t34 -46z" />
    <glyph glyph-name="a" unicode="a" horiz-adv-x="753" 
d="M64 450h645v194h-377q-47 0 -88.5 -15.5t-76 -42.5t-61 -62t-42.5 -74zM234 328q1 18 11 40t25 41h-220q-6 -20 -8.5 -39.5t-2.5 -38.5v-18q0 -59 22 -115.5t64.5 -101t104.5 -72t142 -27.5q31 0 54.5 5.5t49.5 13.5v186q-12 -6 -27 -9.5t-29.5 -5t-26.5 -2t-18 -0.5h-5
q-30 0 -55 11.5t-43 30t-28 42.5t-10 49v10zM709 0v409h-194v-409h194z" />
    <glyph glyph-name="b" unicode="b" horiz-adv-x="753" 
d="M520 317q-1 -18 -11 -39.5t-25 -40t-33.5 -31t-37.5 -12.5h-174v215h-195v-409h378q64 0 118 29t92.5 75t60 101.5t21.5 109.5v14q0 39 -11 80h-214q14 -18 22.5 -39t8.5 -43v-10zM431 450h259q-17 41 -45 77t-67 62.5t-88 42t-108 15.5q-31 0 -54.5 -5.5t-49.5 -13.5
v-178h20q23 6 47 7.5t33 1.5h6q13 0 24.5 -2.5t22.5 -6.5zM44 450h195v309h-195v-309z" />
    <glyph glyph-name="c" unicode="c" horiz-adv-x="756" 
d="M382 191h-3q-30 0 -54.5 10.5t-42.5 28t-28 40.5t-10 48v7q0 48 33 84h-227q-6 -21 -8.5 -42.5t-2.5 -43.5v-4q0 -60 23 -118t66.5 -103.5t107 -73t145.5 -27.5q73 0 131.5 23t101.5 61t69 88t34 104h-209q-14 -35 -47 -58t-79 -24zM65 450h288q6 1 12.5 1.5t13.5 0.5h3
q5 0 11 -0.5t11 -1.5h290q-18 41 -46.5 77t-68 62.5t-89 42t-109.5 15.5t-110.5 -15.5t-90 -42t-68.5 -62.5t-47 -77zM708 409h-225q14 -15 24 -37h210q-3 20 -9 37z" />
    <glyph glyph-name="d" unicode="d" horiz-adv-x="753" 
d="M234 317v10q0 44 30 82h-215q-10 -37 -10 -80v-14q0 -54 21.5 -109.5t60 -101.5t92.5 -75t119 -29h377v409h-194v-215h-175q-19 0 -37.5 12.5t-33.5 31t-24.5 40t-10.5 39.5zM63 450h258q11 4 23 6.5t26 2.5h5q9 0 35 -1.5t50 -7.5h21v178q-26 8 -52 13.5t-57 5.5
q-59 0 -108.5 -15.5t-88.5 -42t-67 -62.5t-45 -77zM515 450h194v309h-194v-309z" />
    <glyph glyph-name="e" unicode="e" horiz-adv-x="766" 
d="M275 409h-227q-9 -36 -9 -72v-28q0 -54 23 -109t63.5 -99.5t96 -72.5t120.5 -28h380v194h-372q-20 0 -39 11.5t-34 28.5t-24.5 37.5t-9.5 38.5l1 17q0 46 31 82zM382 454q9 0 18.5 -1t17.5 -3h278q-17 41 -46 77t-69 62.5t-90 42t-110 15.5t-111 -15.5t-91.5 -42
t-70 -62.5t-46.5 -77h282q8 2 16.5 3t18.5 1h3zM710 409h-224q2 -3 5 -6.5t5 -6.5h-52q-39 0 -57 -21.5t-18 -51.5q1 -37 17 -55.5t54 -18.5h282v76q0 42 -12 84z" />
    <glyph glyph-name="f" unicode="f" horiz-adv-x="646" 
d="M239 324q0 19 9.5 42t26.5 43h-221q-10 -36 -10 -73v-451h195v115h363v194h-362l-1 1v129zM68 450h273h4h257v194h-265q-48 0 -90 -15.5t-76.5 -42.5t-60.5 -62t-42 -74z" />
    <glyph glyph-name="g" unicode="g" horiz-adv-x="766" 
d="M382 191h-3q-30 0 -54.5 10.5t-42.5 28t-28 40.5t-10 48l-1 16q0 17 9 37.5t24 37.5h-227q-10 -36 -10 -73v-28q0 -59 23.5 -115t67.5 -99.5t107.5 -70t143.5 -26.5q81 0 144.5 27.5t107 72.5t66.5 103t23 119v76h-282q-38 0 -54 -18.5t-17 -55.5q0 -29 18 -51t57 -22h52
q-18 -26 -47 -41.5t-67 -15.5zM722 450v194h-380q-48 0 -91 -15.5t-79 -42.5t-63.5 -62t-44.5 -74h658z" />
    <glyph glyph-name="h" unicode="h" 
d="M520 0h194v336q0 18 -2.5 36.5t-6.5 36.5h-216q14 -18 22.5 -39t8.5 -43v-327zM239 0v409h-195v-409h195zM431 450h261q-16 41 -44 77t-67 62.5t-89 42t-110 15.5q-31 0 -54.5 -5.5t-49.5 -13.5v-178h20q23 6 47 7.5t33 1.5h6q13 0 24.5 -2.5t22.5 -6.5zM239 759h-195
v-309h195v309z" />
    <glyph glyph-name="i" unicode="i" horiz-adv-x="283" 
d="M239 0v409h-195v-409h195zM239 644h-195v-194h195v194z" />
    <glyph glyph-name="j" unicode="j" horiz-adv-x="756" 
d="M379 191q-45 1 -78.5 24t-47.5 58h-209q9 -54 35 -104t69 -88t101 -61t132 -23q81 0 143 24t104 66.5t63 101.5t21 129v91h-194v-91q0 -25 -10 -48t-28 -40.5t-43 -28t-54 -10.5h-4zM518 450h194v194h-194v-194z" />
    <glyph glyph-name="k" unicode="k" horiz-adv-x="747" 
d="M599 409h-225q-12 -42 -12 -86v-4q0 -60 23 -118t66.5 -103.5t107 -73t144.5 -27.5v194h-2q-29 0 -54 10.5t-43 28t-28 40.5t-10 48v7q0 48 33 84zM331 318v91h-195v-93q0 -20 -7.5 -39t-20 -35.5t-29.5 -28.5t-35 -16v-197q72 3 126 32.5t89.5 75t53.5 101t18 109.5z
M331 759h-195v-309h195v309zM703 452v195q-59 0 -109 -15.5t-90 -42t-69 -62.5t-47 -77h287q7 1 13 1.5t13 0.5h2z" />
    <glyph glyph-name="l" unicode="l" horiz-adv-x="646" 
d="M239 320v89h-195v-100q0 -54 21.5 -109t60 -99.5t92.5 -72.5t119 -28h265v194h-257q-20 0 -39 13t-34 32t-24 41t-9 40zM44 450h195v194h-195v-194z" />
    <glyph glyph-name="m" unicode="m" horiz-adv-x="1154" 
d="M388 450h264q-17 45 -45.5 81.5t-67 62.5t-85 40t-100.5 14q-124 0 -196 -54.5t-98 -143.5h259q8 2 16 3t17 1h4q8 0 16 -1t16 -3zM259 409h-208q-4 -20 -5.5 -40.5t-1.5 -41.5v-327h195v368q7 22 20 41zM916 0h194v331q0 20 -2.5 39t-7.5 39h-215q14 -18 22.5 -39
t8.5 -43v-327zM673 327q0 43 -9 82h-206q14 -19 20 -40v-369h195v327zM827 450h260q-17 41 -45 77t-67 62.5t-88.5 42t-108.5 15.5q-31 0 -54 -5.5t-49 -13.5v-178h22q22 6 44.5 7.5t32.5 1.5h6q13 0 24.5 -2.5t22.5 -6.5z" />
    <glyph glyph-name="n" unicode="n" 
d="M520 0h194v336q0 18 -2.5 36.5t-6.5 36.5h-216q14 -18 22.5 -39t8.5 -43v-327zM239 0v409h-195v-409h195zM431 450h261q-16 41 -44 77t-67 62.5t-89 42t-110 15.5q-31 0 -54.5 -5.5t-49.5 -13.5v-178h20q23 6 47 7.5t33 1.5h6q13 0 24.5 -2.5t22.5 -6.5zM239 644h-195
v-194h195v194z" />
    <glyph glyph-name="o" unicode="o" horiz-adv-x="761" 
d="M407 450h288q-18 41 -47 77t-68.5 62.5t-89 42t-109.5 15.5t-110.5 -15.5t-90 -42t-68.5 -62.5t-47 -77h288q6 1 12.5 1.5t13.5 0.5h3q7 0 13 -0.5t12 -1.5zM277 409h-227q-6 -21 -8.5 -42.5t-2.5 -43.5v-4q0 -56 19.5 -109.5t57 -97t91.5 -73.5t124 -39v200
q-39 14 -63 46t-24 72v7q0 48 33 84zM722 319q0 47 -13 90h-226q16 -17 25 -39t9 -45v-7q0 -40 -24.5 -72.5t-63.5 -46.5v-199q70 8 124 38t91 74t57 97.5t21 109.5z" />
    <glyph glyph-name="p" unicode="p" horiz-adv-x="753" 
d="M417 450h271q-17 39 -43 74t-60 62t-75.5 42.5t-87.5 15.5h-378v-194h369h4zM520 328v-10q0 -25 -10.5 -49t-28.5 -42.5t-43 -30t-54 -11.5h-6q-6 0 -18 0.5t-26.5 2t-29.5 5t-26 9.5v-186q26 -8 49.5 -13.5t54.5 -5.5q80 0 142 27.5t104 72.5t64 102t22 116v14
q0 39 -12 80h-220q16 -19 26 -41t12 -40zM239 -114v523h-195v-523h195z" />
    <glyph glyph-name="q" unicode="q" horiz-adv-x="753" 
d="M65 450h271h4h369v194h-377q-47 0 -88.5 -15.5t-75.5 -42.5t-60.5 -62t-42.5 -74zM234 328q1 18 11 40t25 41h-220q-11 -42 -11 -80v-14q0 -59 22 -116t64.5 -102t104.5 -72.5t142 -27.5q31 0 54.5 5.5t49.5 13.5v186q-12 -6 -27 -9.5t-29.5 -5t-26.5 -2t-18 -0.5h-5
q-30 0 -55 11.5t-43 30t-28 42.5t-10 49v10zM709 -114v523h-194v-523h194z" />
    <glyph glyph-name="r" unicode="r" horiz-adv-x="645" 
d="M67 450h273h4h257v194h-265q-48 0 -90 -15.5t-76.5 -42.5t-60.5 -62t-42 -74zM238 324q0 19 9.5 42t26.5 43h-220q-10 -36 -10 -73v-336h194v324z" />
    <glyph glyph-name="s" unicode="s" horiz-adv-x="756" 
d="M518 320q0 -18 -9.5 -40t-24.5 -41t-34 -32t-38 -13h-368v-194h376q65 0 119 28t92.5 72.5t59.5 99.5t21 109v40h-194v-29zM712 450v194h-375q-48 0 -90 -15.5t-76.5 -42.5t-60.5 -62t-42 -74h644zM239 324q0 19 9.5 42t26.5 43h-221q-10 -36 -10 -73v-41h195v29z" />
    <glyph glyph-name="t" unicode="t" horiz-adv-x="646" 
d="M239 320v89h-195v-100q0 -54 21.5 -109t60 -99.5t92.5 -72.5t119 -28h265v194h-257q-20 0 -39 13t-34 32t-24 41t-9 40zM44 450h558v194h-363v116h-195v-310z" />
    <glyph glyph-name="u" unicode="u" 
d="M239 318v91h-195v-100q0 -59 22 -115.5t64.5 -100t104.5 -70t142 -26.5q31 0 54.5 5.5t49.5 13.5v186q-12 -6 -27 -9.5t-29.5 -5t-26.5 -2t-18 -0.5h-5q-30 0 -55 11.5t-43 30t-28 42.5t-10 49zM520 0h194v409h-194v-409zM239 644h-195v-194h195v194zM520 450h194v194
h-194v-194z" />
    <glyph glyph-name="v" unicode="v" horiz-adv-x="705" 
d="M661 318v91h-194v-93q0 -20 -8 -39t-21 -35.5t-30.5 -28.5t-35.5 -16v-197q72 3 126.5 32t90.5 74t54 100.5t18 111.5zM333 327q0 20 -2.5 41t-7.5 41h-218q15 -17 24.5 -38t9.5 -43v-328h194v327zM661 644h-194v-194h194v194zM44 450h266q-15 39 -39 73t-57 60.5
t-75.5 42.5t-94.5 18v-194z" />
    <glyph glyph-name="w" unicode="w" horiz-adv-x="1154" 
d="M673 318v91h-195v-134q-9 -38 -43 -60.5t-79 -23.5h-4q-48 1 -74 25t-39 60v133h-195v-91q0 -70 18 -129t55.5 -102t96.5 -67t140 -24q70 0 128.5 24t101 66.5t66 101.5t23.5 130zM916 318q0 -25 -10.5 -49t-28.5 -42.5t-43 -30t-54 -11.5h-6q-6 0 -18 0.5t-26 2.5
t-28.5 5t-26.5 9v-186q26 -8 49 -13.5t54 -5.5q80 0 142 27.5t104 72t64 101t22 115.5v96h-194v-91zM673 644h-195v-194h195v194zM44 450h195v194h-195v-194zM916 450h194v194h-194v-194z" />
    <glyph glyph-name="x" unicode="x" horiz-adv-x="767" 
d="M162 325v-7q0 -25 -7 -48t-21.5 -40.5t-36 -28t-51.5 -10.5h-2v-194q82 0 142.5 27.5t100.5 73t60 103.5t20 118v4q0 46 -10 86h-220q13 -17 19 -39t6 -45zM401 323v-4q0 -60 19.5 -118t59.5 -103.5t100.5 -73t142.5 -27.5v194h-2q-29 0 -51 10.5t-36.5 28t-21.5 40.5
t-7 48v7q0 23 6 45t19 39h-219q-10 -40 -10 -86zM44 452h2q7 0 13 -0.5t12 -1.5h273q-16 41 -42.5 77t-64 62.5t-85.5 42t-108 15.5v-195zM721 452h2v195q-60 0 -108.5 -15.5t-86 -42t-64 -62.5t-41.5 -77h273q6 1 12 1.5t13 0.5z" />
    <glyph glyph-name="y" unicode="y" 
d="M239 318v91h-195v-100q0 -59 22 -115.5t64.5 -100t104.5 -70t142 -26.5q31 0 54.5 5.5t49.5 13.5v186q-12 -6 -27 -9.5t-29.5 -5t-26.5 -2t-18 -0.5h-5q-30 0 -55 11.5t-43 30t-28 42.5t-10 49zM520 -114h194v523h-194v-523zM239 644h-195v-194h195v194zM520 450h194v194
h-194v-194z" />
    <glyph glyph-name="z" unicode="z" horiz-adv-x="756" 
d="M239 320v29h-195v-40q0 -54 21.5 -109t60 -99.5t92.5 -72.5t119 -28h375v194h-367q-20 0 -39 13t-34 32t-24 41t-9 40zM44 450h644q-16 39 -41.5 74t-60 62t-76.5 42.5t-90 15.5h-376v-194zM518 324v-29h194v41q0 18 -2.5 36t-7.5 37h-221q17 -20 27 -43t10 -42z" />
    <glyph glyph-name="FL00BCh" unicode="{" horiz-adv-x="765" 
d="M721 336h-1q-1 35 -11 73h-295l-159 -29q9 17 19 29h-226q-9 -36 -9 -72v-28q0 -54 23 -109t63.5 -99.5t96 -72.5t120.5 -28h374v194h-366q-29 0 -54 22l425 82v38zM382 454q8 0 17 -1t17 -3h279q-18 41 -47 77t-68.5 62.5t-89.5 42t-109 15.5q-60 0 -111 -15.5
t-91.5 -42t-70 -62.5t-46.5 -77h284q8 2 16 3t17 1h3z" />
    <glyph glyph-name="FL007Ch" unicode="|" horiz-adv-x="275" 
d="M235 -114v523h-195v-523h195zM235 758h-195v-308h195v308z" />
    <glyph glyph-name="FL00B6h" unicode="}" horiz-adv-x="525" 
d="M239 326q0 45 30 83h-215q-10 -37 -10 -78v-331h195v326zM67 450h259q11 4 23 6.5t26 2.5h5q10 0 33 -1.5t46 -7.5h22v178q-26 8 -49.5 13.5t-54.5 5.5q-59 0 -108.5 -15.5t-88.5 -42t-67.5 -62.5t-45.5 -77z" />
    <glyph glyph-name="onehalf" unicode="~" horiz-adv-x="723" 
d="M394 450h267q-17 45 -45.5 81.5t-67.5 62.5t-86.5 40t-101.5 14q-62 0 -111.5 -14t-87 -40t-63.5 -62.5t-40 -81.5h266q8 2 16.5 3t17.5 1h4q8 0 16 -1t16 -3zM258 409h-211q-4 -20 -5.5 -40.5t-1.5 -41.5v-327h195v368q7 22 23 41zM682 327q0 43 -9 82h-208
q8 -8 13 -17.5t10 -19.5v-372h194v327z" />
    <glyph glyph-name="FL007Fh" horiz-adv-x="203" 
 />
    <glyph glyph-name="exclamdown" unicode="&#xa1;" horiz-adv-x="283" 
d="M239 0v391h-195v-391h195zM247 549q0 19 -8.5 37t-23 31.5t-33.5 21.5t-41 8q-20 0 -39 -7.5t-33.5 -21t-23.5 -32t-9 -40.5q0 -37 25.5 -63t59.5 -33h42q37 8 60.5 36t23.5 63z" />
    <glyph glyph-name="FL00A2h" unicode="&#xa2;" horiz-adv-x="756" 
d="M359 -74h37v71q70 2 126 25.5t96.5 61.5t65.5 87t33 102h-209q-14 -33 -42 -55t-70 -26v217h-37v-217q-26 3 -47.5 14.5t-36.5 28.5t-23 38.5t-8 44.5v7q0 48 31 84h-225q-11 -44 -11 -86v-4q0 -59 21 -115t61.5 -101t100.5 -73.5t137 -31.5v-72zM65 450h287q4 0 7 1v-1
h37v1q3 -1 8 -1h290q-17 40 -44.5 75.5t-65 62t-84.5 42t-104 17.5v71h-37v-72q-56 -2 -102.5 -18.5t-83.5 -42.5t-64.5 -61t-43.5 -74zM708 409h-225q14 -15 24 -37h210q-3 20 -9 37z" />
    <glyph glyph-name="FL00A3h" unicode="&#xa3;" horiz-adv-x="698" 
d="M476 303v106h-432v-106h79q1 -27 7 -55t17 -54h-103v-194h610v194h-234q-17 1 -33.5 12t-30.5 27t-23.5 34.5t-12.5 35.5h156zM476 498h-158v146h-195v-146h-79v-48h432v48z" />
    <glyph glyph-name="FL00A4h" unicode="&#xa4;" horiz-adv-x="768" 
d="M631 409h-494q13 -17 19 -39t6 -45v-7q0 -25 -7 -48t-21.5 -40.5t-36 -28t-51.5 -10.5h-2v-194q104 0 175 44t107 112q17 -4 32.5 -6t29.5 -2q35 0 55 7q36 -68 106 -111.5t175 -43.5v194h-2q-29 0 -51 10.5t-36.5 28t-21.5 40.5t-7 48v7q0 23 6 45t19 39zM724 452v195
q-104 0 -173 -43t-106 -109q-32 8 -57 8q-40 0 -64 -10q-38 67 -107 110.5t-173 43.5v-195h2q7 0 13 -0.5t12 -1.5h626q6 1 12 1.5t13 0.5h2zM388 262h-2q-32 0 -48 16t-16 44v4q0 28 16 44t48 16h2q33 0 48.5 -16t15.5 -44v-4q0 -28 -15.5 -44t-48.5 -16z" />
    <glyph glyph-name="yen" unicode="&#xa5;" horiz-adv-x="892" 
d="M848 383h-134v26h-194v-26h-125v-149h125v-2q-10 -8 -26.5 -16.5t-36 -15.5t-38.5 -11.5t-33 -4.5h-6q-4 0 -5 1q-29 5 -54 17t-43 29t-28.5 39t-10.5 48v91h-195v-94q0 -59 22 -116t64.5 -102t104.5 -72.5t142 -27.5q18 2 35.5 3t35.5 5t36 12t36 23v-154h194v348h134
v149zM395 450h453v117h-134v77h-194v-77h-125v-117zM44 450h195v194h-195v-194z" />
    <glyph glyph-name="FL00A6h" unicode="&#xa6;" horiz-adv-x="275" 
d="M235 302h-195v-416h195v416zM40 450h195v308h-195v-308zM235 342v67h-195v-67h195z" />
    <glyph glyph-name="FL00A7h" unicode="&#xa7;" horiz-adv-x="756" 
d="M518 320q0 -18 -9.5 -40t-24.5 -41t-34 -32t-38 -13h-368v-194h376q65 0 119 28t92.5 72.5t59.5 99.5t21 109v40h-194v-29zM712 644h-375q-48 0 -90 -15.5t-76.5 -42.5t-60.5 -62t-42 -74h644v194zM476 320q0 16 -7 32t-19 28.5t-28.5 20t-35.5 8.5h-8q-17 -1 -33.5 -7.5
t-29.5 -18t-20.5 -27.5t-7.5 -34q0 -20 8 -36t21 -28t30 -18.5t35 -6.5q19 0 36.5 7t30.5 19t20.5 28t7.5 33zM239 324q0 19 9.5 42t26.5 43h-221q-10 -36 -10 -73v-41h195v29z" />
    <glyph glyph-name="dieresis" unicode="&#xa8;" horiz-adv-x="510" 
d="M476 790q0 18 -7.5 35t-21 30t-31 21t-38.5 8q-19 0 -37 -7t-31.5 -19t-22 -29t-8.5 -36q0 -20 8.5 -37.5t22 -30t31 -19.5t36.5 -7q20 0 38 7.5t31.5 20t21.5 29t8 34.5zM231 790q0 18 -7.5 35t-21 30t-31 21t-38.5 8q-19 0 -37 -7t-31.5 -19t-22 -29t-8.5 -36
q0 -20 8.5 -37.5t22 -30t31 -19.5t36.5 -7q20 0 38 7.5t31.5 20t21.5 29t8 34.5z" />
    <glyph glyph-name="degree" unicode="&#xa9;" horiz-adv-x="425" 
d="M277 409h-227q-6 -21 -8.5 -42.5t-2.5 -43.5v-4q0 -60 23 -118t66.5 -103.5t107 -73t145.5 -27.5v194h-2q-30 0 -54.5 10.5t-42.5 28t-28 40.5t-10 48v7q0 48 33 84zM381 452v195q-60 0 -110.5 -15.5t-90 -42t-68.5 -62.5t-47 -77h288q6 1 12.5 1.5t13.5 0.5h2z" />
    <glyph glyph-name="FL00AAh" unicode="&#xaa;" horiz-adv-x="766" 
d="M384 191q-38 0 -67 15.5t-47 41.5h52q39 0 57 22t18 51q-1 37 -17 55.5t-54 18.5h-282v-76q0 -61 23 -119t66.5 -103t107 -72.5t144.5 -27.5q80 0 143.5 26.5t107.5 70t67.5 99.5t23.5 115v28q0 34 -11 73h-226q14 -17 23.5 -37.5t9.5 -37.5l-1 -16q0 -25 -10 -48
t-28 -40.5t-42.5 -28t-54.5 -10.5h-3zM424 644h-380v-194h657q-17 39 -44.5 74t-63.5 62t-78.5 42.5t-90.5 15.5z" />
    <glyph glyph-name="guillemotleft" unicode="&#xab;" horiz-adv-x="476" 
d="M383 320l-2 2q2 2 2 3q16 17 31.5 39.5t20.5 44.5h-160q-12 -18 -18 -39t-6 -38v-19q0 -21 9.5 -47.5t26.5 -45.5q20 -21 47.5 -37t51.5 -16q22 0 33 11q18 15 18 45q0 23 -18 50t-36 47zM171 320l-2 2q2 2 2 3q16 17 31.5 39.5t20.5 44.5h-160q-12 -18 -18 -39t-6 -38
v-19q0 -21 9.5 -47.5t26.5 -45.5q20 -21 47.5 -37t51.5 -16q22 0 33 11q18 15 18 45q0 23 -18 50t-36 47zM103 450h116q-5 10 -12 17q-11 11 -33 11q-17 0 -35.5 -8t-35.5 -20zM315 450h116q-5 10 -12 17q-11 11 -33 11q-17 0 -35.5 -8t-35.5 -20z" />
    <glyph glyph-name="logicalnot" unicode="&#xac;" horiz-adv-x="473" 
d="M429 120v289h-385v-174h211v-115h174z" />
    <glyph glyph-name="FL00ADh" unicode="&#xad;" horiz-adv-x="367" 
d="M323 225v184h-279v-184h279z" />
    <glyph glyph-name="mu" unicode="&#xae;" horiz-adv-x="756" 
d="M377 454q8 0 16 -1t16 -3h281q-18 41 -46.5 77t-68.5 62.5t-89.5 42t-109.5 15.5q-124 0 -202.5 -54t-109.5 -143h275q8 2 17 3t18 1h3zM271 409h-219q-4 -20 -6 -40.5t-2 -41.5v-327h195v327q0 23 8.5 44t23.5 38zM704 409h-224q14 -17 23 -37h209q-2 9 -3.5 18.5
t-4.5 18.5z" />
    <glyph glyph-name="FL00AFh" unicode="&#xaf;" horiz-adv-x="496" 
d="M452 664h-408v-152h408v152z" />
    <glyph glyph-name="FL00B0h" unicode="&#xb0;" horiz-adv-x="265" 
d="M231 790q0 18 -7.5 35t-21 30t-31 21t-38.5 8q-19 0 -37 -7t-31.5 -19t-22 -29t-8.5 -36q0 -20 8.5 -37.5t22 -30t31 -19.5t36.5 -7q20 0 38 7.5t31.5 20t21.5 29t8 34.5z" />
    <glyph glyph-name="FL00B1h" unicode="&#xb1;" horiz-adv-x="491" 
d="M447 0v174h-403v-174h403zM44 450h403v80h-115v114h-174v-114h-114v-80zM332 241v115h115v53h-403v-53h114v-115h174z" />
    <glyph glyph-name="FL00B2h" unicode="&#xb2;" horiz-adv-x="462" 
d="M174 469l244 57q0 33 -12.5 66t-36.5 59t-58.5 42.5t-79.5 16.5q-36 0 -65.5 -10t-52.5 -27.5t-39 -41t-24 -49.5h126q13 6 23.5 9t27.5 3h2q14 0 26 -1.5t27 -6.5l-238 -61v-75h374v19h-244zM418 354v55h-374v-55h374z" />
    <glyph glyph-name="FL00B3h" unicode="&#xb3;" horiz-adv-x="815" 
d="M302 334q-9 38 -50 38h-15q-46 -28 -46 -103q10 -18 43 -18q5 0 9.5 0.5t11.5 1.5q36 0 47 81zM590 259v84q-13 37 -35 37q-16 0 -17 -4q-41 -56 -52 -114h27q16 27 30 27q17 0 31 -27zM413 253v114l-19 5l-5 -78l-73 73v-116l22 4v54q47 -56 75 -56zM707 258v114l-22 5
l-4 -81l-70 76v-115l22 2v56q43 -57 74 -57zM182 375q-91 -12 -91 -66v-8q0 -5 2 -7q12 -52 48 -52q6 0 10 2t15 4l-1 19q-6 -3 -24 -3q-26 0 -26 23q0 26 18 47q20 17 33 17q7 0 7 -1l2 -1q1 0 5 -2zM277 317q0 -11 -1.5 -17.5t-6.5 -16.5q-19 -10 -33 -10q-19 0 -19 28v8
q13 36 35 36q13 0 24 -14q0 -5 0.5 -8.5t0.5 -5.5zM474 377l-24 -5l-13 -115l30 7zM78 372l-21 -3l-13 -118l26 9zM771 372l-30 5l-4 -88l21 -2zM567 315h-39l23 38zM760 251l-19 8l-15 -12l15 -14z" />
    <glyph glyph-name="FL00B4h" unicode="&#xb4;" horiz-adv-x="213" 
d="M179 735q22 20 34 46t12 49t-12 38q-15 16 -43 16q-21 0 -45 -9.5t-43 -26.5q-21 -20 -34.5 -47.5t-13.5 -51.5q0 -22 11 -33q15 -18 45 -18q22 0 45.5 10t43.5 27z" />
    <glyph glyph-name="FL00B5h" unicode="&#xb5;" 
d="M519 318q0 -25 -10 -49t-28 -42.5t-43 -30t-55 -11.5h-5q-6 0 -18 0.5t-26.5 2t-29.5 5t-27 9.5v-186q26 -8 49.5 -13.5t54.5 -5.5q80 0 142 26.5t104.5 70t64.5 100t22 115.5v100h-195v-91zM238 -114v523h-194v-523h194zM519 450h195v194h-195v-194zM238 644h-194v-194
h194v194z" />
    <glyph glyph-name="FL00BEh" unicode="&#xb6;" horiz-adv-x="753" 
d="M476 12l-1 190q-11 -6 -26 -9.5t-29.5 -5t-26.5 -2t-18 -0.5v224h-325q-11 -42 -11 -80v-14q0 -48 14 -94.5t41.5 -87t68 -71.5t93.5 -48l-143 -128h220zM709 644h-378q-47 0 -88 -15.5t-75 -42.5t-60.5 -62t-42.5 -74h644v194zM709 -114v523h-195v-523h195z" />
    <glyph glyph-name="FL00B7h" unicode="&#xb7;" horiz-adv-x="289" 
d="M250 319q0 28 -16 52t-42 38h-95q-25 -12 -41.5 -35t-16.5 -52q0 -22 9 -40.5t23.5 -32t33.5 -21t39 -7.5q22 0 41 8t33.5 21.5t23 31t8.5 37.5z" />
    <glyph glyph-name="FL00B8h" unicode="&#xb8;" horiz-adv-x="273" 
d="M229 -201v201h-161v-40h-68v-161h229z" />
    <glyph glyph-name="FL00B9h" unicode="&#xb9;" horiz-adv-x="219" 
d="M175 707h-131v-257h131v257zM175 353v56h-131v-56h131z" />
    <glyph glyph-name="FL00BAh" unicode="&#xba;" horiz-adv-x="454" 
d="M415 529q0 34 -12.5 66.5t-36 58t-58.5 41t-80 15.5t-80 -15.5t-59.5 -40.5t-37 -57t-12.5 -65v-3q0 -20 4.5 -40.5t14.5 -38.5h336q19 36 21 79zM228 469h-2q-32 0 -48 16t-16 44v4q0 28 16 44t48 16h2q33 0 48.5 -16t15.5 -44v-4q0 -28 -15.5 -44t-48.5 -16zM365 409
h-278q24 -26 59.5 -41.5t81.5 -15.5q45 0 79 15.5t58 41.5z" />
    <glyph glyph-name="FL00BBh" unicode="&#xbb;" horiz-adv-x="476" 
d="M93 320q-18 -20 -36 -47t-18 -50q0 -30 18 -45q11 -11 33 -11q24 0 51.5 16t47.5 37q17 19 26.5 45.5t9.5 47.5v19q0 17 -6.5 38t-17.5 39h-161q5 -22 21 -44.5t32 -39.5q0 -1 2 -3zM305 320q-18 -20 -36 -47t-18 -50q0 -30 18 -45q11 -11 33 -11q24 0 51.5 16t47.5 37
q17 19 26.5 45.5t9.5 47.5v19q0 17 -6.5 38t-17.5 39h-161q5 -22 21 -44.5t32 -39.5q0 -1 2 -3zM302 478q-22 0 -33 -11q-9 -7 -13 -17h116q-17 12 -35 20t-35 8zM90 478q-22 0 -33 -11q-8 -6 -13 -17h116q-17 12 -35 20t-35 8z" />
    <glyph glyph-name="FL00BDh" unicode="&#xbc;" horiz-adv-x="1142" 
d="M1103 334q0 18 -93 51q40 4 49 24h-32l-66 -18l113 -54l6 -12l-90 -7q60 -60 60 -78l-1 -1q-1 -1 -2 -6l-93 14l-7 -92l-90 27l-71 -79l-64 40l-142 -65l8 25l-22 25l-176 -29l21 44l-195 7l57 36l-171 36l79 33l-120 58l90 5l-49 58l-4 28l89 -8l2 13h-110l-2 -24
l40 -48l-78 -12l8 -31l78 -34l-44 -32q0 -26 21 -26l114 -20l-21 -22v-23l182 -15l-8 -32l21 -12l176 25v-37l22 -8l134 64l44 -38l35 6l68 70l8 -2q20 -11 34 -16.5t31 -5.5q21 0 26 14l9 78l70 -15q21 9 21 28v5l-3 9l-40 50h62l14 28zM164 450h31l6 38q42 -27 69 -27
q11 0 18 4l75 75l56 -39l127 58l15 -5l5 -39l184 25l-14 -45h189l-56 -39l29 -6h81l-59 15q27 1 27 36l-15 14h-166l6 39l-50 5l-142 -26l-3 7l3 19l-25 22l-128 -59l-64 37q-20 -8 -38.5 -25t-46.5 -51l-77 24h-4q-27 0 -33 -57zM474 334q-9 38 -50 38h-15
q-46 -28 -46 -103q10 -18 43 -18q5 0 9.5 0.5t11.5 1.5q36 0 47 81zM762 259v84q-13 37 -35 37q-16 0 -17 -4q-41 -56 -52 -114h27q16 27 30 27q17 0 31 -27zM585 253v114l-19 5l-5 -78l-73 73v-116l22 4v54q47 -56 75 -56zM879 258v114l-22 5l-4 -81l-70 76v-115l22 2v56
q43 -57 74 -57zM354 375q-91 -12 -91 -66v-8q0 -5 2 -7q12 -52 48 -52q6 0 10 2t15 4l-1 19q-6 -3 -24 -3q-26 0 -26 23q0 26 18 47q20 17 33 17q7 0 7 -1l2 -1q1 0 5 -2zM449 317q0 -11 -1.5 -17.5t-6.5 -16.5q-19 -10 -33 -10q-19 0 -19 28v8q13 36 35 36q13 0 24 -14
q0 -5 0.5 -8.5t0.5 -5.5zM646 377l-24 -5l-13 -115l30 7zM250 372l-21 -3l-13 -118l26 9zM943 372l-30 5l-4 -88l21 -2zM739 315h-39l23 38zM932 251l-19 8l-15 -12l15 -14z" />
    <glyph glyph-name="FL00C0h" unicode="&#xbd;" horiz-adv-x="842" 
d="M798 172q0 33 -12.5 66t-36.5 59t-58.5 42.5t-79.5 16.5q-36 0 -65.5 -10t-52.5 -27.5t-39 -41t-24 -49.5h126q13 6 23.5 9t27.5 3h2q14 0 26 -1.5t27 -6.5l-238 -61v-171h374v115h-244zM322 0l125 409h-197l-125 -409h197zM519 644h-197l-60 -194h197zM175 643h-131
v-193h131v193zM175 289v120h-131v-120h131z" />
    <glyph glyph-name="FL00C1h" unicode="&#xbe;" horiz-adv-x="1097" 
d="M1058 325l-6 12l-113 54l66 18h-838l-2 -13l-89 8l4 -28l49 -58l-90 -5l120 -58l-79 -33l171 -36l-57 -36l195 -7l-21 -44l176 29l22 -25l-8 -25l142 65l64 -40l71 79l90 -27l7 92l93 -14q1 5 2 6l1 1q0 18 -60 78zM903 495h-189l14 45l-184 -25l-5 39l-15 5l-127 -58
l-56 39l-75 -75q-7 -4 -18 -4q-27 0 -69 27l-6 -38h703l-29 6zM452 334q-11 -81 -47 -81q-7 -1 -11.5 -1.5t-9.5 -0.5q-33 0 -43 18q0 75 46 103h15q41 0 50 -38zM740 259l-16 3q-14 27 -31 27q-14 0 -30 -27h-27q11 58 52 114q1 4 17 4q22 0 35 -37v-84zM563 253
q-28 0 -75 56v-54l-22 -4v116l73 -73l5 78l19 -5v-114zM857 258q-31 0 -74 57v-56l-22 -2v115l70 -76l4 81l22 -5v-114zM332 375l-2 -28l-6 3h-1q0 1 -7 1q-13 0 -33 -17q-18 -21 -18 -47q0 -23 26 -23q18 0 24 3l1 -19q-11 -2 -15 -4t-10 -2q-36 0 -48 52q-2 2 -2 7v8
q0 54 91 66zM427 317q0 2 -0.5 5.5t-0.5 8.5q-11 14 -24 14q-22 0 -35 -36v-8q0 -28 19 -28q14 0 33 10q5 10 6.5 16.5t1.5 17.5zM624 377l-7 -113l-30 -7l13 115zM228 372l-8 -112l-26 -9l13 118zM921 372l-13 -85l-21 2l4 88zM717 315l-16 38l-23 -38h39zM910 251l-19 -18
l-15 14l15 12z" />
    <glyph glyph-name="FL00BFh" unicode="&#xbf;" horiz-adv-x="756" 
d="M238 320v29h-194v-41q0 -54 21 -108.5t59.5 -99t92.5 -72.5t119 -28h376v194h-368q-19 0 -38 13t-34 32t-24.5 41t-9.5 40zM273 549q0 -35 23.5 -63t59.5 -36h43q34 7 59.5 33t25.5 63q0 22 -9 40.5t-23.5 32t-33.5 21t-39 7.5q-22 0 -41 -8t-33.5 -21.5t-23 -31.5
t-8.5 -37z" />
    <glyph glyph-name="Agrave" unicode="&#xc0;" horiz-adv-x="771" 
d="M384 191q-38 0 -67 15.5t-47 41.5h53q38 0 56 22t18 51q-1 37 -17 55.5t-54 18.5h-282v-76q0 -61 23 -118.5t66.5 -102t107.5 -71.5t145 -27h341v336q0 34 -11 73h-226q14 -17 23.5 -37.5t9.5 -37.5v-143h-139zM424 644h-376v-194h653q-17 39 -44.5 74t-63.5 62
t-78.5 42.5t-90.5 15.5zM336 735q20 -17 43.5 -27t45.5 -10q30 0 45 18q11 11 11 33q0 24 -13.5 51.5t-34.5 47.5q-19 17 -43 26.5t-45 9.5q-28 0 -43 -16q-12 -15 -12 -38t12 -49t34 -46z" />
    <glyph glyph-name="Aacute" unicode="&#xc1;" horiz-adv-x="771" 
d="M384 191q-38 0 -67 15.5t-47 41.5h53q38 0 56 22t18 51q-1 37 -17 55.5t-54 18.5h-282v-76q0 -61 23 -118.5t66.5 -102t107.5 -71.5t145 -27h341v336q0 34 -11 73h-226q14 -17 23.5 -37.5t9.5 -37.5v-143h-139zM424 644h-376v-194h653q-17 39 -44.5 74t-63.5 62
t-78.5 42.5t-90.5 15.5zM435 735q22 20 34 46t12 49t-12 38q-15 16 -43 16q-21 0 -45 -9.5t-43 -26.5q-21 -20 -34.5 -47.5t-13.5 -51.5q0 -22 11 -33q15 -18 45 -18q22 0 45.5 10t43.5 27z" />
    <glyph glyph-name="Acircumflex" unicode="&#xc2;" horiz-adv-x="771" 
d="M384 191q-38 0 -67 15.5t-47 41.5h53q38 0 56 22t18 51q-1 37 -17 55.5t-54 18.5h-282v-76q0 -61 23 -118.5t66.5 -102t107.5 -71.5t145 -27h341v336q0 34 -11 73h-226q14 -17 23.5 -37.5t9.5 -37.5v-143h-139zM424 644h-376v-194h368h4h281q-17 39 -44.5 74t-63.5 62
t-78.5 42.5t-90.5 15.5zM383 752l2 2q2 -2 3 -2q20 -18 47 -36t50 -18q30 0 45 18q11 11 11 33q0 24 -16 51.5t-37 47.5q-19 17 -45.5 26.5t-47.5 9.5h-19q-21 0 -47.5 -9.5t-45.5 -26.5q-21 -20 -37 -47.5t-16 -51.5q0 -22 11 -33q15 -18 45 -18q23 0 50 18t47 36z" />
    <glyph glyph-name="Atilde" unicode="&#xc3;" horiz-adv-x="771" 
d="M384 191q-38 0 -67 15.5t-47 41.5h53q38 0 56 22t18 51q-1 37 -17 55.5t-54 18.5h-282v-76q0 -61 23 -118.5t66.5 -102t107.5 -71.5t145 -27h341v336q0 34 -11 73h-226q14 -17 23.5 -37.5t9.5 -37.5v-143h-139zM424 644h-376v-194h368h4h281q-17 39 -44.5 74t-63.5 62
t-78.5 42.5t-90.5 15.5zM451 830l-2 -2q-2 2 -3 2q-5 5 -11.5 10t-13.5 10q-12 10 -27 18q-12 7 -23.5 11.5t-21.5 4.5h-37q-21 0 -47.5 -9.5t-45.5 -26.5q-21 -20 -37 -47.5t-16 -51.5q0 -22 11 -33q15 -18 45 -18q23 0 50 18t47 36l2 2q2 -2 3 -2q7 -7 13 -11.5t11 -8.5
q12 -11 27 -18q25 -16 46 -16h37q21 0 47.5 9.5t45.5 26.5q21 20 37 47.5t16 51.5q0 22 -11 33q-15 18 -45 18q-23 0 -50 -18t-47 -36z" />
    <glyph glyph-name="Adieresis" unicode="&#xc4;" horiz-adv-x="771" 
d="M384 191q-38 0 -67 15.5t-47 41.5h53q38 0 56 22t18 51q-1 37 -17 55.5t-54 18.5h-282v-76q0 -61 23 -118.5t66.5 -102t107.5 -71.5t145 -27h341v336q0 34 -11 73h-226q14 -17 23.5 -37.5t9.5 -37.5v-143h-139zM424 644h-376v-194h653q-17 39 -44.5 74t-63.5 62
t-78.5 42.5t-90.5 15.5zM606 790q0 18 -7.5 35t-21 30t-31 21t-38.5 8q-19 0 -37 -7t-31.5 -19t-22 -29t-8.5 -36q0 -20 8.5 -37.5t22 -30t31 -19.5t36.5 -7q20 0 38 7.5t31.5 20t21.5 29t8 34.5zM361 790q0 18 -7.5 35t-21 30t-31 21t-38.5 8q-19 0 -37 -7t-31.5 -19
t-22 -29t-8.5 -36q0 -20 8.5 -37.5t22 -30t31 -19.5t36.5 -7q20 0 38 7.5t31.5 20t21.5 29t8 34.5z" />
    <glyph glyph-name="Aring" unicode="&#xc5;" horiz-adv-x="771" 
d="M384 191q-38 0 -67 15.5t-47 41.5h53q38 0 56 22t18 51q-1 37 -17 55.5t-54 18.5h-282v-76q0 -61 23 -118.5t66.5 -102t107.5 -71.5t145 -27h341v336q0 34 -11 73h-226q14 -17 23.5 -37.5t9.5 -37.5v-143h-139zM424 644h-376v-194h368h4h281q-17 39 -44.5 74t-63.5 62
t-78.5 42.5t-90.5 15.5zM484 790q0 18 -7.5 35t-21 30t-31 21t-38.5 8q-19 0 -37 -7t-31.5 -19t-22 -29t-8.5 -36q0 -20 8.5 -37.5t22 -30t31 -19.5t36.5 -7q20 0 38 7.5t31.5 20t21.5 29t8 34.5z" />
    <glyph glyph-name="AE" unicode="&#xc6;" horiz-adv-x="1251" 
d="M384 191q-38 0 -67 15.5t-47 41.5h53q38 0 56 22t18 51q-1 37 -17 55.5t-54 18.5h-282v-76q0 -61 21 -118.5t63.5 -102t106.5 -71.5t151 -27h817v194h-368q-20 0 -39 11.5t-34 28.5t-24.5 37.5t-9.5 38.5q0 29 9 54t26 45h-273q14 -17 23.5 -37.5t9.5 -37.5v-143h-139z
M864 454h3q9 0 18.5 -1t17.5 -3h278q-17 41 -46 77t-69 62.5t-90 42t-110 15.5q-76 0 -136 -24t-105 -63q-40 38 -90.5 61t-110.5 23h-376v-194h368h4h410q8 2 16.5 3t17.5 1zM981 396h-52q-39 0 -57 -21.5t-18 -51.5q1 -37 17 -55.5t54 -18.5h282v76q0 42 -12 84h-224
q2 -3 5 -6.5t5 -6.5z" />
    <glyph glyph-name="Ccedilla" unicode="&#xc7;" horiz-adv-x="756" 
d="M477 -201v399q-39 -5 -56.5 -6t-27.5 -1h-14q-30 0 -54.5 10.5t-42.5 28t-28 40.5t-10 48v7q0 48 33 84h-227q-6 -21 -8.5 -42.5t-2.5 -43.5v-4q0 -54 18.5 -106.5t54 -96t87 -74t117.5 -40.5v-42h-68v-161h229zM65 450h288q6 1 12.5 1.5t13.5 0.5h3q6 0 11.5 -0.5
t11.5 -1.5h289q-18 41 -46.5 77t-68 62.5t-89.5 42t-109 15.5q-60 0 -110.5 -15.5t-90 -42t-68.5 -62.5t-47 -77zM709 409h-226q15 -17 24 -36h210l-4 18z" />
    <glyph glyph-name="Egrave" unicode="&#xc8;" horiz-adv-x="766" 
d="M720 329q-2 43 -13 80h-255l-197 -54v25q9 17 19 29h-226q-9 -36 -9 -72v-28q0 -54 23 -109t63.5 -99.5t96 -72.5t120.5 -28h374v194h-366q-29 0 -54 22zM382 454q8 0 15 -1t15 -3h280q-18 41 -46.5 77t-68 62.5t-89 42t-107.5 15.5q-60 0 -111 -15.5t-91.5 -42
t-70 -62.5t-46.5 -77h284q8 2 16 3t17 1h3zM331 735q20 -17 43.5 -27t45.5 -10q30 0 45 18q11 11 11 33q0 24 -13.5 51.5t-34.5 47.5q-19 17 -43 26.5t-45 9.5q-28 0 -43 -16q-12 -15 -12 -38t12 -49t34 -46z" />
    <glyph glyph-name="Eacute" unicode="&#xc9;" horiz-adv-x="766" 
d="M720 329q-2 43 -13 80h-255l-197 -54v25q9 17 19 29h-226q-9 -36 -9 -72v-28q0 -54 23 -109t63.5 -99.5t96 -72.5t120.5 -28h374v194h-366q-29 0 -54 22zM382 454q8 0 15 -1t15 -3h280q-18 41 -46.5 77t-68 62.5t-89 42t-107.5 15.5q-60 0 -111 -15.5t-91.5 -42
t-70 -62.5t-46.5 -77h284q8 2 16 3t17 1h3zM430 735q22 20 34 46t12 49t-12 38q-15 16 -43 16q-21 0 -45 -9.5t-43 -26.5q-21 -20 -34.5 -47.5t-13.5 -51.5q0 -22 11 -33q15 -18 45 -18q22 0 45.5 10t43.5 27z" />
    <glyph glyph-name="Ecircumflex" unicode="&#xca;" horiz-adv-x="766" 
d="M720 329q-2 43 -13 80h-255l-197 -54v25q9 17 19 29h-226q-9 -36 -9 -72v-28q0 -54 23 -109t63.5 -99.5t96 -72.5t120.5 -28h374v194h-366q-29 0 -54 22zM382 454q8 0 15 -1t15 -3h280q-18 41 -46.5 77t-68 62.5t-89 42t-107.5 15.5q-60 0 -111 -15.5t-91.5 -42
t-70 -62.5t-46.5 -77h284q8 2 16 3t17 1h3zM378 752l2 2q2 -2 3 -2q20 -18 47 -36t50 -18q30 0 45 18q11 11 11 33q0 24 -16 51.5t-37 47.5q-19 17 -45.5 26.5t-47.5 9.5h-19q-21 0 -47.5 -9.5t-45.5 -26.5q-21 -20 -37 -47.5t-16 -51.5q0 -22 11 -33q15 -18 45 -18
q23 0 50 18t47 36z" />
    <glyph glyph-name="Edieresis" unicode="&#xcb;" horiz-adv-x="766" 
d="M720 329q-2 43 -13 80h-255l-197 -54v25q9 17 19 29h-226q-9 -36 -9 -72v-28q0 -54 23 -109t63.5 -99.5t96 -72.5t120.5 -28h374v194h-366q-29 0 -54 22zM382 454q8 0 15 -1t15 -3h280q-18 41 -46.5 77t-68 62.5t-89 42t-107.5 15.5q-60 0 -111 -15.5t-91.5 -42
t-70 -62.5t-46.5 -77h284q8 2 16 3t17 1h3zM601 790q0 18 -7.5 35t-21 30t-31 21t-38.5 8q-19 0 -37 -7t-31.5 -19t-22 -29t-8.5 -36q0 -20 8.5 -37.5t22 -30t31 -19.5t36.5 -7q20 0 38 7.5t31.5 20t21.5 29t8 34.5zM356 790q0 18 -7.5 35t-21 30t-31 21t-38.5 8
q-19 0 -37 -7t-31.5 -19t-22 -29t-8.5 -36q0 -20 8.5 -37.5t22 -30t31 -19.5t36.5 -7q20 0 38 7.5t31.5 20t21.5 29t8 34.5z" />
    <glyph glyph-name="Igrave" unicode="&#xcc;" horiz-adv-x="373" 
d="M329 336q-1 18 -2.5 36.5t-6.5 36.5h-217q14 -17 22.5 -38t8.5 -43v-328h195v336zM44 450h264q-14 39 -36.5 73t-55.5 60.5t-76 42.5t-96 18v-194zM137 735q20 -17 43.5 -27t45.5 -10q30 0 45 18q11 11 11 33q0 24 -13.5 51.5t-34.5 47.5q-19 17 -43 26.5t-45 9.5
q-28 0 -43 -16q-12 -15 -12 -38t12 -49t34 -46z" />
    <glyph glyph-name="Iacute" unicode="&#xcd;" horiz-adv-x="373" 
d="M329 336q-1 18 -2.5 36.5t-6.5 36.5h-217q14 -17 22.5 -38t8.5 -43v-328h195v336zM44 450h264q-14 39 -36.5 73t-55.5 60.5t-76 42.5t-96 18v-194zM236 735q22 20 34 46t12 49t-12 38q-15 16 -43 16q-21 0 -45 -9.5t-43 -26.5q-21 -20 -34.5 -47.5t-13.5 -51.5
q0 -22 11 -33q15 -18 45 -18q22 0 45.5 10t43.5 27z" />
    <glyph glyph-name="Icircumflex" unicode="&#xce;" horiz-adv-x="373" 
d="M329 336q-1 18 -2.5 36.5t-6.5 36.5h-217q14 -17 22.5 -38t8.5 -43v-328h195v336zM184 752l2 2q2 -2 3 -2q20 -18 47 -36t50 -18q30 0 45 18q11 11 11 33q0 24 -16 51.5t-37 47.5q-19 17 -45.5 26.5t-47.5 9.5h-19q-21 0 -47.5 -9.5t-45.5 -26.5q-21 -20 -37 -47.5
t-16 -51.5q0 -22 11 -33q15 -18 45 -18q23 0 50 18t47 36zM44 450h264q-14 39 -36.5 73t-55.5 60.5t-76 42.5t-96 18v-194z" />
    <glyph glyph-name="Idieresis" unicode="&#xcf;" horiz-adv-x="373" 
d="M329 336q-1 18 -2.5 36.5t-6.5 36.5h-217q14 -17 22.5 -38t8.5 -43v-328h195v336zM44 450h264q-14 39 -36.5 73t-55.5 60.5t-76 42.5t-96 18v-194zM408 790q0 18 -7.5 35t-21 30t-31 21t-38.5 8q-19 0 -37 -7t-31.5 -19t-22 -29t-8.5 -36q0 -20 8.5 -37.5t22 -30
t31 -19.5t36.5 -7q20 0 38 7.5t31.5 20t21.5 29t8 34.5zM163 790q0 18 -7.5 35t-21 30t-31 21t-38.5 8q-19 0 -37 -7t-31.5 -19t-22 -29t-8.5 -36q0 -20 8.5 -37.5t22 -30t31 -19.5t36.5 -7q20 0 38 7.5t31.5 20t21.5 29t8 34.5z" />
    <glyph glyph-name="Eth" unicode="&#xd0;" horiz-adv-x="839" 
d="M470 404h-145v5h-195v-5h-86v-170h86v-234h195v234h145v170zM130 450h644q-17 39 -43 74t-60 62t-75 42.5t-88 15.5h-378v-194zM789 409h-221q16 -19 26 -41t12 -40v-10q0 -25 -10.5 -49t-28.5 -42.5t-43 -30t-54 -11.5h-6q-6 0 -18 0.5t-26.5 2t-29.5 5t-26 9.5v-186
q26 -8 49.5 -13.5t54.5 -5.5q80 0 142 27.5t104 72t64 101t22 115.5v18q0 37 -11 78z" />
    <glyph glyph-name="Ntilde" unicode="&#xd1;" horiz-adv-x="705" 
d="M333 318v91h-194v-93q0 -20 -8 -39t-21 -35.5t-30.5 -28.5t-35.5 -16v-197q72 3 126 32t90.5 74t54.5 100.5t18 111.5zM661 327q-1 39 -11 82h-217q15 -17 24.5 -38t9.5 -43v-328h194v327zM418 830l-2 -2q-2 2 -3 2q-5 5 -11.5 10t-13.5 10q-12 10 -27 18
q-12 7 -23.5 11.5t-21.5 4.5h-37q-21 0 -47.5 -9.5t-45.5 -26.5q-21 -20 -37 -47.5t-16 -51.5q0 -22 11 -33q15 -18 45 -18q23 0 50 18t47 36l2 2q2 -2 3 -2q7 -7 13 -11.5t11 -8.5q12 -11 27 -18q25 -16 46 -16h37q21 0 47.5 9.5t45.5 26.5q21 20 37 47.5t16 51.5
q0 22 -11 33q-15 18 -45 18q-23 0 -50 -18t-47 -36zM333 644h-194v-194h194v194zM372 450h265q-15 38 -38.5 72.5t-56.5 60.5t-75.5 42.5t-94.5 18.5v-194z" />
    <glyph glyph-name="Ograve" unicode="&#xd2;" horiz-adv-x="761" 
d="M722 319q0 47 -13 90h-226q16 -17 25 -39t9 -45v-7q0 -25 -10 -48t-28 -40.5t-42.5 -28t-54.5 -10.5h-3q-30 0 -54.5 10.5t-42.5 28t-28 40.5t-10 48v7q0 48 33 84h-227q-6 -21 -8.5 -42.5t-2.5 -43.5v-4q0 -60 23 -118t66.5 -103.5t107 -73t145.5 -27.5q81 0 144 27.5
t106.5 73t66.5 103.5t24 118zM65 450h288q6 1 12.5 1.5t13.5 0.5h3q7 0 13 -0.5t12 -1.5h288q-18 41 -47 77t-68.5 62.5t-89 42t-109.5 15.5t-110.5 -15.5t-90 -42t-68.5 -62.5t-47 -77zM331 735q20 -17 43.5 -27t45.5 -10q30 0 45 18q11 11 11 33q0 24 -13.5 51.5
t-34.5 47.5q-19 17 -43 26.5t-45 9.5q-28 0 -43 -16q-12 -15 -12 -38t12 -49t34 -46z" />
    <glyph glyph-name="Oacute" unicode="&#xd3;" horiz-adv-x="761" 
d="M722 319q0 47 -13 90h-226q16 -17 25 -39t9 -45v-7q0 -25 -10 -48t-28 -40.5t-42.5 -28t-54.5 -10.5h-3q-30 0 -54.5 10.5t-42.5 28t-28 40.5t-10 48v7q0 48 33 84h-227q-6 -21 -8.5 -42.5t-2.5 -43.5v-4q0 -60 23 -118t66.5 -103.5t107 -73t145.5 -27.5q81 0 144 27.5
t106.5 73t66.5 103.5t24 118zM65 450h288q6 1 12.5 1.5t13.5 0.5h3q7 0 13 -0.5t12 -1.5h288q-18 41 -47 77t-68.5 62.5t-89 42t-109.5 15.5t-110.5 -15.5t-90 -42t-68.5 -62.5t-47 -77zM430 735q22 20 34 46t12 49t-12 38q-15 16 -43 16q-21 0 -45 -9.5t-43 -26.5
q-21 -20 -34.5 -47.5t-13.5 -51.5q0 -22 11 -33q15 -18 45 -18q22 0 45.5 10t43.5 27z" />
    <glyph glyph-name="Ocircumflex" unicode="&#xd4;" horiz-adv-x="761" 
d="M722 319q0 47 -13 90h-226q16 -17 25 -39t9 -45v-7q0 -25 -10 -48t-28 -40.5t-42.5 -28t-54.5 -10.5h-3q-30 0 -54.5 10.5t-42.5 28t-28 40.5t-10 48v7q0 48 33 84h-227q-6 -21 -8.5 -42.5t-2.5 -43.5v-4q0 -60 23 -118t66.5 -103.5t107 -73t145.5 -27.5q81 0 144 27.5
t106.5 73t66.5 103.5t24 118zM65 450h288q6 1 12.5 1.5t13.5 0.5h3q7 0 13 -0.5t12 -1.5h288q-18 41 -47 77t-68.5 62.5t-89 42t-109.5 15.5t-110.5 -15.5t-90 -42t-68.5 -62.5t-47 -77zM378 752l2 2q2 -2 3 -2q20 -18 47 -36t50 -18q30 0 45 18q11 11 11 33q0 24 -16 51.5
t-37 47.5q-19 17 -45.5 26.5t-47.5 9.5h-19q-21 0 -47.5 -9.5t-45.5 -26.5q-21 -20 -37 -47.5t-16 -51.5q0 -22 11 -33q15 -18 45 -18q23 0 50 18t47 36z" />
    <glyph glyph-name="Otilde" unicode="&#xd5;" horiz-adv-x="761" 
d="M722 319q0 47 -13 90h-226q16 -17 25 -39t9 -45v-7q0 -25 -10 -48t-28 -40.5t-42.5 -28t-54.5 -10.5h-3q-30 0 -54.5 10.5t-42.5 28t-28 40.5t-10 48v7q0 48 33 84h-227q-6 -21 -8.5 -42.5t-2.5 -43.5v-4q0 -60 23 -118t66.5 -103.5t107 -73t145.5 -27.5q81 0 144 27.5
t106.5 73t66.5 103.5t24 118zM65 450h288q6 1 12.5 1.5t13.5 0.5h3q7 0 13 -0.5t12 -1.5h288q-18 41 -47 77t-68.5 62.5t-89 42t-109.5 15.5t-110.5 -15.5t-90 -42t-68.5 -62.5t-47 -77zM446 830l-2 -2q-2 2 -3 2q-5 5 -11.5 10t-13.5 10q-12 10 -27 18q-12 7 -23.5 11.5
t-21.5 4.5h-37q-21 0 -47.5 -9.5t-45.5 -26.5q-21 -20 -37 -47.5t-16 -51.5q0 -22 11 -33q15 -18 45 -18q23 0 50 18t47 36l2 2q2 -2 3 -2q7 -7 13 -11.5t11 -8.5q12 -11 27 -18q25 -16 46 -16h37q21 0 47.5 9.5t45.5 26.5q21 20 37 47.5t16 51.5q0 22 -11 33q-15 18 -45 18
q-23 0 -50 -18t-47 -36z" />
    <glyph glyph-name="Odieresis" unicode="&#xd6;" horiz-adv-x="761" 
d="M722 319q0 47 -13 90h-226q16 -17 25 -39t9 -45v-7q0 -25 -10 -48t-28 -40.5t-42.5 -28t-54.5 -10.5h-3q-30 0 -54.5 10.5t-42.5 28t-28 40.5t-10 48v7q0 48 33 84h-227q-6 -21 -8.5 -42.5t-2.5 -43.5v-4q0 -60 23 -118t66.5 -103.5t107 -73t145.5 -27.5q81 0 144 27.5
t106.5 73t66.5 103.5t24 118zM65 450h288q6 1 12.5 1.5t13.5 0.5h3q7 0 13 -0.5t12 -1.5h288q-18 41 -47 77t-68.5 62.5t-89 42t-109.5 15.5t-110.5 -15.5t-90 -42t-68.5 -62.5t-47 -77zM601 790q0 18 -7.5 35t-21 30t-31 21t-38.5 8q-19 0 -37 -7t-31.5 -19t-22 -29
t-8.5 -36q0 -20 8.5 -37.5t22 -30t31 -19.5t36.5 -7q20 0 38 7.5t31.5 20t21.5 29t8 34.5zM356 790q0 18 -7.5 35t-21 30t-31 21t-38.5 8q-19 0 -37 -7t-31.5 -19t-22 -29t-8.5 -36q0 -20 8.5 -37.5t22 -30t31 -19.5t36.5 -7q20 0 38 7.5t31.5 20t21.5 29t8 34.5z" />
    <glyph glyph-name="FL00D7h" unicode="&#xd7;" horiz-adv-x="486" 
d="M447 240l-82 82l82 81l-6 6h-395l-7 -7l80 -80l-80 -81l123 -123l80 81l82 -82zM247 450h153l-76 76zM87 450h150l-75 75z" />
    <glyph glyph-name="FL00D8h" unicode="&#xd8;" horiz-adv-x="761" 
d="M722 319q0 47 -13 90h-396l-47 -161q-22 31 -22 70v7q0 48 33 84h-227q-6 -21 -8.5 -42.5t-2.5 -43.5v-4q0 -60 23 -118t66.5 -103.5t107 -73t145.5 -27.5q81 0 144 27.5t106.5 73t66.5 103.5t24 118zM381 647q-60 0 -110.5 -15.5t-90 -42t-68.5 -62.5t-47 -77h630
q-18 41 -47 77t-68.5 62.5t-89 42t-109.5 15.5zM495 393q10 -15 16 -32.5t6 -35.5v-7q0 -36 -20.5 -67.5t-55.5 -47.5z" />
    <glyph glyph-name="Ugrave" unicode="&#xd9;" 
d="M520 318q0 -25 -10.5 -49t-28.5 -42.5t-43 -30t-54 -11.5h-6q-6 0 -18 0.5t-26.5 2t-29.5 5t-26 9.5v-186q26 -8 49.5 -13.5t54.5 -5.5q80 0 142 26.5t104 70t64 100t22 115.5v100h-194v-91zM239 0v409h-195v-409h195zM239 644h-195v-194h195v194zM520 450h194v194h-194
v-194zM330 735q20 -17 43.5 -27t45.5 -10q30 0 45 18q11 11 11 33q0 24 -13.5 51.5t-34.5 47.5q-19 17 -43 26.5t-45 9.5q-28 0 -43 -16q-12 -15 -12 -38t12 -49t34 -46z" />
    <glyph glyph-name="Uacute" unicode="&#xda;" 
d="M520 318q0 -25 -10.5 -49t-28.5 -42.5t-43 -30t-54 -11.5h-6q-6 0 -18 0.5t-26.5 2t-29.5 5t-26 9.5v-186q26 -8 49.5 -13.5t54.5 -5.5q80 0 142 26.5t104 70t64 100t22 115.5v100h-194v-91zM239 0v409h-195v-409h195zM239 644h-195v-194h195v194zM520 450h194v194h-194
v-194zM428 735q22 20 34 46t12 49t-12 38q-15 16 -43 16q-21 0 -45 -9.5t-43 -26.5q-21 -20 -34.5 -47.5t-13.5 -51.5q0 -22 11 -33q15 -18 45 -18q22 0 45.5 10t43.5 27z" />
    <glyph glyph-name="Ucircumflex" unicode="&#xdb;" 
d="M520 318q0 -25 -10.5 -49t-28.5 -42.5t-43 -30t-54 -11.5h-6q-6 0 -18 0.5t-26.5 2t-29.5 5t-26 9.5v-186q26 -8 49.5 -13.5t54.5 -5.5q80 0 142 26.5t104 70t64 100t22 115.5v100h-194v-91zM239 0v409h-195v-409h195zM378 754q2 -2 3 -2q20 -18 47 -36t50 -18
q30 0 45 18q11 11 11 33q0 24 -16 51.5t-37 47.5q-19 17 -45.5 26.5t-47.5 9.5h-19q-21 0 -47.5 -9.5t-45.5 -26.5q-21 -20 -37 -47.5t-16 -51.5q0 -22 11 -33q15 -18 45 -18q23 0 50 18t47 36zM239 644h-195v-194h195v194zM520 450h194v194h-194v-194z" />
    <glyph glyph-name="Udieresis" unicode="&#xdc;" 
d="M520 318q0 -25 -10.5 -49t-28.5 -42.5t-43 -30t-54 -11.5h-6q-6 0 -18 0.5t-26.5 2t-29.5 5t-26 9.5v-186q26 -8 49.5 -13.5t54.5 -5.5q80 0 142 26.5t104 70t64 100t22 115.5v100h-194v-91zM239 0v409h-195v-409h195zM239 644h-195v-194h195v194zM520 450h194v194h-194
v-194zM355 790q0 18 -7.5 35t-21 30t-31 21t-38.5 8q-19 0 -37 -7t-31.5 -19t-22 -29t-8.5 -36q0 -20 8.5 -37.5t22 -30t31 -19.5t36.5 -7q20 0 38 7.5t31.5 20t21.5 29t8 34.5zM600 790q0 18 -7.5 35t-21 30t-31 21t-38.5 8q-19 0 -37 -7t-31.5 -19t-22 -29t-8.5 -36
q0 -20 8.5 -37.5t22 -30t31 -19.5t36.5 -7q20 0 38 7.5t31.5 20t21.5 29t8 34.5z" />
    <glyph glyph-name="Yacute" unicode="&#xdd;" 
d="M239 318v91h-195v-94q0 -59 22 -116t64.5 -102t104.5 -72.5t142 -27.5q18 2 35.5 3t35.5 5t36 12t36 23v-154h194v523h-194v-177q-10 -8 -26.5 -16.5t-36 -15.5t-38.5 -11.5t-33 -4.5h-6q-4 0 -5 1q-29 5 -54 17t-43 29t-28.5 39t-10.5 48zM239 644h-195v-194h195v194z
M520 450h194v194h-194v-194zM428 735q22 20 34 46t12 49t-12 38q-15 16 -43 16q-21 0 -45 -9.5t-43 -26.5q-21 -20 -34.5 -47.5t-13.5 -51.5q0 -22 11 -33q15 -18 45 -18q22 0 45.5 10t43.5 27z" />
    <glyph glyph-name="Thorn" unicode="&#xde;" horiz-adv-x="753" 
d="M520 328v-10q0 -26 -10.5 -48t-28.5 -39t-43 -29t-54 -17q-1 -1 -11 -1q-14 0 -33.5 4.5t-39 11.5t-36 15.5t-25.5 16.5v177h-195v-523h195v154q18 -15 36 -23t35.5 -12t35.5 -5t36 -3q80 0 142 27.5t104 72.5t64 102t22 116v14q0 39 -12 80h-220q16 -19 26 -41t12 -40z
M239 759h-195v-309h369h4h271q-17 39 -43 74t-60 62t-75.5 42.5t-87.5 15.5h-183v115z" />
    <glyph glyph-name="FL00DFh" unicode="&#xdf;" horiz-adv-x="747" 
d="M369 191h-4q-11 0 -20 1.5t-18 3.5v-197q10 -1 19.5 -1.5t20.5 -0.5q81 0 144.5 27.5t107 73t66.5 103.5t23 118v4q0 44 -12 86h-227q3 -4 6 -7t6 -7h-83q-38 0 -54.5 -18.5t-16.5 -55.5q0 -29 18 -51t56 -22h52l36 11q-17 -29 -47.5 -48.5t-72.5 -19.5zM44 372v-454h196
v454q4 10 10 19.5t14 17.5h-212q-3 -9 -4.5 -18.5t-3.5 -18.5zM369 647q-60 0 -108.5 -15.5t-86 -42t-65 -62.5t-43.5 -77h277q5 1 10.5 1.5t11.5 0.5h4q5 0 10.5 -0.5t10.5 -1.5h292q-18 41 -46.5 77t-68 62.5t-89.5 42t-109 15.5z" />
    <glyph glyph-name="agrave" unicode="&#xe0;" horiz-adv-x="753" 
d="M64 450h645v194h-377q-47 0 -88.5 -15.5t-76 -42.5t-61 -62t-42.5 -74zM234 328q1 18 11 40t25 41h-220q-6 -20 -8.5 -39.5t-2.5 -38.5v-18q0 -59 22 -115.5t64.5 -101t104.5 -72t142 -27.5q31 0 54.5 5.5t49.5 13.5v186q-12 -6 -27 -9.5t-29.5 -5t-26.5 -2t-18 -0.5h-5
q-30 0 -55 11.5t-43 30t-28 42.5t-10 49v10zM709 0v409h-194v-409h194zM325 735q20 -17 43.5 -27t45.5 -10q30 0 45 18q11 11 11 33q0 24 -13.5 51.5t-34.5 47.5q-19 17 -43 26.5t-45 9.5q-28 0 -43 -16q-12 -15 -12 -38t12 -49t34 -46z" />
    <glyph glyph-name="aacute" unicode="&#xe1;" horiz-adv-x="753" 
d="M64 450h645v194h-377q-47 0 -88.5 -15.5t-76 -42.5t-61 -62t-42.5 -74zM234 328q1 18 11 40t25 41h-220q-6 -20 -8.5 -39.5t-2.5 -38.5v-18q0 -59 22 -115.5t64.5 -101t104.5 -72t142 -27.5q31 0 54.5 5.5t49.5 13.5v186q-12 -6 -27 -9.5t-29.5 -5t-26.5 -2t-18 -0.5h-5
q-30 0 -55 11.5t-43 30t-28 42.5t-10 49v10zM709 0v409h-194v-409h194zM423 735q22 20 34 46t12 49t-12 38q-15 16 -43 16q-21 0 -45 -9.5t-43 -26.5q-21 -20 -34.5 -47.5t-13.5 -51.5q0 -22 11 -33q15 -18 45 -18q22 0 45.5 10t43.5 27z" />
    <glyph glyph-name="acircumflex" unicode="&#xe2;" horiz-adv-x="753" 
d="M64 450h645v194h-377q-47 0 -88.5 -15.5t-76 -42.5t-61 -62t-42.5 -74zM234 328q1 18 11 40t25 41h-220q-6 -20 -8.5 -39.5t-2.5 -38.5v-18q0 -59 22 -115.5t64.5 -101t104.5 -72t142 -27.5q31 0 54.5 5.5t49.5 13.5v186q-12 -6 -27 -9.5t-29.5 -5t-26.5 -2t-18 -0.5h-5
q-30 0 -55 11.5t-43 30t-28 42.5t-10 49v10zM709 0v409h-194v-409h194zM373 754q2 -2 3 -2q20 -18 47 -36t50 -18q30 0 45 18q11 11 11 33q0 24 -16 51.5t-37 47.5q-19 17 -45.5 26.5t-47.5 9.5h-19q-21 0 -47.5 -9.5t-45.5 -26.5q-21 -20 -37 -47.5t-16 -51.5q0 -22 11 -33
q15 -18 45 -18q23 0 50 18t47 36z" />
    <glyph glyph-name="atilde" unicode="&#xe3;" horiz-adv-x="753" 
d="M64 450h272h4h369v194h-377q-47 0 -88.5 -15.5t-76 -42.5t-61 -62t-42.5 -74zM234 328q1 18 11 40t25 41h-220q-6 -20 -8.5 -39.5t-2.5 -38.5v-18q0 -59 22 -115.5t64.5 -101t104.5 -72t142 -27.5q31 0 54.5 5.5t49.5 13.5v186q-12 -6 -27 -9.5t-29.5 -5t-26.5 -2
t-18 -0.5h-5q-30 0 -55 11.5t-43 30t-28 42.5t-10 49v10zM709 0v409h-194v-409h194zM440 830l-2 -2q-2 2 -3 2q-5 5 -11.5 10t-13.5 10q-12 10 -27 18q-12 7 -23.5 11.5t-21.5 4.5h-37q-21 0 -47.5 -9.5t-45.5 -26.5q-21 -20 -37 -47.5t-16 -51.5q0 -22 11 -33
q15 -18 45 -18q23 0 50 18t47 36l2 2q2 -2 3 -2q7 -7 13 -11.5t11 -8.5q12 -11 27 -18q25 -16 46 -16h37q21 0 47.5 9.5t45.5 26.5q21 20 37 47.5t16 51.5q0 22 -11 33q-15 18 -45 18q-23 0 -50 -18t-47 -36z" />
    <glyph glyph-name="adieresis" unicode="&#xe4;" horiz-adv-x="753" 
d="M64 450h645v194h-377q-47 0 -88.5 -15.5t-76 -42.5t-61 -62t-42.5 -74zM234 328q1 18 11 40t25 41h-220q-6 -20 -8.5 -39.5t-2.5 -38.5v-18q0 -59 22 -115.5t64.5 -101t104.5 -72t142 -27.5q31 0 54.5 5.5t49.5 13.5v186q-12 -6 -27 -9.5t-29.5 -5t-26.5 -2t-18 -0.5h-5
q-30 0 -55 11.5t-43 30t-28 42.5t-10 49v10zM709 0v409h-194v-409h194zM595 790q0 18 -7.5 35t-21 30t-31 21t-38.5 8q-19 0 -37 -7t-31.5 -19t-22 -29t-8.5 -36q0 -20 8.5 -37.5t22 -30t31 -19.5t36.5 -7q20 0 38 7.5t31.5 20t21.5 29t8 34.5zM350 790q0 18 -7.5 35t-21 30
t-31 21t-38.5 8q-19 0 -37 -7t-31.5 -19t-22 -29t-8.5 -36q0 -20 8.5 -37.5t22 -30t31 -19.5t36.5 -7q20 0 38 7.5t31.5 20t21.5 29t8 34.5z" />
    <glyph glyph-name="aring" unicode="&#xe5;" horiz-adv-x="753" 
d="M64 450h645v194h-377q-47 0 -88.5 -15.5t-76 -42.5t-61 -62t-42.5 -74zM234 328q1 18 11 40t25 41h-220q-6 -20 -8.5 -39.5t-2.5 -38.5v-18q0 -59 22 -115.5t64.5 -101t104.5 -72t142 -27.5q31 0 54.5 5.5t49.5 13.5v186q-12 -6 -27 -9.5t-29.5 -5t-26.5 -2t-18 -0.5h-5
q-30 0 -55 11.5t-43 30t-28 42.5t-10 49v10zM709 0v409h-194v-409h194zM472 790q0 18 -7.5 35t-21 30t-31 21t-38.5 8q-19 0 -37 -7t-31.5 -19t-22 -29t-8.5 -36q0 -20 8.5 -37.5t22 -30t31 -19.5t36.5 -7q20 0 38 7.5t31.5 20t21.5 29t8 34.5z" />
    <glyph glyph-name="ae" unicode="&#xe6;" horiz-adv-x="1243" 
d="M64 450h272h4h381v2h138q7 0 13 -0.5t12 -1.5h289q-18 41 -47 76.5t-68.5 61.5t-89.5 41t-110 15h-526q-47 0 -88.5 -15.5t-76 -42.5t-61 -62t-42.5 -74zM721 194v215h-206v-409h680v194h-474zM234 328q1 18 11 40t25 41h-220q-6 -20 -8.5 -39.5t-2.5 -38.5v-18
q0 -59 22 -115.5t64.5 -101t104.5 -72t142 -27.5q31 0 54.5 5.5t49.5 13.5v186q-12 -6 -27 -9.5t-29.5 -5t-26.5 -2t-18 -0.5h-5q-30 0 -55 11.5t-43 30t-28 42.5t-10 49v10zM1187 409h-224q2 -3 5 -6.5t5 -6.5h-52q-39 0 -57 -21.5t-18 -51.5q1 -37 17 -55.5t54 -18.5h282
v76q0 43 -12 84z" />
    <glyph glyph-name="ccedilla" unicode="&#xe7;" horiz-adv-x="756" 
d="M479 -201v210q52 13 93 39.5t71 61.5t48.5 77t25.5 86h-209q-14 -35 -47 -58t-79 -24h-3q-30 0 -54.5 10.5t-42.5 28t-28 40.5t-10 48v7q0 48 33 84h-227q-6 -21 -8.5 -42.5t-2.5 -43.5v-4q0 -54 18.5 -106.5t54 -96t87.5 -74.5t119 -41v-41h-68v-161h229zM65 450h288
q6 1 12.5 1.5t13.5 0.5h3q5 0 11 -0.5t11 -1.5h290q-18 41 -46.5 77t-68 62.5t-89 42t-109.5 15.5t-110.5 -15.5t-90 -42t-68.5 -62.5t-47 -77zM708 409h-225q14 -15 24 -37h210q-3 20 -9 37z" />
    <glyph glyph-name="egrave" unicode="&#xe8;" horiz-adv-x="766" 
d="M275 409h-227q-9 -36 -9 -72v-28q0 -54 23 -109t63.5 -99.5t96 -72.5t120.5 -28h376v194h-368q-20 0 -39 11.5t-34 28.5t-24.5 37.5t-9.5 38.5l1 17q0 46 31 82zM382 454q9 0 18.5 -1t17.5 -3h278q-17 41 -46 77t-69 62.5t-90 42t-110 15.5t-111 -15.5t-91.5 -42
t-70 -62.5t-46.5 -77h282q8 2 16.5 3t18.5 1h3zM710 409h-224q2 -3 5 -6.5t5 -6.5h-52q-39 0 -57 -21.5t-18 -51.5q1 -37 17 -55.5t54 -18.5h282v76q0 42 -12 84zM331 735q20 -17 43.5 -27t45.5 -10q30 0 45 18q11 11 11 33q0 24 -13.5 51.5t-34.5 47.5q-19 17 -43 26.5
t-45 9.5q-28 0 -43 -16q-12 -15 -12 -38t12 -49t34 -46z" />
    <glyph glyph-name="eacute" unicode="&#xe9;" horiz-adv-x="766" 
d="M275 409h-227q-9 -36 -9 -72v-28q0 -54 23 -109t63.5 -99.5t96 -72.5t120.5 -28h376v194h-368q-20 0 -39 11.5t-34 28.5t-24.5 37.5t-9.5 38.5l1 17q0 46 31 82zM382 454q9 0 18.5 -1t17.5 -3h278q-17 41 -46 77t-69 62.5t-90 42t-110 15.5t-111 -15.5t-91.5 -42
t-70 -62.5t-46.5 -77h282q8 2 16.5 3t18.5 1h3zM710 409h-224q2 -3 5 -6.5t5 -6.5h-52q-39 0 -57 -21.5t-18 -51.5q1 -37 17 -55.5t54 -18.5h282v76q0 42 -12 84zM430 735q22 20 34 46t12 49t-12 38q-15 16 -43 16q-21 0 -45 -9.5t-43 -26.5q-21 -20 -34.5 -47.5
t-13.5 -51.5q0 -22 11 -33q15 -18 45 -18q22 0 45.5 10t43.5 27z" />
    <glyph glyph-name="ecircumflex" unicode="&#xea;" horiz-adv-x="766" 
d="M275 409h-227q-9 -36 -9 -72v-28q0 -54 23 -109t63.5 -99.5t96 -72.5t120.5 -28h376v194h-368q-20 0 -39 11.5t-34 28.5t-24.5 37.5t-9.5 38.5l1 17q0 46 31 82zM382 454q9 0 18.5 -1t17.5 -3h278q-17 41 -46 77t-69 62.5t-90 42t-110 15.5t-111 -15.5t-91.5 -42
t-70 -62.5t-46.5 -77h282q8 2 16.5 3t18.5 1h3zM710 409h-224q2 -3 5 -6.5t5 -6.5h-52q-39 0 -57 -21.5t-18 -51.5q1 -37 17 -55.5t54 -18.5h282v76q0 42 -12 84zM378 752l2 2q2 -2 3 -2q20 -18 47 -36t50 -18q30 0 45 18q11 11 11 33q0 24 -16 51.5t-37 47.5
q-19 17 -45.5 26.5t-47.5 9.5h-19q-21 0 -47.5 -9.5t-45.5 -26.5q-21 -20 -37 -47.5t-16 -51.5q0 -22 11 -33q15 -18 45 -18q23 0 50 18t47 36z" />
    <glyph glyph-name="edieresis" unicode="&#xeb;" horiz-adv-x="766" 
d="M275 409h-227q-9 -36 -9 -72v-28q0 -54 23 -109t63.5 -99.5t96 -72.5t120.5 -28h376v194h-368q-20 0 -39 11.5t-34 28.5t-24.5 37.5t-9.5 38.5l1 17q0 46 31 82zM382 454q9 0 18.5 -1t17.5 -3h278q-17 41 -46 77t-69 62.5t-90 42t-110 15.5t-111 -15.5t-91.5 -42
t-70 -62.5t-46.5 -77h282q8 2 16.5 3t18.5 1h3zM710 409h-224q2 -3 5 -6.5t5 -6.5h-52q-39 0 -57 -21.5t-18 -51.5q1 -37 17 -55.5t54 -18.5h282v76q0 42 -12 84zM356 790q0 18 -7.5 35t-21 30t-31 21t-38.5 8q-19 0 -37 -7t-31.5 -19t-22 -29t-8.5 -36q0 -20 8.5 -37.5
t22 -30t31 -19.5t36.5 -7q20 0 38 7.5t31.5 20t21.5 29t8 34.5zM601 790q0 18 -7.5 35t-21 30t-31 21t-38.5 8q-19 0 -37 -7t-31.5 -19t-22 -29t-8.5 -36q0 -20 8.5 -37.5t22 -30t31 -19.5t36.5 -7q20 0 38 7.5t31.5 20t21.5 29t8 34.5z" />
    <glyph glyph-name="igrave" unicode="&#xec;" horiz-adv-x="283" 
d="M239 0v409h-195v-409h195zM239 644h-195v-194h195v194zM92 735q20 -17 43.5 -27t45.5 -10q30 0 45 18q11 11 11 33q0 24 -13.5 51.5t-34.5 47.5q-19 17 -43 26.5t-45 9.5q-28 0 -43 -16q-12 -15 -12 -38t12 -49t34 -46z" />
    <glyph glyph-name="iacute" unicode="&#xed;" horiz-adv-x="283" 
d="M239 0v409h-195v-409h195zM239 644h-195v-194h195v194zM191 735q22 20 34 46t12 49t-12 38q-15 16 -43 16q-21 0 -45 -9.5t-43 -26.5q-21 -20 -34.5 -47.5t-13.5 -51.5q0 -22 11 -33q15 -18 45 -18q22 0 45.5 10t43.5 27z" />
    <glyph glyph-name="icircumflex" unicode="&#xee;" horiz-adv-x="283" 
d="M239 0v409h-195v-409h195zM139 752l2 2q2 -2 3 -2q20 -18 47 -36t50 -18q30 0 45 18q11 11 11 33q0 24 -16 51.5t-37 47.5q-19 17 -45.5 26.5t-47.5 9.5h-19q-21 0 -47.5 -9.5t-45.5 -26.5q-21 -20 -37 -47.5t-16 -51.5q0 -22 11 -33q15 -18 45 -18q23 0 50 18t47 36z
M239 644h-195v-194h195v194z" />
    <glyph glyph-name="idieresis" unicode="&#xef;" horiz-adv-x="283" 
d="M239 0v409h-195v-409h195zM239 644h-195v-194h195v194zM363 790q0 18 -7.5 35t-21 30t-31 21t-38.5 8q-19 0 -37 -7t-31.5 -19t-22 -29t-8.5 -36q0 -20 8.5 -37.5t22 -30t31 -19.5t36.5 -7q20 0 38 7.5t31.5 20t21.5 29t8 34.5zM118 790q0 18 -7.5 35t-21 30t-31 21
t-38.5 8q-19 0 -37 -7t-31.5 -19t-22 -29t-8.5 -36q0 -20 8.5 -37.5t22 -30t31 -19.5t36.5 -7q20 0 38 7.5t31.5 20t21.5 29t8 34.5z" />
    <glyph glyph-name="FL00F0h" unicode="&#xf0;" horiz-adv-x="764" 
d="M383 -2q80 0 143.5 26.5t107.5 70t67.5 99.5t23.5 115v28q0 34 -11 72h-323l-347 -92q2 -60 25.5 -117t67 -102t105.5 -72.5t141 -27.5zM424 745h-195v-100h-181v-194h366q3 0 6 -0.5t6 -0.5h273q-17 39 -44.5 74t-63 61.5t-78 42.5t-89.5 17v100zM382 192
q-27 0 -51 11.5t-41 26.5l219 55v-20q-16 -32 -48.5 -52t-75.5 -21h-3z" />
    <glyph glyph-name="ntilde" unicode="&#xf1;" 
d="M520 0h194v336q0 18 -2.5 36.5t-6.5 36.5h-216q14 -18 22.5 -39t8.5 -43v-327zM239 0v409h-195v-409h195zM431 450h261q-16 41 -44 77t-67 62.5t-89 42t-110 15.5q-31 0 -54.5 -5.5t-49.5 -13.5v-178h20q23 6 47 7.5t33 1.5h6q13 0 24.5 -2.5t22.5 -6.5zM445 830l-2 -2
q-2 2 -3 2q-5 5 -11.5 10t-13.5 10q-12 10 -27 18q-12 7 -23.5 11.5t-21.5 4.5h-37q-21 0 -47.5 -9.5t-45.5 -26.5q-21 -20 -37 -47.5t-16 -51.5q0 -22 11 -33q15 -18 45 -18q23 0 50 18t47 36l2 2q2 -2 3 -2q7 -7 13 -11.5t11 -8.5q12 -11 27 -18q25 -16 46 -16h37
q21 0 47.5 9.5t45.5 26.5q21 20 37 47.5t16 51.5q0 22 -11 33q-15 18 -45 18q-23 0 -50 -18t-47 -36zM239 644h-195v-194h195v194z" />
    <glyph glyph-name="ograve" unicode="&#xf2;" horiz-adv-x="761" 
d="M407 450h288q-18 41 -47 77t-68.5 62.5t-89 42t-109.5 15.5t-110.5 -15.5t-90 -42t-68.5 -62.5t-47 -77h288q6 1 12.5 1.5t13.5 0.5h3q7 0 13 -0.5t12 -1.5zM277 409h-227q-6 -21 -8.5 -42.5t-2.5 -43.5v-4q0 -56 19.5 -109.5t57 -97t91.5 -73.5t124 -39v200
q-39 14 -63 46t-24 72v7q0 48 33 84zM722 319q0 47 -13 90h-226q16 -17 25 -39t9 -45v-7q0 -40 -24.5 -72.5t-63.5 -46.5v-199q70 8 124 38t91 74t57 97.5t21 109.5zM331 735q20 -17 43.5 -27t45.5 -10q30 0 45 18q11 11 11 33q0 24 -13.5 51.5t-34.5 47.5q-19 17 -43 26.5
t-45 9.5q-28 0 -43 -16q-12 -15 -12 -38t12 -49t34 -46z" />
    <glyph glyph-name="oacute" unicode="&#xf3;" horiz-adv-x="761" 
d="M407 450h288q-18 41 -47 77t-68.5 62.5t-89 42t-109.5 15.5t-110.5 -15.5t-90 -42t-68.5 -62.5t-47 -77h288q6 1 12.5 1.5t13.5 0.5h3q7 0 13 -0.5t12 -1.5zM277 409h-227q-6 -21 -8.5 -42.5t-2.5 -43.5v-4q0 -56 19.5 -109.5t57 -97t91.5 -73.5t124 -39v200
q-39 14 -63 46t-24 72v7q0 48 33 84zM722 319q0 47 -13 90h-226q16 -17 25 -39t9 -45v-7q0 -40 -24.5 -72.5t-63.5 -46.5v-199q70 8 124 38t91 74t57 97.5t21 109.5zM430 735q22 20 34 46t12 49t-12 38q-15 16 -43 16q-21 0 -45 -9.5t-43 -26.5q-21 -20 -34.5 -47.5
t-13.5 -51.5q0 -22 11 -33q15 -18 45 -18q22 0 45.5 10t43.5 27z" />
    <glyph glyph-name="ocircumflex" unicode="&#xf4;" horiz-adv-x="761" 
d="M407 450h288q-18 41 -47 77t-68.5 62.5t-89 42t-109.5 15.5t-110.5 -15.5t-90 -42t-68.5 -62.5t-47 -77h288q6 1 12.5 1.5t13.5 0.5h3q7 0 13 -0.5t12 -1.5zM277 409h-227q-6 -21 -8.5 -42.5t-2.5 -43.5v-4q0 -56 19.5 -109.5t57 -97t91.5 -73.5t124 -39v200
q-39 14 -63 46t-24 72v7q0 48 33 84zM722 319q0 47 -13 90h-226q16 -17 25 -39t9 -45v-7q0 -40 -24.5 -72.5t-63.5 -46.5v-199q70 8 124 38t91 74t57 97.5t21 109.5zM378 752l2 2q2 -2 3 -2q20 -18 47 -36t50 -18q30 0 45 18q11 11 11 33q0 24 -16 51.5t-37 47.5
q-19 17 -45.5 26.5t-47.5 9.5h-19q-21 0 -47.5 -9.5t-45.5 -26.5q-21 -20 -37 -47.5t-16 -51.5q0 -22 11 -33q15 -18 45 -18q23 0 50 18t47 36z" />
    <glyph glyph-name="otilde" unicode="&#xf5;" horiz-adv-x="761" 
d="M407 450h288q-18 41 -47 77t-68.5 62.5t-89 42t-109.5 15.5t-110.5 -15.5t-90 -42t-68.5 -62.5t-47 -77h288q6 1 12.5 1.5t13.5 0.5h3q7 0 13 -0.5t12 -1.5zM277 409h-227q-6 -21 -8.5 -42.5t-2.5 -43.5v-4q0 -56 19.5 -109.5t57 -97t91.5 -73.5t124 -39v200
q-39 14 -63 46t-24 72v7q0 48 33 84zM722 319q0 47 -13 90h-226q16 -17 25 -39t9 -45v-7q0 -40 -24.5 -72.5t-63.5 -46.5v-199q70 8 124 38t91 74t57 97.5t21 109.5zM446 830l-2 -2q-2 2 -3 2q-5 5 -11.5 10t-13.5 10q-12 10 -27 18q-12 7 -23.5 11.5t-21.5 4.5h-37
q-21 0 -47.5 -9.5t-45.5 -26.5q-21 -20 -37 -47.5t-16 -51.5q0 -22 11 -33q15 -18 45 -18q23 0 50 18t47 36l2 2q2 -2 3 -2q7 -7 13 -11.5t11 -8.5q12 -11 27 -18q25 -16 46 -16h37q21 0 47.5 9.5t45.5 26.5q21 20 37 47.5t16 51.5q0 22 -11 33q-15 18 -45 18q-23 0 -50 -18
t-47 -36z" />
    <glyph glyph-name="odieresis" unicode="&#xf6;" horiz-adv-x="761" 
d="M407 450h288q-18 41 -47 77t-68.5 62.5t-89 42t-109.5 15.5t-110.5 -15.5t-90 -42t-68.5 -62.5t-47 -77h288q6 1 12.5 1.5t13.5 0.5h3q7 0 13 -0.5t12 -1.5zM277 409h-227q-6 -21 -8.5 -42.5t-2.5 -43.5v-4q0 -56 19.5 -109.5t57 -97t91.5 -73.5t124 -39v200
q-39 14 -63 46t-24 72v7q0 48 33 84zM722 319q0 47 -13 90h-226q16 -17 25 -39t9 -45v-7q0 -40 -24.5 -72.5t-63.5 -46.5v-199q70 8 124 38t91 74t57 97.5t21 109.5zM601 790q0 18 -7.5 35t-21 30t-31 21t-38.5 8q-19 0 -37 -7t-31.5 -19t-22 -29t-8.5 -36q0 -20 8.5 -37.5
t22 -30t31 -19.5t36.5 -7q20 0 38 7.5t31.5 20t21.5 29t8 34.5zM356 790q0 18 -7.5 35t-21 30t-31 21t-38.5 8q-19 0 -37 -7t-31.5 -19t-22 -29t-8.5 -36q0 -20 8.5 -37.5t22 -30t31 -19.5t36.5 -7q20 0 38 7.5t31.5 20t21.5 29t8 34.5z" />
    <glyph glyph-name="FL00F7h" unicode="&#xf7;" horiz-adv-x="548" 
d="M504 404h-460v-164h460v164zM372 128q0 18 -7.5 35t-21 30t-31 21t-38.5 8q-19 0 -37 -7t-31.5 -19t-22 -29t-8.5 -36q0 -20 8.5 -37.5t22 -30t31 -19.5t36.5 -7q20 0 38 7.5t31.5 20t21.5 29t8 34.5zM372 513q0 18 -7.5 35t-21 30t-31 21t-38.5 8q-19 0 -37 -7
t-31.5 -19t-22 -29t-8.5 -36q0 -40 29 -66h139q29 26 29 63z" />
    <glyph glyph-name="FL00F8h" unicode="&#xf8;" horiz-adv-x="761" 
d="M722 319q0 47 -13 90h-396l-47 -161q-22 31 -22 70v7q0 48 33 84h-227q-6 -21 -8.5 -42.5t-2.5 -43.5v-4q0 -60 23 -118t66.5 -103.5t107 -73t145.5 -27.5q81 0 144 27.5t106.5 73t66.5 103.5t24 118zM381 647q-60 0 -110.5 -15.5t-90 -42t-68.5 -62.5t-47 -77h630
q-18 41 -47 77t-68.5 62.5t-89 42t-109.5 15.5zM495 393q10 -15 16 -32.5t6 -35.5v-7q0 -36 -20.5 -67.5t-55.5 -47.5z" />
    <glyph glyph-name="ugrave" unicode="&#xf9;" 
d="M239 318v91h-195v-100q0 -59 22 -115.5t64.5 -100t104.5 -70t142 -26.5q31 0 54.5 5.5t49.5 13.5v186q-12 -6 -27 -9.5t-29.5 -5t-26.5 -2t-18 -0.5h-5q-30 0 -55 11.5t-43 30t-28 42.5t-10 49zM520 0h194v409h-194v-409zM239 644h-195v-194h195v194zM520 450h194v194
h-194v-194zM330 735q20 -17 43.5 -27t45.5 -10q30 0 45 18q11 11 11 33q0 24 -13.5 51.5t-34.5 47.5q-19 17 -43 26.5t-45 9.5q-28 0 -43 -16q-12 -15 -12 -38t12 -49t34 -46z" />
    <glyph glyph-name="uacute" unicode="&#xfa;" 
d="M239 318v91h-195v-100q0 -59 22 -115.5t64.5 -100t104.5 -70t142 -26.5q31 0 54.5 5.5t49.5 13.5v186q-12 -6 -27 -9.5t-29.5 -5t-26.5 -2t-18 -0.5h-5q-30 0 -55 11.5t-43 30t-28 42.5t-10 49zM520 0h194v409h-194v-409zM239 644h-195v-194h195v194zM520 450h194v194
h-194v-194zM428 735q22 20 34 46t12 49t-12 38q-15 16 -43 16q-21 0 -45 -9.5t-43 -26.5q-21 -20 -34.5 -47.5t-13.5 -51.5q0 -22 11 -33q15 -18 45 -18q22 0 45.5 10t43.5 27z" />
    <glyph glyph-name="ucircumflex" unicode="&#xfb;" 
d="M239 318v91h-195v-100q0 -59 22 -115.5t64.5 -100t104.5 -70t142 -26.5q31 0 54.5 5.5t49.5 13.5v186q-12 -6 -27 -9.5t-29.5 -5t-26.5 -2t-18 -0.5h-5q-30 0 -55 11.5t-43 30t-28 42.5t-10 49zM520 0h194v409h-194v-409zM376 752l2 2q2 -2 3 -2q20 -18 47 -36t50 -18
q30 0 45 18q11 11 11 33q0 24 -16 51.5t-37 47.5q-19 17 -45.5 26.5t-47.5 9.5h-19q-21 0 -47.5 -9.5t-45.5 -26.5q-21 -20 -37 -47.5t-16 -51.5q0 -22 11 -33q15 -18 45 -18q23 0 50 18t47 36zM239 644h-195v-194h195v194zM520 450h194v194h-194v-194z" />
    <glyph glyph-name="udieresis" unicode="&#xfc;" 
d="M239 318v91h-195v-100q0 -59 22 -115.5t64.5 -100t104.5 -70t142 -26.5q31 0 54.5 5.5t49.5 13.5v186q-12 -6 -27 -9.5t-29.5 -5t-26.5 -2t-18 -0.5h-5q-30 0 -55 11.5t-43 30t-28 42.5t-10 49zM520 0h194v409h-194v-409zM239 644h-195v-194h195v194zM520 450h194v194
h-194v-194zM600 790q0 18 -7.5 35t-21 30t-31 21t-38.5 8q-19 0 -37 -7t-31.5 -19t-22 -29t-8.5 -36q0 -20 8.5 -37.5t22 -30t31 -19.5t36.5 -7q20 0 38 7.5t31.5 20t21.5 29t8 34.5zM355 790q0 18 -7.5 35t-21 30t-31 21t-38.5 8q-19 0 -37 -7t-31.5 -19t-22 -29t-8.5 -36
q0 -20 8.5 -37.5t22 -30t31 -19.5t36.5 -7q20 0 38 7.5t31.5 20t21.5 29t8 34.5z" />
    <glyph glyph-name="yacute" unicode="&#xfd;" 
d="M239 318v91h-195v-100q0 -59 22 -115.5t64.5 -100t104.5 -70t142 -26.5q31 0 54.5 5.5t49.5 13.5v186q-12 -6 -27 -9.5t-29.5 -5t-26.5 -2t-18 -0.5h-5q-30 0 -55 11.5t-43 30t-28 42.5t-10 49zM520 -114h194v523h-194v-523zM239 644h-195v-194h195v194zM520 450h194v194
h-194v-194zM428 735q22 20 34 46t12 49t-12 38q-15 16 -43 16q-21 0 -45 -9.5t-43 -26.5q-21 -20 -34.5 -47.5t-13.5 -51.5q0 -22 11 -33q15 -18 45 -18q22 0 45.5 10t43.5 27z" />
    <glyph glyph-name="thorn" unicode="&#xfe;" horiz-adv-x="753" 
d="M239 759h-195v-309h644q-17 39 -43 74t-60 62t-75.5 42.5t-87.5 15.5h-183v115zM702 409h-220q16 -19 26 -41t12 -40v-10q0 -25 -10.5 -49t-28.5 -42.5t-43 -30t-54 -11.5h-6q-6 0 -18 0.5t-26.5 2t-29.5 5t-26 9.5v-186q26 -8 49.5 -13.5t54.5 -5.5q80 0 142 27.5
t104 72.5t64 102t22 116v14q0 39 -12 80zM239 -114v523h-195v-523h195z" />
    <glyph glyph-name="ydieresis" unicode="&#xff;" 
d="M239 318v91h-195v-100q0 -59 22 -115.5t64.5 -100t104.5 -70t142 -26.5q31 0 54.5 5.5t49.5 13.5v186q-12 -6 -27 -9.5t-29.5 -5t-26.5 -2t-18 -0.5h-5q-30 0 -55 11.5t-43 30t-28 42.5t-10 49zM520 -114h194v523h-194v-523zM239 644h-195v-194h195v194zM520 450h194v194
h-194v-194zM355 790q0 18 -7.5 35t-21 30t-31 21t-38.5 8q-19 0 -37 -7t-31.5 -19t-22 -29t-8.5 -36q0 -20 8.5 -37.5t22 -30t31 -19.5t36.5 -7q20 0 38 7.5t31.5 20t21.5 29t8 34.5zM600 790q0 18 -7.5 35t-21 30t-31 21t-38.5 8q-19 0 -37 -7t-31.5 -19t-22 -29t-8.5 -36
q0 -20 8.5 -37.5t22 -30t31 -19.5t36.5 -7q20 0 38 7.5t31.5 20t21.5 29t8 34.5z" />
    <glyph glyph-name="OE" unicode="&#x152;" horiz-adv-x="1228" 
d="M65 450h288q6 1 12.5 1.5t13.5 0.5h3q6 0 11.5 -0.5t11.5 -1.5h401q16 4 35 4h3q9 0 18.5 -1t17.5 -3h278q-17 41 -46 77t-69 62.5t-90 42t-110 15.5q-73 0 -131 -22t-103 -59q-42 37 -99 59t-129 22q-60 0 -110.5 -15.5t-90 -42t-68.5 -62.5t-47 -77zM737 409h-254
q7 -7 11.5 -14.5t9.5 -15.5q-3 -21 -3 -42v-28q0 -54 23 -109t63.5 -99.5t96 -72.5t120.5 -28h376v194h-368q-20 0 -39 11.5t-34 28.5t-24.5 37.5t-9.5 38.5q0 33 9 57.5t23 41.5zM393 191h-14q-30 0 -54.5 10.5t-42.5 28t-28 40.5t-10 48v7q0 48 33 84h-227
q-6 -21 -8.5 -42.5t-2.5 -43.5v-4q0 -60 23 -118t66.5 -103.5t107 -73t145.5 -27.5q51 0 96 12v189q-39 -5 -56.5 -6t-27.5 -1zM1172 409h-224q2 -3 5 -6.5t5 -6.5h-52q-39 0 -57 -21.5t-18 -51.5q1 -37 17 -55.5t54 -18.5h282v76q0 42 -12 84z" />
    <glyph glyph-name="oe" unicode="&#x153;" horiz-adv-x="1232" 
d="M382 191h-3q-30 0 -54.5 10.5t-42.5 28t-28 40.5t-10 48v7q0 48 33 84h-227q-6 -21 -8.5 -42.5t-2.5 -43.5v-4q0 -60 23 -118t66.5 -103.5t107 -73t145.5 -27.5q72 0 130.5 22t100.5 60q39 -35 89 -57t107 -22h376v194h-368q-20 0 -39 11.5t-34 28.5t-24.5 37.5
t-9.5 38.5l1 17q0 46 31 82h-258q14 -15 24 -37q-1 -5 -1.5 -9t-0.5 -9v-64q0 -5 0.5 -9t1.5 -9q-14 -35 -47 -57.5t-78 -23.5zM848 454q9 0 18.5 -1t17.5 -3h278q-17 41 -46 77t-69 62.5t-90 42t-110 15.5q-75 0 -133 -22t-103 -60q-42 38 -100 60t-130 22
q-60 0 -110.5 -15.5t-90 -42t-68.5 -62.5t-47 -77h288q6 1 12.5 1.5t13.5 0.5h3q5 0 11 -0.5t11 -1.5h406q8 2 16.5 3t18.5 1h3zM1176 409h-224q2 -3 5 -6.5t5 -6.5h-52q-39 0 -57 -21.5t-18 -51.5q1 -37 17 -55.5t54 -18.5h282v76q0 42 -12 84z" />
    <glyph glyph-name="Scaron" unicode="&#x160;" horiz-adv-x="761" 
d="M722 318l-387 91h-285q-6 -21 -8.5 -42t-2.5 -42v-3l439 -100q-18 -14 -44 -25.5t-52 -11.5h-3q-30 0 -55 13.5t-42 30.5h-229q14 -47 42 -89.5t69 -74t95.5 -50t121.5 -18.5q81 0 144 27.5t106.5 72.5t66.5 103t24 118zM379 454h3q8 -1 15.5 -1.5t15.5 -2.5h281
q-18 41 -47 77t-68.5 62.5t-89 42t-108.5 15.5q-60 0 -110.5 -15.5t-90.5 -42t-69 -62.5t-47 -77h278q10 2 19.5 3t17.5 1zM383 830l-2 -2q-2 2 -3 2q-20 18 -47 36t-50 18q-30 0 -45 -18q-11 -11 -11 -33q0 -24 16 -51.5t37 -47.5q19 -17 45.5 -26.5t47.5 -9.5h19
q21 0 47.5 9.5t45.5 26.5q21 20 37 47.5t16 51.5q0 22 -11 33q-15 18 -45 18q-23 0 -50 -18t-47 -36z" />
    <glyph glyph-name="scaron" unicode="&#x161;" horiz-adv-x="756" 
d="M517 320q0 -18 -9.5 -40t-24.5 -41t-34 -32t-38 -13h-367v-194h375q65 0 119 28t92.5 72.5t59.5 99.5t21 109v40h-194v-29zM69 450h643v194h-374q-48 0 -90 -15.5t-76.5 -42.5t-60.5 -62t-42 -74zM378 828q-2 2 -3 2q-20 18 -47 36t-50 18q-30 0 -45 -18q-11 -11 -11 -33
q0 -24 16 -51.5t37 -47.5q19 -17 45.5 -26.5t47.5 -9.5h19q21 0 47.5 9.5t45.5 26.5q21 20 37 47.5t16 51.5q0 22 -11 33q-15 18 -45 18q-23 0 -50 -18t-47 -36zM240 324q0 19 9.5 42t26.5 43h-221q-10 -36 -10 -73v-41h195v29z" />
    <glyph glyph-name="Ydieresis" unicode="&#x178;" 
d="M239 318v91h-195v-94q0 -59 22 -116t64.5 -102t104.5 -72.5t142 -27.5q18 2 35.5 3t35.5 5t36 12t36 23v-154h194v523h-194v-177q-10 -8 -26.5 -16.5t-36 -15.5t-38.5 -11.5t-33 -4.5h-6q-4 0 -5 1q-29 5 -54 17t-43 29t-28.5 39t-10.5 48zM239 644h-195v-194h195v194z
M520 450h194v194h-194v-194zM355 790q0 18 -7.5 35t-21 30t-31 21t-38.5 8q-19 0 -37 -7t-31.5 -19t-22 -29t-8.5 -36q0 -20 8.5 -37.5t22 -30t31 -19.5t36.5 -7q20 0 38 7.5t31.5 20t21.5 29t8 34.5zM600 790q0 18 -7.5 35t-21 30t-31 21t-38.5 8q-19 0 -37 -7t-31.5 -19
t-22 -29t-8.5 -36q0 -20 8.5 -37.5t22 -30t31 -19.5t36.5 -7q20 0 38 7.5t31.5 20t21.5 29t8 34.5z" />
    <glyph glyph-name="FL017Dh" unicode="&#x17d;" horiz-adv-x="756" 
d="M711 336q0 18 -2.5 36t-7.5 37h-297l-359 -67v-33q0 -54 21.5 -109t60 -99.5t92.5 -72.5t119 -28h374v194h-366q-28 0 -53 24l418 80v38zM419 644h-375v-194h643q-16 39 -41.5 74t-60 62t-76.5 42.5t-90 15.5zM380 830l-2 -2q-2 2 -3 2q-20 18 -47 36t-50 18
q-30 0 -45 -18q-11 -11 -11 -33q0 -24 16 -51.5t37 -47.5q19 -17 45.5 -26.5t47.5 -9.5h19q21 0 47.5 9.5t45.5 26.5q21 20 37 47.5t16 51.5q0 22 -11 33q-15 18 -45 18q-23 0 -50 -18t-47 -36z" />
    <glyph glyph-name="FL017Eh" unicode="&#x17e;" horiz-adv-x="756" 
d="M45 349v-40q0 -54 21.5 -109t60 -99.5t92.5 -72.5t119 -28h374v194h-366q-20 0 -39 13t-34 32t-24 41t-9 40v29h-195zM415 450h272q-16 39 -41.5 74t-60 62t-76.5 42.5t-90 15.5h-375v-194h367h4zM378 828q-2 2 -3 2q-20 18 -47 36t-50 18q-30 0 -45 -18q-11 -11 -11 -33
q0 -24 16 -51.5t37 -47.5q19 -17 45.5 -26.5t47.5 -9.5h19q21 0 47.5 9.5t45.5 26.5q21 20 37 47.5t16 51.5q0 22 -11 33q-15 18 -45 18q-23 0 -50 -18t-47 -36zM711 295v41q0 18 -2.5 36t-7.5 37h-221q17 -20 27 -43t10 -42v-29h194z" />
    <glyph glyph-name="threesuperior" unicode="&#x192;" horiz-adv-x="766" 
d="M274 409h-226q-9 -36 -9 -72v-28q0 -54 23 -109t63.5 -99.5t96 -72.5t120.5 -28h374v194h-366q-20 0 -39 11.5t-34 28.5t-24.5 37.5t-9.5 38.5v17q0 46 31 82zM382 454q8 0 16 -1t16 -3h281q-18 41 -46.5 77t-68.5 62.5t-89.5 42t-109.5 15.5t-111 -15.5t-91.5 -42
t-70 -62.5t-46.5 -77h281q8 2 17 3t19 1h3zM710 409h-225q14 -17 23 -37l-125 -27q0 -32 14.5 -55.5t37 -39t50.5 -23.5t56 -9l181 33v95q-3 31 -12 63z" />
    <glyph glyph-name="circumflex" unicode="&#x2c6;" horiz-adv-x="379" 
d="M187 752l2 2q2 -2 3 -2q20 -18 47 -36t50 -18q30 0 45 18q11 11 11 33q0 24 -16 51.5t-37 47.5q-19 17 -45.5 26.5t-47.5 9.5h-19q-21 0 -47.5 -9.5t-45.5 -26.5q-21 -20 -37 -47.5t-16 -51.5q0 -22 11 -33q15 -18 45 -18q23 0 50 18t47 36z" />
    <glyph glyph-name="tilde" unicode="&#x2dc;" horiz-adv-x="461" 
d="M319 830l-2 -2q-2 2 -3 2q-5 5 -11.5 10t-13.5 10q-12 10 -27 18q-12 7 -23.5 11.5t-21.5 4.5h-37q-21 0 -47.5 -9.5t-45.5 -26.5q-21 -20 -37 -47.5t-16 -51.5q0 -22 11 -33q15 -18 45 -18q23 0 50 18t47 36l2 2q2 -2 3 -2q7 -7 13 -11.5t11 -8.5q12 -11 27 -18
q25 -16 46 -16h37q21 0 47.5 9.5t45.5 26.5q21 20 37 47.5t16 51.5q0 22 -11 33q-15 18 -45 18q-23 0 -50 -18t-47 -36z" />
    <glyph glyph-name="endash" unicode="&#x2013;" horiz-adv-x="423" 
d="M379 225v184h-335v-184h335z" />
    <glyph glyph-name="emdash" unicode="&#x2014;" horiz-adv-x="548" 
d="M504 225v184h-460v-184h460z" />
    <glyph glyph-name="quoteleft" unicode="&#x2018;" horiz-adv-x="294" 
d="M44 450h184q27 42 27 95q0 19 -8 37.5t-22.5 32.5t-33.5 22.5t-41 8.5q-20 0 -39 -7.5t-34 -20.5t-24 -31t-9 -39v-98zM44 362q48 0 85 12.5t63 34.5h-148v-47z" />
    <glyph glyph-name="quoteright" unicode="&#x2019;" horiz-adv-x="294" 
d="M44 450h184q27 42 27 95q0 19 -8 37.5t-22.5 32.5t-33.5 22.5t-41 8.5q-20 0 -39 -7.5t-34 -20.5t-24 -31t-9 -39v-98zM44 362q48 0 85 12.5t63 34.5h-148v-47z" />
    <glyph glyph-name="quotesinglbase" unicode="&#x201a;" horiz-adv-x="294" 
d="M111 -88q34 14 60.5 36t45 47.5t28.5 51.5t10 48q0 19 -8 37.5t-22.5 32.5t-33.5 22.5t-41 8.5q-20 0 -39 -7.5t-34 -20.5t-24 -31t-9 -39q0 -35 18.5 -60t48.5 -36v-90z" />
    <glyph glyph-name="quotedblleft" unicode="&#x201c;" horiz-adv-x="544" 
d="M294 450h184q27 42 27 95q0 19 -8 37.5t-22.5 32.5t-33.5 22.5t-41 8.5q-20 0 -39 -7.5t-34 -20.5t-24 -31t-9 -39v-98zM44 450h184q27 42 27 95q0 19 -8 37.5t-22.5 32.5t-33.5 22.5t-41 8.5q-20 0 -39 -7.5t-34 -20.5t-24 -31t-9 -39v-98zM44 362q48 0 85 12.5t63 34.5
h-148v-47zM294 362q48 0 85 12.5t63 34.5h-148v-47z" />
    <glyph glyph-name="quotedblright" unicode="&#x201d;" horiz-adv-x="544" 
d="M294 450h184q27 42 27 95q0 19 -8 37.5t-22.5 32.5t-33.5 22.5t-41 8.5q-20 0 -39 -7.5t-34 -20.5t-24 -31t-9 -39v-98zM44 450h184q27 42 27 95q0 19 -8 37.5t-22.5 32.5t-33.5 22.5t-41 8.5q-20 0 -39 -7.5t-34 -20.5t-24 -31t-9 -39v-98zM44 362q48 0 85 12.5t63 34.5
h-148v-47zM294 362q48 0 85 12.5t63 34.5h-148v-47z" />
    <glyph glyph-name="quotedblbase" unicode="&#x201e;" horiz-adv-x="544" 
d="M111 -88q34 14 60.5 36t45 47.5t28.5 51.5t10 48q0 19 -8 37.5t-22.5 32.5t-33.5 22.5t-41 8.5q-20 0 -39 -7.5t-34 -20.5t-24 -31t-9 -39q0 -35 18.5 -60t48.5 -36v-90zM356 -88q34 14 60.5 36t45 47.5t28.5 51.5t10 48q0 19 -8 37.5t-22.5 32.5t-33.5 22.5t-41 8.5
q-20 0 -39 -7.5t-34 -20.5t-24 -31t-9 -39q0 -35 18.5 -60t48.5 -36v-90z" />
    <glyph glyph-name="FL2020h" unicode="&#x2020;" horiz-adv-x="470" 
d="M332 362h94v47h-382v-47h93v-362h195v362zM426 532h-94v112h-195v-112h-93v-82h382v82z" />
    <glyph glyph-name="FL2021h" unicode="&#x2021;" horiz-adv-x="470" 
d="M426 282h-94v80h94v47h-382v-47h93v-80h-93v-170h93v-112h195v112h94v170zM426 532h-94v112h-195v-112h-93v-82h382v82z" />
    <glyph glyph-name="bullet" unicode="&#x2022;" horiz-adv-x="766" 
d="M722 319q0 47 -13 90h-659q-6 -21 -8.5 -42.5t-2.5 -43.5v-4q0 -60 23 -118t66.5 -103.5t107 -73t145.5 -27.5q81 0 144 27.5t106.5 73t66.5 103.5t24 118zM65 450h630q-18 41 -47 77t-68.5 62.5t-89 42t-109.5 15.5t-110.5 -15.5t-90 -42t-68.5 -62.5t-47 -77z" />
    <glyph glyph-name="ellipsis" unicode="&#x2026;" horiz-adv-x="853" 
d="M809 95q0 19 -8 37.5t-22.5 32.5t-33.5 22.5t-41 8.5q-20 0 -39 -7.5t-34 -20.5t-24 -31t-9 -39q0 -22 9 -40.5t23.5 -32t33.5 -21t39 -7.5q22 0 41 8t33.5 21.5t23 31t8.5 37.5zM532 95q0 19 -8 37.5t-22.5 32.5t-33.5 22.5t-41 8.5q-20 0 -39 -7.5t-34 -20.5t-24 -31
t-9 -39q0 -22 9 -40.5t23.5 -32t33.5 -21t39 -7.5q22 0 41 8t33.5 21.5t23 31t8.5 37.5zM255 95q0 19 -8 37.5t-22.5 32.5t-33.5 22.5t-41 8.5q-20 0 -39 -7.5t-34 -20.5t-24 -31t-9 -39q0 -22 9 -40.5t23.5 -32t33.5 -21t39 -7.5q22 0 41 8t33.5 21.5t23 31t8.5 37.5z" />
    <glyph glyph-name="FL2030h" unicode="&#x2030;" horiz-adv-x="1421" 
d="M990 175q0 34 -12.5 66.5t-36 58t-58.5 41t-80 15.5t-80 -15.5t-59.5 -40.5t-37 -57t-12.5 -65v-3q0 -33 12.5 -65t37 -56.5t59.5 -40t80 -15.5q43 0 77.5 15.5t58.5 40t37 56.5t14 65zM1382 174q0 34 -12.5 66.5t-36 58t-58.5 41t-80 15.5t-80 -15.5t-59.5 -40.5
t-37 -57t-12.5 -65v-3q0 -33 12.5 -65t37 -56.5t59.5 -40t80 -15.5q43 0 77.5 15.5t58.5 40t37 56.5t14 65zM513 0l125 409h-197l-125 -409h197zM415 465q0 34 -12.5 66.5t-36 58t-58.5 41t-80 15.5t-80 -15.5t-59.5 -40.5t-37 -57t-12.5 -65v-3v-15h124q-1 5 -1 15v4
q0 28 16 44t48 16h2q33 0 48.5 -16t15.5 -44v-4q0 -5 -0.5 -8t-1.5 -7h123q2 10 2 15zM710 644h-197l-60 -194h197zM228 405h-2q-17 0 -28 4h-150q9 -25 25 -47t38.5 -38.5t52 -26t64.5 -9.5q34 0 62.5 9.5t51 26t38 38.5t24.5 47h-148q-11 -4 -28 -4zM803 115h-2
q-32 0 -48 16t-16 44v4q0 28 16 44t48 16h2q33 0 48.5 -16t15.5 -44v-4q0 -28 -15.5 -44t-48.5 -16zM1195 114h-2q-32 0 -48 16t-16 44v4q0 28 16 44t48 16h2q33 0 48.5 -16t15.5 -44v-4q0 -28 -15.5 -44t-48.5 -16z" />
    <glyph glyph-name="guilsinglleft" unicode="&#x2039;" horiz-adv-x="274" 
d="M176 320l-2 2q2 2 2 3q16 17 31.5 39.5t20.5 44.5h-160q-12 -18 -18 -39t-6 -38v-19q0 -21 9.5 -47.5t26.5 -45.5q20 -21 47.5 -37t51.5 -16q22 0 33 11q18 15 18 45q0 23 -18 50t-36 47zM108 450h116q-5 10 -12 17q-11 11 -33 11q-17 0 -35.5 -8t-35.5 -20z" />
    <glyph glyph-name="guilsinglright" unicode="&#x203a;" horiz-adv-x="274" 
d="M98 320q-18 -20 -36 -47t-18 -50q0 -30 18 -45q11 -11 33 -11q24 0 51.5 16t47.5 37q17 19 26.5 45.5t9.5 47.5v19q0 17 -6.5 38t-17.5 39h-161q5 -22 21 -44.5t32 -39.5q0 -1 2 -3zM95 478q-22 0 -33 -11q-8 -6 -13 -17h116q-17 12 -35 20t-35 8z" />
    <glyph glyph-name="FL20ACh" unicode="&#x20ac;" horiz-adv-x="809" 
d="M433 302h-135q-1 1 -1 16v15q0 8 1 9h135v67h-389v-67h48v-40h-48v-170h108q43 -60 114 -97.5t168 -37.5q73 0 131.5 23t101.5 61t69 88t34 104h-209q-14 -35 -47 -58t-79 -24h-2v111zM433 452h2q5 0 11 -0.5t11 -1.5h290q-18 41 -46.5 77t-68 62.5t-89 42t-109.5 15.5
q-97 0 -167.5 -37.5t-113.5 -97.5h-109v-62h389v2zM560 372h210q-3 20 -9 37h-225q14 -15 24 -37z" />
    <glyph glyph-name="FL2122h" unicode="&#x2122;" horiz-adv-x="344" 
d="M174 687v-130h14v87l7 7l32 -86q2 -6 4 -7t4 -1h4q2 0 4.5 2.5t7.5 12t12 29t18 53.5l5 -10v-87h14v134h-5q-7 0 -11 -1.5t-8 -6.5t-9.5 -15t-15.5 -26q-1 -1 -1 -5q-3 -13 -6 -21.5t-8 -19.5l-18 58q-4 13 -16 25.5t-16 12.5h-2l-1 -1l3 -1q0 -2 -6 -2q-2 0 -3.5 -0.5
t-2.5 -0.5zM85 670v-113h21v113h46v21h-113v-21h46z" />
    <glyph glyph-name="A" horiz-adv-x="771" 
d="M384 191h139v143q0 18 -9.5 38.5t-24.5 37.5t-34.5 28.5t-38.5 11.5h-372v194h380q65 0 120.5 -28t96 -72.5t63.5 -99t23 -108.5v-336h-341q-90 0 -155 27t-106.5 71.5t-61 102t-19.5 118.5v76h282q38 0 54 -18.5t17 -55.5q0 -29 -18 -51t-56 -22h-53q18 -26 47 -41.5
t67 -15.5z" />
    <glyph glyph-name="FLE004h" horiz-adv-x="766" 
d="M382 453q38 0 69 -15.5t49 -41.5q9 -15 15.5 -37t6.5 -44v-66h200v76q0 61 -23 119t-66.5 103t-107 72.5t-144.5 27.5q-80 0 -143.5 -26.5t-107.5 -70t-67.5 -99.5t-23.5 -115v-28q0 -54 23 -108.5t63.5 -99t96 -72.5t120.5 -28h380v194h-372q-20 0 -39 11.5t-34 28.5
t-24.5 37.5t-9.5 38.5l1 16q0 25 10 48t28 40.5t42.5 28t54.5 10.5h3z" />
    </font>
</defs>
</svg>
