<?xml version="1.0" standalone="no"?>
<!DOCTYPE svg PUBLIC "-//W3C//DTD SVG 1.1//EN" "http://www.w3.org/Graphics/SVG/1.1/DTD/svg11.dtd" >
<svg xmlns="http://www.w3.org/2000/svg" xmlns:xlink="http://www.w3.org/1999/xlink" version="1.1">
<metadata>
Created by FontForge 20201107 at Sun Feb 25 13:04:14 2018
 By Unknown
2018 Iconian Fonts - www.iconian.com
</metadata>
<defs>
<font id="RealpolitikSemi-Bold" horiz-adv-x="686" >
  <font-face 
    font-family="Realpolitik Semi-Bold"
    font-weight="400"
    font-stretch="normal"
    units-per-em="1000"
    panose-1="0 0 0 0 0 0 0 0 0 0"
    ascent="800"
    descent="-200"
    x-height="518"
    cap-height="657"
    bbox="-101.462 -137 1610 844"
    underline-thickness="50"
    underline-position="-200"
    unicode-range="U+0020-2122"
  />
<missing-glyph horiz-adv-x="500" 
 />
    <glyph glyph-name=".notdef" horiz-adv-x="500" 
 />
    <glyph glyph-name=".null" horiz-adv-x="0" 
 />
    <glyph glyph-name="nonmarkingreturn" horiz-adv-x="500" 
 />
    <glyph glyph-name="space" unicode=" " horiz-adv-x="394" 
 />
    <glyph glyph-name="FL0021h" unicode="!" horiz-adv-x="280" 
d="M238 647v-364q0 -9 -10 -9h-180q-10 0 -10 9v364q0 10 10 10h180q10 0 10 -10zM228 0h-180q-10 0 -10 10v182q0 10 10 10h180q10 0 10 -10v-182q0 -10 -10 -10z" />
    <glyph glyph-name="FL0022h" unicode="&#x22;" horiz-adv-x="519" 
d="M281 657h181q10 0 10 -10v-275q0 -10 -10 -10h-181q-9 0 -9 10v275q0 10 9 10zM49 657h181q10 0 10 -10v-275q0 -10 -10 -10h-181q-9 0 -9 10v275q0 10 9 10z" />
    <glyph glyph-name="numbersign" unicode="#" horiz-adv-x="562" 
d="M504 183h-81v-81q0 -10 -9 -10h-92q-9 0 -9 10v81h-72v-81q0 -10 -10 -10h-91q-10 0 -10 10v81h-80q-10 0 -10 10v90q0 10 10 10h80v73h-80q-10 0 -10 10v90q0 10 10 10h80v81q0 10 10 10h91q10 0 10 -10v-81h72v81q0 10 9 10h92q9 0 9 -10v-81h81q10 0 10 -10v-90
q0 -10 -10 -10h-81v-73h81q10 0 10 -10v-90q0 -10 -10 -10zM313 293v73h-72v-73h72z" />
    <glyph glyph-name="FL0024h" unicode="$" horiz-adv-x="749" 
d="M687 455h-182q-9 0 -9 10v81h-46v-163h147q3 0 6 -3l91 -90q2 -2 2 -7v-201q0 -4 -2 -6l-85 -76h-159v-96q0 -10 -10 -10h-143q-10 0 -10 10v96h-160l-83 76q-3 3 -3 6v110q0 10 10 10h182q9 0 9 -10v-81h45v162h-146q-3 0 -6 3l-91 91q-3 3 -3 7v201q0 4 3 7l84 75h159
v97q0 10 10 10h143q10 0 10 -10v-97h159l85 -74q2 -2 2 -8v-110q0 -10 -9 -10zM496 273h-46v-162h46v162zM242 546v-163h45v163h-45z" />
    <glyph glyph-name="FL0025h" unicode="%" horiz-adv-x="1195" 
d="M838 657h-184q-8 0 -9 -6l-314 -637q-3 -5 0 -9.5t9 -4.5h183q7 0 9 6l314 637q3 5 0 9.5t-8 4.5zM1133 10v269q0 4 -3 7l-64 56h-310l-63 -57q-3 -3 -3 -6v-269q0 -4 3 -7l63 -57h310l64 56q3 3 3 8zM937 52h-51v183h51v-183zM487 379v269q0 5 -3 8l-64 55h-309l-63 -56
q-3 -3 -3 -7v-269q0 -3 3 -6l63 -58h309l64 57q3 3 3 7zM291 422h-50v183h50v-183z" />
    <glyph glyph-name="FL0026h" unicode="&#x26;" horiz-adv-x="728" 
d="M676 308v-92q0 -9 -10 -9h-37v-110l-85 -94q-3 -3 -7 -3h-404q-3 0 -6 3l-86 94v167q0 10 10 10h69l-76 74q-3 3 -3 7v70l87 94q3 3 6 3h417q9 0 9 -10v-91q0 -10 -9 -10h-309v-94h424q10 0 10 -9zM428 111v96h-186v-96h186z" />
    <glyph glyph-name="FL0027h" unicode="'" horiz-adv-x="280" 
d="M48 657h180q10 0 10 -10v-275q0 -10 -10 -10h-180q-10 0 -10 10v275q0 10 10 10z" />
    <glyph glyph-name="FL0028h" unicode="(" horiz-adv-x="376" 
d="M322 0h-197l-83 76q-3 3 -3 6v493q0 4 3 7l83 75h197q10 0 10 -10v-91q0 -10 -10 -10h-83v-435h83q10 0 10 -10v-91q0 -10 -10 -10z" />
    <glyph glyph-name="FL0029h" unicode=")" horiz-adv-x="376" 
d="M48 0h197l84 76q3 3 3 6v493q0 4 -3 7l-84 75h-197q-9 0 -9 -10v-91q0 -10 9 -10h84v-435h-84q-9 0 -9 -10v-91q0 -10 9 -10z" />
    <glyph glyph-name="asterisk" unicode="*" horiz-adv-x="390" 
d="M304 607v40q0 10 -10 10h-45l-27 -26v57q0 10 -10 10h-41q-10 0 -10 -10v-58l-24 24q-3 3 -7 3h-41q-9 0 -9 -10v-40q0 -5 2 -7l25 -25h-59q-9 0 -9 -10v-40q0 -10 9 -10h59l-25 -24q-2 -2 -2 -7v-41q0 -10 9 -10h41q4 0 7 3l24 25v-59q0 -10 10 -10h41q10 0 10 10v59
l24 -25q3 -3 7 -3h41q10 0 10 10v41q0 4 -3 7l-24 24h59q9 0 9 10v40q0 10 -9 10h-59l24 25q3 3 3 7z" />
    <glyph glyph-name="FL002Bh" unicode="+" horiz-adv-x="564" 
d="M40 282v93q0 9 10 9h128v128q0 10 10 10h180q10 0 10 -10v-128h128q10 0 10 -9v-93q0 -9 -10 -9h-128v-128q0 -10 -10 -10h-180q-10 0 -10 10v128h-128q-10 0 -10 9z" />
    <glyph glyph-name="FL002Ch" unicode="," horiz-adv-x="280" 
d="M48 202h180q10 0 10 -10v-166q0 -4 -3 -7l-90 -91q-3 -3 -7 -3h-90q-10 0 -10 10v257q0 10 10 10z" />
    <glyph glyph-name="hyphen" unicode="-" horiz-adv-x="455" 
d="M399 273h-350q-10 0 -10 9v93q0 9 10 9h350q10 0 10 -9v-93q0 -9 -10 -9z" />
    <glyph glyph-name="FL002Eh" unicode="." horiz-adv-x="280" 
d="M228 0h-180q-10 0 -10 10v182q0 10 10 10h180q10 0 10 -10v-182q0 -10 -10 -10z" />
    <glyph glyph-name="FL002Fh" unicode="/" horiz-adv-x="569" 
d="M343 657h187q6 0 8.5 -4.5t0.5 -9.5l-313 -637q-2 -6 -8 -6h-188q-5 0 -7.5 4.5t-0.5 9.5l312 637q1 6 9 6z" />
    <glyph glyph-name="zero" unicode="0" horiz-adv-x="750" 
d="M41 179v299q0 4 3 7l188 172h275l188 -172q2 -2 2 -7v-299q0 -5 -2 -7l-188 -172h-275l-188 172q-3 3 -3 7zM242 456v-255q26 -23 52 -45t52 -45h47q26 23 52 45t52 45v255q-26 23 -52 45t-52 45h-47q-26 -23 -52 -45t-52 -45z" />
    <glyph glyph-name="FL0031h" unicode="1" horiz-adv-x="280" 
d="M238 647v-637q0 -10 -10 -10h-180q-10 0 -10 10v637q0 10 10 10h180q10 0 10 -10z" />
    <glyph glyph-name="FL0032h" unicode="2" horiz-adv-x="749" 
d="M96 455h181q10 0 10 10v81h209v-163h-355q-3 0 -6 -3l-91 -90q-3 -3 -3 -7v-273q0 -10 10 -10h636q9 0 9 10v182q0 10 -9 10h-182q-9 0 -9 -10v-81h-255v162h356q3 0 6 3l91 91q2 2 2 7v201q0 5 -2 7l-84 75h-437l-84 -74q-3 -3 -3 -8v-110q0 -10 10 -10z" />
    <glyph glyph-name="FL0033h" unicode="3" horiz-adv-x="691" 
d="M439 111v163h-295q-10 0 -10 9v92q0 9 10 9h295v162h-388q-10 0 -10 10v91q0 10 10 10h496q3 0 6 -3l87 -94v-138q0 -4 -3 -7l-76 -74h69q10 0 10 -10v-234l-86 -94q-3 -3 -6 -3h-497q-10 0 -10 10v91q0 10 10 10h388z" />
    <glyph glyph-name="FL0034h" unicode="4" horiz-adv-x="748" 
d="M696 647v-637q0 -10 -10 -10h-181q-9 0 -9 10v172h-445q-10 0 -10 10v455q0 10 10 10h182q9 0 9 -10v-354h254v354q0 10 9 10h181q10 0 10 -10z" />
    <glyph glyph-name="FL0035h" unicode="5" horiz-adv-x="749" 
d="M642 455h-181q-10 0 -10 10v81h-209v-163h355q3 0 6 -3l91 -90q2 -2 2 -7v-201q0 -4 -2 -6l-85 -76h-482l-83 76q-3 3 -3 6v110q0 10 10 10h182q9 0 9 -10v-81h254v162h-445q-10 0 -10 9v365q0 10 10 10h591q10 0 10 -10v-182q0 -10 -10 -10z" />
    <glyph glyph-name="FL0036h" unicode="6" horiz-adv-x="749" 
d="M642 455h-181q-10 0 -10 10v81h-209v-163h355q3 0 6 -3l91 -90q2 -2 2 -7v-201q0 -4 -2 -6l-85 -76h-482l-83 76q-3 3 -3 6v493q0 4 3 7l84 75h436l85 -74q3 -3 3 -8v-110q0 -10 -10 -10zM496 273h-254v-162h254v162z" />
    <glyph glyph-name="FL0037h" unicode="7" horiz-adv-x="682" 
d="M41 465v182q0 10 10 10h570q10 0 10 -10v-94l-313 -548q-3 -5 -9 -5h-188q-5 0 -8 5t0 10l300 531h-172v-81q0 -10 -10 -10h-180q-10 0 -10 10z" />
    <glyph glyph-name="FL0038h" unicode="8" horiz-adv-x="748" 
d="M41 560l87 94q3 3 7 3h467q4 0 7 -3l87 -94v-138q0 -4 -3 -7l-76 -74h69q10 0 10 -10v-234l-86 -94q-3 -3 -7 -3h-469q-4 0 -7 3l-86 94v234q0 10 10 10h69l-76 74q-3 3 -3 7v138zM495 111v163h-253v-163h253zM242 546v-162h253v162h-253z" />
    <glyph glyph-name="FL0039h" unicode="9" horiz-adv-x="749" 
d="M96 202h181q10 0 10 -10v-81h209v163h-355q-3 0 -6 3l-91 90q-3 3 -3 7v201q0 3 3 6l85 76h482l83 -76q2 -2 2 -6v-493q0 -5 -2 -7l-84 -75h-437l-84 74q-3 3 -3 8v110q0 10 10 10zM242 384h254v162h-254v-162z" />
    <glyph glyph-name="FL003Ah" unicode=":" horiz-adv-x="280" 
d="M228 0h-180q-10 0 -10 10v182q0 10 10 10h180q10 0 10 -10v-182q0 -10 -10 -10zM228 320h-180q-10 0 -10 10v182q0 10 10 10h180q10 0 10 -10v-182q0 -10 -10 -10z" />
    <glyph glyph-name="FL003Bh" unicode=";" horiz-adv-x="280" 
d="M228 320h-180q-10 0 -10 10v182q0 10 10 10h180q10 0 10 -10v-182q0 -10 -10 -10zM48 202h180q10 0 10 -10v-166q0 -4 -3 -7l-90 -91q-3 -3 -7 -3h-90q-10 0 -10 10v257q0 10 10 10z" />
    <glyph glyph-name="FL003Ch" unicode="&#x3c;" horiz-adv-x="408" 
d="M185 657h188q6 0 8 -4.5t0 -9.5l-154 -315l154 -314q2 -5 0 -9.5t-8 -4.5h-188q-6 0 -8 6l-157 318q-1 4 0 8l157 319q2 6 8 6z" />
    <glyph glyph-name="FL003Dh" unicode="=" horiz-adv-x="496" 
d="M439 183h-390q-9 0 -9 10v92q0 10 9 10h390q10 0 10 -10v-92q0 -10 -10 -10zM439 362h-390q-9 0 -9 10v92q0 10 9 10h390q10 0 10 -10v-92q0 -10 -10 -10z" />
    <glyph glyph-name="FL003Eh" unicode="&#x3e;" horiz-adv-x="408" 
d="M225 651l156 -319q1 -4 0 -8l-156 -318q-2 -6 -9 -6h-187q-6 0 -8.5 4.5t-0.5 9.5l155 314q-38 79 -77.5 158t-77.5 157q-2 5 0.5 9.5t8.5 4.5h187q7 0 9 -6z" />
    <glyph glyph-name="FL003Fh" unicode="?" horiz-adv-x="748" 
d="M233 455h-182q-10 0 -10 10v110q0 5 3 8l85 74h480l84 -75q3 -3 3 -7v-201q0 -4 -3 -7l-91 -91q-3 -3 -6 -3h-456q-9 0 -9 9v92q0 9 9 9h355v163h-253v-81q0 -10 -9 -10zM321 0h-181q-9 0 -9 10v182q0 10 9 10h181q10 0 10 -10v-182q0 -10 -10 -10z" />
    <glyph glyph-name="FL0040h" unicode="@" horiz-adv-x="1043" 
d="M359 127l-63 57q-3 3 -3 7v269q0 4 3 7l63 56h367q10 0 10 -10v-279h48v332h-540v-481h699q10 0 10 -9v-92q0 -9 -10 -9h-813l-84 75q0 1 -1 3t-1 4v538q0 2 1 4t1 3l84 74h768l83 -74q3 -3 3 -7v-385q0 -4 -3 -7l-83 -76h-349q-10 0 -10 10v279h-50v-182h34q10 0 10 -10
v-87q0 -10 -10 -10h-164z" />
    <glyph glyph-name="A" unicode="A" horiz-adv-x="750" 
d="M688 0h-181q-9 0 -9 10v172h-257v-172q0 -10 -9 -10h-181q-10 0 -10 10v468q0 4 3 7l188 172h275l188 -172q2 -2 2 -7v-468q0 -10 -9 -10zM241 454v-161h257v161q-26 23 -52.5 46t-52.5 46h-47q-26 -23 -52.5 -46t-52.5 -46z" />
    <glyph glyph-name="B" unicode="B" horiz-adv-x="748" 
d="M41 647v-637q0 -10 10 -10h552q4 0 7 3l86 94v234q0 10 -10 10h-69l76 74q3 3 3 7v138l-87 94q-3 3 -7 3h-551q-10 0 -10 -10zM495 111h-254v163h254v-163zM241 546h254v-162h-254v162z" />
    <glyph glyph-name="C" unicode="C" horiz-adv-x="746" 
d="M241 454v-251q26 -23 52.5 -46t52.5 -46h147v81q0 10 9 10h182q10 0 10 -10v-109q0 -3 -3 -6l-86 -77h-373l-188 172q-3 3 -3 7v299q0 4 3 7l188 172h369q4 0 7 -3l86 -94v-95q0 -10 -10 -10h-182q-9 0 -9 10v81h-147q-26 -23 -52.5 -46t-52.5 -46z" />
    <glyph glyph-name="D" unicode="D" horiz-adv-x="749" 
d="M506 657l188 -172q2 -2 2 -7v-299q0 -5 -2 -7l-188 -172h-455q-10 0 -10 10v637q0 10 10 10h455zM497 203v251q-26 23 -52.5 46t-52.5 46h-151v-435h151q26 23 52.5 46t52.5 46z" />
    <glyph glyph-name="E" unicode="E" horiz-adv-x="690" 
d="M639 101v-91q0 -10 -10 -10h-578q-10 0 -10 10v637q0 10 10 10h578q10 0 10 -10v-91q0 -10 -10 -10h-388v-163h296q10 0 10 -9v-92q0 -9 -10 -9h-296v-162h388q10 0 10 -10z" />
    <glyph glyph-name="F" unicode="F" horiz-adv-x="690" 
d="M231 0h-180q-10 0 -10 10v637q0 10 10 10h578q10 0 10 -10v-91q0 -10 -10 -10h-388v-163h296q10 0 10 -9v-92q0 -9 -10 -9h-296v-263q0 -10 -10 -10z" />
    <glyph glyph-name="G" unicode="G" horiz-adv-x="747" 
d="M242 456v-255q26 -23 52 -45t52 -45h148v162h-108q-10 0 -10 9v92q0 9 10 9h299q10 0 10 -9v-364q0 -10 -10 -10h-453l-188 172q-3 3 -3 7v299q0 4 3 7l188 172h369q4 0 7 -3l86 -94v-95q0 -10 -10 -10h-182q-9 0 -9 10v81h-147q-26 -23 -52 -45t-52 -45z" />
    <glyph glyph-name="H" unicode="H" horiz-adv-x="748" 
d="M241 647v-264h255v264q0 10 9 10h181q10 0 10 -10v-637q0 -10 -10 -10h-181q-9 0 -9 10v263h-255v-263q0 -10 -9 -10h-181q-10 0 -10 10v637q0 10 10 10h181q9 0 9 -10z" />
    <glyph glyph-name="I" unicode="I" horiz-adv-x="590" 
d="M531 546h-140v-435h140q10 0 10 -10v-91q0 -10 -10 -10h-481q-10 0 -10 10v91q0 10 10 10h141v435h-141q-10 0 -10 10v91q0 10 10 10h481q10 0 10 -10v-91q0 -10 -10 -10z" />
    <glyph glyph-name="J" unicode="J" horiz-adv-x="749" 
d="M497 111v536q0 10 9 10h181q9 0 9 -10v-565q0 -4 -2 -6l-86 -76h-480l-84 76q-3 3 -3 6v110q0 10 10 10h181q9 0 9 -10v-81h256z" />
    <glyph glyph-name="K" unicode="K" horiz-adv-x="749" 
d="M394 293l101 90v264q0 10 9 10h182q10 0 10 -10v-295q0 -4 -3 -7l-123 -111l124 -113q2 -2 2 -6v-105q0 -10 -9 -10h-182q-9 0 -9 10v81q-25 22 -50.5 45t-50.5 46h-154v-172q0 -10 -9 -10h-181q-10 0 -10 10v637q0 10 10 10h181q9 0 9 -10v-354h153z" />
    <glyph glyph-name="L" unicode="L" horiz-adv-x="656" 
d="M606 101v-91q0 -10 -10 -10h-546q-9 0 -9 10v637q0 10 9 10h181q10 0 10 -10v-536h355q10 0 10 -10z" />
    <glyph glyph-name="M" unicode="M" horiz-adv-x="968" 
d="M225 654l252 -281q63 69 126 140.5t126 140.5q3 3 7 3h165q10 0 10 -10v-637q0 -10 -10 -10h-181q-9 0 -9 10v396q-57 -63 -113.5 -126t-113.5 -126q-7 -8 -14 0l-227 252v-396q0 -10 -10 -10h-180q-10 0 -10 10v637q0 10 10 10h165q4 0 7 -3z" />
    <glyph glyph-name="N" unicode="N" horiz-adv-x="748" 
d="M223 654l273 -296v289q0 10 9 10h181q10 0 10 -10v-637q0 -10 -10 -10h-181q-9 0 -9 10v125l-255 276v-401q0 -10 -9 -10h-181q-10 0 -10 10v637q0 10 10 10h165q4 0 7 -3z" />
    <glyph glyph-name="O" unicode="O" horiz-adv-x="749" 
d="M696 82v493q0 6 -2 8l-85 74h-481l-84 -75q-3 -3 -3 -7v-493q0 -3 3 -6l84 -76h480l86 76q2 2 2 6zM497 111h-256v435h256v-435z" />
    <glyph glyph-name="P" unicode="P" horiz-adv-x="748" 
d="M51 657h558l84 -74q3 -3 3 -8v-310q0 -4 -3 -7l-86 -76h-366v-172q0 -10 -9 -10h-181q-10 0 -10 10v637q0 10 10 10zM495 546h-254v-253h254v253z" />
    <glyph glyph-name="Q" unicode="Q" horiz-adv-x="751" 
d="M449 281l48 -83v348h-255v-435h111l-92 161q-3 5 0 9.5t8 4.5h171q6 0 9 -5zM44 563l91 91q3 3 6 3h468l86 -76q2 -2 2 -6v-493q0 -4 -2 -6l-66 -57h60q9 0 9 -9v-92q0 -9 -9 -9h-274q-10 0 -10 9v82h-278l-83 76q-3 3 -3 6v474q0 4 3 7z" />
    <glyph glyph-name="R" unicode="R" horiz-adv-x="749" 
d="M51 657h558l84 -74q3 -3 3 -8v-223q0 -4 -3 -7l-123 -111l124 -113q2 -2 2 -6v-105q0 -10 -9 -10h-182q-9 0 -9 10v81q-25 22 -50.5 45t-50.5 46h-154v-172q0 -10 -9 -10h-181q-10 0 -10 10v637q0 10 10 10zM394 293l101 90v163h-254v-253h153z" />
    <glyph glyph-name="S" unicode="S" horiz-adv-x="749" 
d="M642 455h-181q-10 0 -10 10v81h-209v-163h355q3 0 6 -3l91 -90q2 -2 2 -7v-201q0 -4 -2 -6l-85 -76h-482l-83 76q-3 3 -3 6v110q0 10 10 10h182q9 0 9 -10v-81h254v162h-355q-3 0 -6 3l-91 91q-3 3 -3 7v201q0 4 3 7l84 75h436l85 -74q3 -3 3 -8v-110q0 -10 -10 -10z" />
    <glyph glyph-name="T" unicode="T" horiz-adv-x="664" 
d="M613 556v91q0 10 -9 10h-553q-10 0 -10 -10v-91q0 -10 10 -10h176v-536q0 -10 10 -10h180q10 0 10 10v536h177q9 0 9 10z" />
    <glyph glyph-name="U" unicode="U" horiz-adv-x="749" 
d="M497 111v536q0 10 9 10h181q9 0 9 -10v-565q0 -4 -2 -6l-86 -76h-480l-84 76q-3 3 -3 6v565q0 10 10 10h181q9 0 9 -10v-536h256z" />
    <glyph glyph-name="V" unicode="V" horiz-adv-x="750" 
d="M507 657h181q9 0 9 -10v-468q0 -5 -2 -7l-188 -172h-275l-188 172q-3 3 -3 7v468q0 10 10 10h181q9 0 9 -10v-444q26 -23 52.5 -46t52.5 -46h48q26 23 52 45t52 45v446q0 10 9 10z" />
    <glyph glyph-name="W" unicode="W" horiz-adv-x="968" 
d="M225 3l252 281l252 -281q3 -3 7 -3h165q10 0 10 10v637q0 10 -10 10h-181q-9 0 -9 -10v-396l-227 252q-7 8 -14 0q-57 -63 -113.5 -126t-113.5 -126v396q0 10 -10 10h-180q-10 0 -10 -10v-637q0 -10 10 -10h165q4 0 7 3z" />
    <glyph glyph-name="X" unicode="X" horiz-adv-x="750" 
d="M496 474v173q0 10 9 10h182q9 0 9 -10v-204q0 -5 -2 -7l-123 -112l124 -112q2 -2 2 -7v-195q0 -10 -9 -10h-182q-9 0 -9 10v171q-25 23 -50.5 46t-50.5 46h-53q-25 -22 -50.5 -45.5t-50.5 -46.5v-171q0 -10 -9 -10h-182q-10 0 -10 10v195q0 4 3 7l124 112l-123 112
q-3 3 -3 7v204q0 10 10 10h182q9 0 9 -10v-173q26 -23 50.5 -45.5t50.5 -45.5h51q26 23 50.5 45.5t50.5 45.5z" />
    <glyph glyph-name="Y" unicode="Y" horiz-adv-x="749" 
d="M51 657h181q9 0 9 -10v-354h256v354q0 10 9 10h181q9 0 9 -10v-382q0 -5 -2 -7l-85 -76h-141v-172q0 -10 -9 -10h-181q-9 0 -9 10v172h-141l-84 76q-3 3 -3 7v382q0 10 10 10z" />
    <glyph glyph-name="Z" unicode="Z" horiz-adv-x="682" 
d="M41 465v182q0 10 10 10h570q10 0 10 -10v-95l-363 -441h162v81q0 10 10 10h181q10 0 10 -10v-182q0 -10 -10 -10h-570q-10 0 -10 10v95l363 441h-163v-81q0 -10 -10 -10h-180q-10 0 -10 10z" />
    <glyph glyph-name="FL005Bh" unicode="[" horiz-adv-x="376" 
d="M322 0h-274q-9 0 -9 10v637q0 10 9 10h274q10 0 10 -10v-91q0 -10 -10 -10h-83v-435h83q10 0 10 -10v-91q0 -10 -10 -10z" />
    <glyph glyph-name="FL005Ch" unicode="\" horiz-adv-x="569" 
d="M218 657h-188q-5 0 -7.5 -4.5t-0.5 -9.5l312 -637q1 -6 9 -6h187q6 0 8.5 4.5t0.5 9.5l-313 637q-2 6 -8 6z" />
    <glyph glyph-name="FL005Dh" unicode="]" horiz-adv-x="376" 
d="M48 0h274q10 0 10 10v637q0 10 -10 10h-274q-9 0 -9 -10v-91q0 -10 9 -10h84v-435h-84q-9 0 -9 -10v-91q0 -10 9 -10z" />
    <glyph glyph-name="FL005Eh" unicode="^" horiz-adv-x="749" 
d="M497 10v172h-256v-172q0 -10 -9 -10h-181q-10 0 -10 10v565q0 3 3 6l84 76h480l86 -76q2 -2 2 -6v-565q0 -10 -9 -10h-181q-9 0 -9 10zM241 546v-254h256v254h-256z" />
    <glyph glyph-name="FL005Fh" unicode="_" horiz-adv-x="559" 
d="M501 -21h-451q-10 0 -10 9v93q0 9 10 9h451q10 0 10 -9v-93q0 -9 -10 -9z" />
    <glyph glyph-name="FL0060h" unicode="`" horiz-adv-x="184" 
d="M64 839l97 -134q3 -5 1 -10.5t-9 -5.5h-126q-5 0 -8 3l-118 135q-4 5 -1.5 10.5t9.5 5.5h148q7 0 7 -4z" />
    <glyph glyph-name="a" unicode="a" 
d="M622 0h-179q-10 0 -10 10v398h-193v-298h114q10 0 10 -10v-90q0 -10 -10 -10h-226l-83 75q-3 3 -3 7v355q0 4 3 7l83 74h494q9 0 9 -10v-498q0 -10 -9 -10z" />
    <glyph glyph-name="b" unicode="b" 
d="M631 81v355q0 4 -3 7l-84 75h-304v124q0 10 -9 10h-179q-10 0 -10 -10v-561q0 -4 3 -7l83 -74h417l83 73q3 3 3 8zM240 408h193v-298h-193v298z" />
    <glyph glyph-name="FL0063h" unicode="c" horiz-adv-x="631" 
d="M578 508v-90q0 -10 -10 -10h-328v-298h328q10 0 10 -10v-90q0 -10 -10 -10h-441l-83 75q-3 3 -3 7v355q0 4 3 7l83 74h441q10 0 10 -10z" />
    <glyph glyph-name="d" unicode="d" 
d="M42 81v355q0 4 3 7l85 75h303v124q0 10 10 10h179q9 0 9 -10v-561q0 -4 -3 -7l-82 -74h-417l-84 73q-3 3 -3 8zM433 408h-193v-298h193v298z" />
    <glyph glyph-name="FL0065h" unicode="e" 
d="M128 0l-83 74q-3 3 -3 7v356q0 4 3 7l83 74h418l82 -74q3 -3 3 -7v-223q0 -10 -9 -10h-382v-94h305q9 0 9 -10v-90q0 -10 -9 -10h-417zM240 408v-93h193v93h-193z" />
    <glyph glyph-name="FL0066h" unicode="f" horiz-adv-x="629" 
d="M518 215v90q0 10 -10 10h-268v227h326q10 0 10 10v90q0 10 -10 10h-439l-83 -75q-3 -3 -3 -7v-560q0 -10 10 -10h179q10 0 10 10v195h268q10 0 10 10z" />
    <glyph glyph-name="FL0067h" unicode="g" 
d="M631 -50l-80 -84q-3 -3 -6 -3h-287q-10 0 -10 10v90q0 10 10 10h175v435h-193v-298h114q10 0 10 -10v-90q0 -10 -10 -10h-226l-83 75q-3 3 -3 7v355q0 4 3 7l83 74h418l82 -74q3 -3 3 -7v-487z" />
    <glyph glyph-name="h" unicode="h" 
d="M240 408v-398q0 -10 -9 -10h-179q-10 0 -10 10v632q0 10 10 10h179q9 0 9 -10v-124h304l84 -75q3 -3 3 -7v-426q0 -10 -9 -10h-179q-10 0 -10 10v398h-193z" />
    <glyph glyph-name="i" unicode="i" horiz-adv-x="280" 
d="M48 0h179q10 0 10 10v498q0 10 -10 10h-179q-10 0 -10 -10v-498q0 -10 10 -10z" />
    <glyph glyph-name="j" unicode="j" horiz-adv-x="280" 
d="M47 518h179q9 0 9 -10v-555l-80 -84q0 -3 -6 -3h-224q-9 0 -9 10v90q0 10 9 10h112v532q0 10 10 10z" />
    <glyph glyph-name="FL006Bh" unicode="k" 
d="M431 404v104q0 10 10 10h180q9 0 9 -10v-135q0 -4 -3 -7l-121 -111l122 -112q3 -3 3 -6v-127q0 -10 -9 -10h-180q-10 0 -10 10v105q-26 23 -50.5 44.5t-49.5 44.5h-92v-194q0 -10 -9 -10h-179q-10 0 -10 10v632q0 10 10 10h179q9 0 9 -10v-327h93q24 22 48.5 45t49.5 44z
" />
    <glyph glyph-name="FL006Ch" unicode="l" horiz-adv-x="407" 
d="M360 100v-90q0 -10 -10 -10h-225l-83 75q-3 3 -3 7v560q0 10 10 10h179q10 0 10 -10v-532h112q10 0 10 -10z" />
    <glyph glyph-name="FL006Dh" unicode="m" horiz-adv-x="1006" 
d="M583 0h-179q-10 0 -10 10v398h-151v-398q0 -10 -9 -10h-179q-10 0 -10 10v427q0 4 3 7l83 74h725l83 -73q3 -3 3 -8v-427q0 -10 -9 -10h-179q-10 0 -10 10v398h-151v-398q0 -10 -10 -10z" />
    <glyph glyph-name="n" unicode="n" 
d="M622 0h-179q-10 0 -10 10v398h-193v-398q0 -10 -9 -10h-179q-10 0 -10 10v427q0 4 3 7l83 74h417l83 -73q3 -3 3 -8v-427q0 -10 -9 -10z" />
    <glyph glyph-name="o" unicode="o" 
d="M631 82v355q0 5 -3 8l-83 73h-417l-83 -74q-3 -3 -3 -7v-355q0 -4 3 -7l83 -75h416l84 75q3 3 3 7zM433 110h-193v298h193v-298z" />
    <glyph glyph-name="p" unicode="p" 
d="M631 437v-355q0 -4 -3 -7l-84 -75h-304v-124q0 -10 -9 -10h-179q-10 0 -10 10v561q0 4 3 7l83 74h417l83 -73q3 -3 3 -8zM240 110h193v298h-193v-298z" />
    <glyph glyph-name="q" unicode="q" 
d="M42 437v-355q0 -4 3 -7l85 -75h303v-124q0 -10 10 -10h179q9 0 9 10v561q0 4 -3 7l-82 74h-417l-84 -73q-3 -3 -3 -8zM433 110h-193v298h193v-298z" />
    <glyph glyph-name="r" unicode="r" horiz-adv-x="603" 
d="M551 508v-90q0 -10 -10 -10h-301v-398q0 -10 -10 -10h-179q-10 0 -10 10v427q0 4 3 7l83 74h414q10 0 10 -10z" />
    <glyph glyph-name="FL0073h" unicode="s" horiz-adv-x="662" 
d="M42 10v90q0 10 9 10h359v94h-283l-82 74q-3 3 -3 7v152q0 4 3 7l82 74h471q10 0 10 -10v-90q0 -10 -10 -10h-358v-93h282l83 -75q3 -3 3 -7v-152q0 -4 -3 -7l-83 -74h-471q-9 0 -9 10z" />
    <glyph glyph-name="FL0074h" unicode="t" horiz-adv-x="663" 
d="M609 508v-90q0 -10 -10 -10h-359v-298h301q10 0 10 -10v-90q0 -10 -10 -10h-414l-82 75q-3 3 -3 7v560q0 10 9 10h179q10 0 10 -10v-124h359q10 0 10 -10z" />
    <glyph glyph-name="u" unicode="u" 
d="M442 518h180q9 0 9 -10v-427q0 -5 -3 -8l-83 -73h-417l-83 74q-3 3 -3 7v427q0 10 10 10h179q9 0 9 -10v-398h192v398q0 10 10 10z" />
    <glyph glyph-name="v" unicode="v" horiz-adv-x="680" 
d="M426 508v-309l-92 -80q-25 22 -47.5 40.5t-46.5 39.5v309q0 10 -9 10h-179q-10 0 -10 -10v-331q0 -4 3 -7l186 -170h206l186 170q0 1 1 3t1 4v331q0 10 -9 10h-180q-10 0 -10 -10z" />
    <glyph glyph-name="FL0077h" unicode="w" horiz-adv-x="1006" 
d="M583 518h-179q-10 0 -10 -10v-398h-151v398q0 10 -9 10h-179q-10 0 -10 -10v-427q0 -4 3 -7l83 -74h725l83 73q3 3 3 8v427q0 10 -9 10h-179q-10 0 -10 -10v-398h-151v398q0 10 -10 10z" />
    <glyph glyph-name="FL0078h" unicode="x" horiz-adv-x="687" 
d="M432 404v104q0 10 10 10h180q9 0 9 -10v-135q0 -4 -3 -7l-121 -111l122 -112q3 -3 3 -6v-127q0 -10 -9 -10h-180q-10 0 -10 10v105l-96 84l-96 -85v-104q0 -10 -9 -10h-180q-10 0 -10 10v127q0 3 3 6l122 112l-121 111q-3 3 -3 7v135q0 10 10 10h179q9 0 9 -10v-104
q24 -21 47.5 -42.5t48.5 -43.5q24 22 47 43.5t48 42.5z" />
    <glyph glyph-name="FL0079h" unicode="y" 
d="M442 518h180q9 0 9 -10v-632q0 -10 -9 -10h-180q-10 0 -10 10v124h-304l-83 74q-3 3 -3 7v427q0 10 10 10h179q9 0 9 -10v-398h192v398q0 10 10 10z" />
    <glyph glyph-name="FL007Ah" unicode="z" horiz-adv-x="632" 
d="M569 0h-518q-10 0 -10 10v94l290 304h-280q-10 0 -10 10v90q0 10 10 10h518q10 0 10 -10v-94l-288 -304h278q10 0 10 -10v-90q0 -10 -10 -10z" />
    <glyph glyph-name="FL007Bh" unicode="{" horiz-adv-x="750" 
d="M688 0h-181q-9 0 -9 10v172h-257v-172q0 -10 -9 -10h-181q-10 0 -10 10v468q0 4 3 7l188 172h456q9 0 9 -10v-637q0 -10 -9 -10zM241 454v-161h257v253h-152q-26 -23 -52.5 -46t-52.5 -46z" />
    <glyph glyph-name="FL007Ch" unicode="|" horiz-adv-x="280" 
d="M48 793h180q10 0 10 -10v-908q0 -10 -10 -10h-180q-10 0 -10 10v908q0 10 10 10z" />
    <glyph glyph-name="FL007Dh" unicode="}" horiz-adv-x="750" 
d="M51 0h181q9 0 9 10v172h257v-172q0 -10 9 -10h181q9 0 9 10v468q0 5 -2 7l-188 172h-456q-10 0 -10 -10v-637q0 -10 10 -10zM498 454v-161h-257v253h152q26 -23 52.5 -46t52.5 -46z" />
    <glyph glyph-name="FL007Eh" unicode="~" horiz-adv-x="749" 
d="M497 546v-536q0 -10 9 -10h181q9 0 9 10v565q0 4 -2 6l-86 76h-480l-84 -76q-3 -3 -3 -6v-565q0 -10 10 -10h181q9 0 9 10v536h256z" />
    <glyph glyph-name="FL007Fh" horiz-adv-x="201" 
 />
    <glyph glyph-name="FL00A0h" unicode="&#xa0;" horiz-adv-x="394" 
 />
    <glyph glyph-name="FL00A1h" unicode="&#xa1;" horiz-adv-x="280" 
d="M238 10v364q0 9 -10 9h-180q-10 0 -10 -9v-364q0 -10 10 -10h180q10 0 10 10zM228 657h-180q-10 0 -10 -10v-182q0 -10 10 -10h180q10 0 10 10v182q0 10 -10 10z" />
    <glyph glyph-name="FL00A2h" unicode="&#xa2;" horiz-adv-x="631" 
d="M486 647v-57h85q10 0 10 -10v-91q0 -10 -10 -10h-85v-300h85q10 0 10 -10v-91q0 -10 -10 -10h-85v-58q0 -10 -10 -10h-167q-9 0 -9 10v58h-173l-84 76q-2 2 -2 6v359q0 4 2 6l84 75h173v57q0 10 9 10h167q10 0 10 -10zM240 479v-300h60v300h-60z" />
    <glyph glyph-name="FL00A3h" unicode="&#xa3;" horiz-adv-x="726" 
d="M556 274h-185v-163h293q10 0 10 -10v-91q0 -10 -10 -10h-613q-10 0 -10 10v91q0 10 10 10h119v163h-119q-10 0 -10 9v92q0 9 10 9h154l-32 31q-3 3 -3 7v138l87 94q3 3 6 3h193q9 0 9 -10v-91q0 -10 -9 -10h-85v-162h185q9 0 9 -9v-92q0 -9 -9 -9z" />
    <glyph glyph-name="FL00A4h" unicode="&#xa4;" horiz-adv-x="750" 
d="M697 10v182q0 7 -5 9l-29 13v229l29 14q5 2 5 9v181q0 10 -9 10h-183q-6 0 -8 -5l-31 -58h-197l-28 57q-2 6 -8 6h-182q-10 0 -10 -10v-181q0 -8 6 -9l31 -14v-230l-31 -12q-6 -2 -6 -9v-182q0 -10 10 -10h182q6 0 8 6l33 66h190l33 -66q1 -6 8 -6h183q9 0 9 10zM266 178
v310h211v-310h-211z" />
    <glyph glyph-name="FL00A5h" unicode="&#xa5;" horiz-adv-x="749" 
d="M612 228h-144v-47h144q10 0 10 -10v-92q0 -10 -10 -10h-144v-59q0 -10 -9 -10h-181q-9 0 -9 10v59h-144q-10 0 -10 10v92q0 10 10 10h144v47h-144q-10 0 -10 10v92q0 10 10 10h144v47h-141l-84 76q-3 3 -3 7v177q0 10 10 10h181q9 0 9 -10v-149h256v149q0 10 9 10h181
q9 0 9 -10v-177q0 -5 -2 -7l-85 -76h-141v-47h144q10 0 10 -10v-92q0 -10 -10 -10z" />
    <glyph glyph-name="FL00A6h" unicode="&#xa6;" horiz-adv-x="280" 
d="M238 783v-410q0 -10 -10 -10h-180q-10 0 -10 10v410q0 10 10 10h180q10 0 10 -10zM238 285v-410q0 -10 -10 -10h-180q-10 0 -10 10v410q0 10 10 10h180q10 0 10 -10z" />
    <glyph glyph-name="FL00A7h" unicode="&#xa7;" horiz-adv-x="749" 
d="M451 524h-209v22h209v-22zM242 111v22h254v-22h-254zM596 455h46q10 0 10 10v110q0 5 -3 8l-85 74h-436l-84 -75q-3 -3 -3 -7v-201q0 -4 3 -7l91 -91q3 -3 6 -3h4v-69l-94 -2q-10 0 -10 -10v-110q0 -3 3 -6l83 -76h482l85 76q2 2 2 6v201q0 5 -2 7l-91 90q-3 3 -6 3h-1
v72zM396 242h-51v173h51v-173z" />
    <glyph glyph-name="FL00A8h" unicode="&#xa8;" horiz-adv-x="438" 
d="M180 689h-131q-10 0 -10 10v111q0 10 10 10h131q10 0 10 -10v-111q0 -10 -10 -10zM242 699v111q0 10 10 10h131q9 0 9 -10v-111q0 -10 -9 -10h-131q-10 0 -10 10z" />
    <glyph glyph-name="FL00A9h" unicode="&#xa9;" horiz-adv-x="277" 
d="M136 696h-2q-21 0 -40 -7.5t-34 -20.5t-25.5 -29t-14.5 -34q0 -2 -0.5 -3t-0.5 -3v1v-14q0 -18 3.5 -36.5t9.5 -29.5v1q7 -17 20.5 -28t29 -17.5t30 -10t23.5 -4.5q1 0 16 2t42 13q31 16 45 45v-1q16 28 16 57q0 32 -17 60l1 -1q-15 31 -45 45q-26 15 -57 15zM136 660
q32 0 56 -24t24 -59q0 -18 -11 -37q-6 -12 -13.5 -19t-15.5 -12q-21 -10 -40 -10q-18 0 -37 10h-3q-3 0 -4 1q-8 6 -14 13.5t-12 16.5q-11 20 -11 37q0 18 6.5 33t18 26t26 17.5t30.5 6.5zM191 565l-17 6q-11 5 -13 -6q-6 -21 -26 -21q-26 0 -26 33q0 37 28 37q15 0 22 -16
q4 -7 11 -6l17 3q12 2 7 13q-14 41 -57 41q-67 0 -67 -72q0 -33 17.5 -51.5t48.5 -18.5q49 0 62 46q3 8 -7 12z" />
    <glyph glyph-name="FL00AAh" unicode="&#xaa;" horiz-adv-x="749" 
d="M96 455h181q10 0 10 10v81h209v-163h-355q-3 0 -6 -3l-91 -90q-3 -3 -3 -7v-201q0 -3 3 -6l85 -76h558q9 0 9 10v565q0 5 -2 7l-84 75h-437l-84 -74q-3 -3 -3 -8v-110q0 -10 10 -10zM242 273h254v-162h-254v162z" />
    <glyph glyph-name="FL00ABh" unicode="&#xab;" horiz-adv-x="743" 
d="M513 657h187q6 0 8.5 -4.5t0.5 -9.5l-154 -315l154 -314q2 -5 -0.5 -9.5t-8.5 -4.5h-187q-8 0 -9 6l-156 318q-1 4 0 8l156 319q1 6 9 6zM188 657h187q6 0 8.5 -4.5t0.5 -9.5l-154 -315l154 -314q2 -5 -0.5 -9.5t-8.5 -4.5h-187q-8 0 -9 6l-156 318q-1 4 0 8l156 319
q1 6 9 6z" />
    <glyph glyph-name="FL00ACh" unicode="&#xac;" horiz-adv-x="498" 
d="M40 282v93q0 9 9 9h392q10 0 10 -9v-230q0 -10 -10 -10h-180q-10 0 -10 10v128h-202q-9 0 -9 9z" />
    <glyph glyph-name="FL00AEh" unicode="&#xad;" horiz-adv-x="398" 
d="M344 273h-295q-10 0 -10 9v93q0 9 10 9h295q9 0 9 -9v-93q0 -9 -9 -9z" />
    <glyph glyph-name="macron" unicode="&#xae;" horiz-adv-x="751" 
d="M698 101v-91q0 -10 -9 -10h-274q-10 0 -10 10v87l-86 85h-77v-172q0 -10 -9 -10h-182q-10 0 -10 10v637q0 10 10 10h547q3 0 6 -3l91 -91q2 -2 2 -7v-277q0 -7 -5 -9l-160 -81l79 -78h78q9 0 9 -10zM407 293l90 45v208h-255v-253h165z" />
    <glyph glyph-name="FL00AFh" unicode="&#xaf;" horiz-adv-x="559" 
d="M501 568h-451q-10 0 -10 9v93q0 9 10 9h451q10 0 10 -9v-93q0 -9 -10 -9z" />
    <glyph glyph-name="FL00B0h" unicode="&#xb0;" horiz-adv-x="229" 
d="M106 749h14v11h-14v-11zM38 699v111q0 10 9 10h131q10 0 10 -10v-111q0 -10 -10 -10h-131q-9 0 -9 10z" />
    <glyph glyph-name="FL00B1h" unicode="&#xb1;" horiz-adv-x="564" 
d="M40 295v92q0 10 10 10h128v115q0 10 10 10h180q10 0 10 -10v-115h128q10 0 10 -10v-92q0 -10 -10 -10h-128v-115q0 -10 -10 -10h-180q-10 0 -10 10v115h-128q-10 0 -10 10zM40 10v92q0 10 10 10h456q10 0 10 -10v-92q0 -10 -10 -10h-456q-10 0 -10 10z" />
    <glyph glyph-name="FL00B2h" unicode="&#xb2;" horiz-adv-x="538" 
d="M490 635v-43l-161 -180h151q10 0 10 -9v-91q0 -10 -10 -10h-430q-10 0 -10 10v94l169 181h-159q-10 0 -10 10v91q0 10 10 10h373l64 -56q3 -3 3 -7z" />
    <glyph glyph-name="FL00B3h" unicode="&#xb3;" horiz-adv-x="691" 
d="M242 111v163h295q10 0 10 9v92q0 9 -10 9h-295v162h388q10 0 10 10v91q0 10 -10 10h-496q-4 0 -7 -3l-86 -94v-463l85 -94q3 -3 7 -3h497q10 0 10 10v91q0 10 -10 10h-388z" />
    <glyph glyph-name="FL00B4h" unicode="&#xb4;" horiz-adv-x="184" 
d="M21 705l96 134q1 4 8 4h147q7 0 10 -5.5t-2 -10.5l-118 -135q-3 -3 -7 -3h-127q-6 0 -8.5 5.5t1.5 10.5z" />
    <glyph glyph-name="FL00B6h" unicode="&#xb5;" 
d="M232 522h-181q-10 0 -10 -10v-637q0 -10 10 -10h181q10 0 10 10v125h307l83 75q3 3 3 7v430q0 10 -10 10h-180q-10 0 -10 -10v-401h-193v401q0 10 -10 10z" />
    <glyph glyph-name="FL00BAh" unicode="&#xb6;" horiz-adv-x="748" 
d="M448 -136h-180q-10 0 -10 10v258h-128l-86 76q-3 3 -3 6v361q0 5 3 8l84 74h558q10 0 10 -10v-773q0 -10 -10 -10h-181q-9 0 -9 10v672h-38v-672q0 -10 -10 -10z" />
    <glyph glyph-name="FL00B7h" unicode="&#xb7;" horiz-adv-x="280" 
d="M228 228h-180q-10 0 -10 10v182q0 10 10 10h180q10 0 10 -10v-182q0 -10 -10 -10z" />
    <glyph glyph-name="FL00B7h" unicode="&#x2219;" horiz-adv-x="280" 
d="M228 228h-180q-10 0 -10 10v182q0 10 10 10h180q10 0 10 -10v-182q0 -10 -10 -10z" />
    <glyph glyph-name="FL00B8h" unicode="&#xb8;" horiz-adv-x="278" 
d="M235 -48l-80 -84q-3 -3 -7 -3h-199q-10 0 -10 10v91q0 10 10 10h88v34q0 9 10 9h178q10 0 10 -9v-58z" />
    <glyph glyph-name="FL00B9h" unicode="&#xb9;" horiz-adv-x="280" 
d="M228 302h-180q-10 0 -10 10v376q0 10 10 10h180q10 0 10 -10v-376q0 -10 -10 -10z" />
    <glyph glyph-name="FL00B5h" unicode="&#xba;" horiz-adv-x="538" 
d="M490 366v269q0 4 -3 7l-64 56h-317l-63 -57q-3 0 -3 -6v-269q0 -4 3 -7l63 -57h317l64 56q3 3 3 8zM290 412h-50v175h50v-175z" />
    <glyph glyph-name="FL00BBh" unicode="&#xbb;" horiz-adv-x="743" 
d="M219 657h-187q-6 0 -8.5 -4.5t-0.5 -9.5q38 -78 77 -157t77 -158l-154 -314q-2 -5 0.5 -9.5t8.5 -4.5h187q7 0 9 6l156 318q1 4 0 8l-156 319q-2 6 -9 6zM544 657h-187q-6 0 -8.5 -4.5t-0.5 -9.5q38 -78 77 -157t77 -158l-154 -314q-2 -5 0.5 -9.5t8.5 -4.5h187q7 0 9 6
l156 318q1 4 0 8l-156 319q-2 6 -9 6z" />
    <glyph glyph-name="FL00BCh" unicode="&#xbc;" horiz-adv-x="1027" 
d="M988 312l-14 -34q-1 -7 -9 -7h-38l27 -40q4 -5 4 -14v-6q0 -32 -29 -41l-54 11l-7 -71q-8 -26 -34 -26q-14 0 -27.5 6.5t-33.5 20.5q-14 -19 -29.5 -38t-29.5 -37l-33 -10q-7 -1 -11 3l-32 38q-28 -17 -56 -33.5t-56 -32.5q-4 -1 -8 0l-19 7q-7 1 -7 8v32l-149 -28
l-22 17q-4 3 -4 10l4 24l-151 15q-9 0 -9 10v30l11 14l-84 17q-27 1 -27 36q0 4 3 7l28 27l-56 31q-5 2 -5 7l-7 36q-1 4 1.5 7.5t6.5 3.5l53 11q-8 10 -16 21t-14 20l6 47q2 11 11 9l64 -7q2 48 10.5 73.5t26.5 25.5h4l65 -26q22 34 39.5 54.5t34.5 28.5q7 1 10 -1l51 -40
q26 14 54 31t54 31q5 3 12 -1l25 -21q5 -5 3 -11l-4 -15l118 28l45 -7q9 -2 9 -11l-4 -33h138q6 0 7 -4l15 -17q0 -27 -10 -41l104 -31q7 -1 7 -10v-8q0 -15 -7.5 -25.5t-18.5 -17.5q64 -30 64 -53zM871 290q-4 5 -2 10t9 6l61 5l-92 55q-6 4 -5.5 9.5t7.5 7.5l57 19
l-138 34q-6 2 -7 7t4 10l29 25h-142q-13 0 -10 12l10 36l-149 -26q-9 -2 -11 9l-5 38q-3 0 -3 2q-28 -15 -54.5 -31t-54.5 -32q-2 -2 -5.5 -1t-5.5 3l-42 36q-15 -20 -32 -39.5t-32 -39.5q-8 -2 -13 -3l-5 -1q-21 0 -56 23l-10 -84q0 -8 -10 -8l-68 6l4 -17l41 -59
q3 -5 0.5 -10t-7.5 -6l-49 -5l79 -47q5 -3 5 -9t-5 -9l-47 -25q31 -8 63 -15.5t62 -15.5q7 -2 8 -7.5t-4 -9.5l-30 -25l148 -6q5 0 7.5 -4t0.5 -9l-12 -34l140 33q5 2 9 -4l20 -28l2 -4q1 -2 0 -4l-2 -9q28 16 53.5 31t52.5 31q5 3 11 -1l49 -36l56 78q4 7 12 3l68 -26l4 89
q0 11 12 9l73 -13q-5 18 -49 76zM907 402h-1l8 3h8l-9 -14q-1 2 -2.5 5.5t-3.5 5.5zM949 299l-4 9l-6 3l18 1zM920 213v1l9 -2l-11 -9l1 8zM846 350l-13 -91q-2 -11 -11 -9l-19 3q-7 1 -7 10l3 96q0 12 12 10l27 -8q10 -1 8 -11zM833 214l-18 -19q-3 -3 -8 -3q-4 0 -7 4
l-13 15q-2 2 -1.5 6.5t3.5 6.5l14 12q4 4 9 1l18 -8q5 -2 6.5 -6.5t-3.5 -8.5zM789 228l-10 -10q-26 0 -57 42v-32q0 -10 -10 -10l-19 -1q-10 0 -10 10v124q0 8 6.5 10t10.5 -4l47 -58l4 60q0 13 13 9l18 -7q7 -1 7 -9v-124zM671 219l-14 6q-4 2 -5 6q-7 22 -18 22
q-7 0 -18 -23q-2 -6 -9 -6h-23q-12 0 -10 11q3 32 15.5 64t32.5 67q9 6 22 6q28 0 41 -46v-98q0 -6 -4.5 -8.5t-9.5 -0.5zM582 358l-7 -122q0 -8 -7 -9l-26 -9q-5 -2 -9 1t-3 9l10 127q0 3 3 5.5t6 3.5l22 5q11 2 11 -11zM529 224l-10 -10q-25 0 -58 41v-30q0 -8 -8 -10
l-19 -4q-12 -2 -12 9v128q0 8 6.5 10t10.5 -4l48 -60l3 60q0 5 3.5 8t8.5 1l20 -6q7 -1 7 -9v-124zM430 313v-2q-12 -94 -54 -97q-5 -1 -9 -1.5t-8 -0.5q-37 0 -49 29q0 87 49 120q-1 -1 -1 -6q2 8 10 8h5q46 0 57 -50zM360 362q-1 0 -1 -1q0 1 1 1zM322 358l-3 -31
q-1 -13 -14 -8q-1 1 -6 1q-9 0 -23 -14v1q-14 -23 -14 -46q0 -15 14 -15h15q5 4 10 1.5t5 -8.5l2 -22q0 -7 -6 -8l-10 -3q-9 -4 -16 -4q-40 0 -53 63v18q0 68 87 85q12 1 12 -10zM230 354l-5 -124q0 -8 -7 -9l-26 -9q-5 -2 -9.5 1t-3.5 8l12 130q0 7 8 9l19 4q12 1 12 -10z
M640 300l-2 8l-4 -8h6zM389 294q0 6 -1 7q-6 13 -14 13q-9 0 -22 -30v-8q0 -21 8 -21l2 1q1 0 3 1q4 2 7.5 4t11.5 4q3 8 4 14t1 15z" />
    <glyph glyph-name="FL00BDh" unicode="&#xbd;" horiz-adv-x="985" 
d="M426 657h183q6 0 9 -4.5t0 -9.5l-315 -637q-2 -6 -8 -6h-184q-6 0 -9 4.5t0 9.5l315 637q1 6 9 6zM927 279v-43l-161 -180h152q9 0 9 -9v-92q0 -9 -9 -9h-431q-10 0 -10 9v94l169 182h-159q-10 0 -10 10v91q0 10 10 10h373l64 -56q3 -3 3 -7zM233 315h-180q-10 0 -10 10
v377q0 9 10 9h180q10 0 10 -9v-377q0 -10 -10 -10z" />
    <glyph glyph-name="FL00BEh" unicode="&#xbe;" horiz-adv-x="986" 
d="M947 307l-8 16q-20 12 -41.5 24.5t-42.5 25.5l39 12h8q6 0 8.5 4.5t0.5 9.5l-8 15q-1 2 -7 6l-124 30l35 30q5 5 3.5 11.5t-9.5 6.5h-156l10 39q2 5 -2 8.5t-10 2.5l-152 -27l-5 33q0 6 -6 8l-12 7q-5 3 -8 0q-26 -15 -53.5 -31.5t-53.5 -30.5l-46 38q-8 8 -14 -1
l-64 -81l-11 -3q-17 0 -55 29q-5 4 -10 1.5t-6 -8.5q-3 -22 -5 -45t-5 -46l-72 7q-5 1 -8 -3t-2 -9l6 -30l35 -51l-64 -7q-7 -1 -8.5 -8t5.5 -11l89 -53l-53 -29q-5 -4 -4 -10t7 -8l132 -33l-36 -29q-5 -4 -3.5 -10.5t8.5 -6.5l162 -8l-14 -37q-2 -5 1.5 -9.5t9.5 -2.5
q36 8 74 17.5t75 17.5l14 -20l-5 -25q-2 -7 3 -10.5t11 -0.5l121 68l50 -38q8 -6 14 2q14 20 28 40.5t29 40.5l74 -29q5 -2 9 0.5t4 7.5q2 20 2.5 45.5t2.5 46.5l72 -14q10 -2 12 9q0 2 -1 2q2 2 2 7q0 22 -40 77l60 6q13 1 8 14zM806 344l-11 -72l4 74zM800 227l-12 -12
l-5 7l-2 -13l10 8q2 -2 6 -3t7 -2zM751 345l5 -1l-6 8v-27v10q0 7 1 10zM750 325v-85q-17 7 -50 55q-4 6 -10 4.5t-7 -7.5v30l45 -56q5 -6 11.5 -4t6.5 10q0 14 1 26.5t3 26.5zM646 242l3 -1l-3 6v-5zM615 273q-19 0 -33 -29h-7q9 54 43 108q2 2 1.5 1t4.5 -1t11 -9t11 -23
v-73q-14 26 -31 26zM543 346l-7 -103l-6 -2q2 29 5 54t5 51h3zM490 342v-106q-21 9 -51 53q-5 5 -10.5 4t-6.5 -7v34l46 -59q5 -6 11.5 -4t6.5 10zM357 234q-9 -3 -18 -3q-21 0 -29 14q1 31 11.5 57t24.5 41q4 0 5 3l2 2l1 -4q29 0 37 -33q-9 -77 -34 -77zM257 226q8 0 11 1
v-3l-2 -1q-3 -1 -5 -1.5t-4 -0.5q-10 0 -17 7q4 -1 8 -1.5t9 -0.5zM223 261q0 -25 17 -33q-11 11 -17 40q-1 -2 -0.5 -3.5t0.5 -3.5zM283 346l-1 -6h-2h-1q-18 0 -35 -20q-9 -14 -14 -27.5t-7 -24.5v1v14q0 49 60 63zM191 342l-5 -105l-5 -2q3 31 4.5 54.5t4.5 52.5h1z
M644 293l-13 43q-1 7 -9 7q-6 0 -9 -6l-22 -43q-3 -5 -0.5 -9.5t8.5 -4.5h35q5 0 8.5 4t1.5 9zM389 294q0 13 -5 18q-9 22 -29 22q-22 0 -42 -50v-8q0 -40 27 -40q6 0 13 4q2 1 4.5 2t15.5 4q4 0 6 6q10 19 10 42z" />
    <glyph glyph-name="FL00BFh" unicode="&#xbf;" horiz-adv-x="748" 
d="M504 202h182q10 0 10 -10v-110q0 -5 -3 -8l-85 -74h-480l-84 75q-3 3 -3 7v201q0 4 3 7l91 91q3 3 6 3h456q9 0 9 -9v-92q0 -9 -9 -9h-355v-163h253v81q0 10 9 10zM416 657h181q9 0 9 -10v-182q0 -10 -9 -10h-181q-10 0 -10 10v182q0 10 10 10z" />
    <glyph glyph-name="FL00C0h" unicode="&#xc0;" horiz-adv-x="749" 
d="M379 839l96 -134q4 -5 1.5 -10.5t-9.5 -5.5h-126q-4 0 -7 3l-118 135q-5 5 -2 10.5t10 5.5h147q7 0 8 -4zM688 0h-181q-9 0 -9 10v172h-257v-172q0 -10 -9 -10h-181q-10 0 -10 10v468q0 4 3 7l188 172h275l188 -172q2 -2 2 -7v-468q0 -10 -9 -10zM241 454v-161h257v161
q-26 23 -52.5 46t-52.5 46h-47q-26 -23 -52.5 -46t-52.5 -46z" />
    <glyph glyph-name="FL00C1h" unicode="&#xc1;" horiz-adv-x="749" 
d="M263 705l96 134q1 4 8 4h147q7 0 10 -5.5t-2 -10.5l-118 -135q-3 -3 -7 -3h-127q-6 0 -8.5 5.5t1.5 10.5zM688 0h-181q-9 0 -9 10v172h-257v-172q0 -10 -9 -10h-181q-10 0 -10 10v468q0 4 3 7l188 172h275l188 -172q2 -2 2 -7v-468q0 -10 -9 -10zM241 454v-161h257v161
q-26 23 -52.5 46t-52.5 46h-47q-26 -23 -52.5 -46t-52.5 -46z" />
    <glyph glyph-name="FL00C2h" unicode="&#xc2;" horiz-adv-x="749" 
d="M174 705l115 134q1 1 3.5 2.5t4.5 1.5h143q2 0 4.5 -1.5t3.5 -2.5l115 -134q4 -5 1.5 -10.5t-9.5 -5.5h-130q-5 0 -8 3l-49 57l-48 -57q-3 -3 -8 -3h-130q-7 0 -9.5 5.5t1.5 10.5zM688 0h-181q-9 0 -9 10v172h-257v-172q0 -10 -9 -10h-181q-10 0 -10 10v468q0 4 3 7
l188 172h275l188 -172q2 -2 2 -7v-468q0 -10 -9 -10zM241 454v-161h257v161q-26 23 -52.5 46t-52.5 46h-47q-26 -23 -52.5 -46t-52.5 -46z" />
    <glyph glyph-name="FL00C3h" unicode="&#xc3;" horiz-adv-x="749" 
d="M560 844l9 -11q-11 -75 -41.5 -108.5t-81.5 -33.5q-20 0 -54.5 10.5t-94.5 33.5q-30 -2 -37 -38q-2 -8 -10 -8h-73q-9 0 -9 10q0 27 10.5 53.5t28.5 46.5t42.5 32.5t53.5 12.5q24 0 53 -10.5t53 -21.5q10 -5 18 -7.5t16 -4.5h4q11 0 18.5 10.5t12.5 27.5q1 6 10 6h72z
M688 0h-181q-9 0 -9 10v172h-257v-172q0 -10 -9 -10h-181q-10 0 -10 10v468q0 4 3 7l188 172h275l188 -172q2 -2 2 -7v-468q0 -10 -9 -10zM241 454v-161h257v161q-26 23 -52.5 46t-52.5 46h-47q-26 -23 -52.5 -46t-52.5 -46z" />
    <glyph glyph-name="FL00C4h" unicode="&#xc4;" horiz-adv-x="749" 
d="M333 689h-131q-10 0 -10 10v111q0 10 10 10h131q9 0 9 -10v-111q0 -10 -9 -10zM395 699v111q0 10 9 10h131q10 0 10 -10v-111q0 -10 -10 -10h-131q-9 0 -9 10zM688 0h-181q-9 0 -9 10v172h-257v-172q0 -10 -9 -10h-181q-10 0 -10 10v468q0 4 3 7l188 172h275l188 -172
q2 -2 2 -7v-468q0 -10 -9 -10zM241 454v-161h257v161q-26 23 -52.5 46t-52.5 46h-47q-26 -23 -52.5 -46t-52.5 -46z" />
    <glyph glyph-name="FL00C5h" unicode="&#xc5;" horiz-adv-x="749" 
d="M362 749h14v11h-14v-11zM294 699v111q0 10 9 10h131q10 0 10 -10v-111q0 -10 -10 -10h-131q-9 0 -9 10zM688 0h-181q-9 0 -9 10v172h-257v-172q0 -10 -9 -10h-181q-10 0 -10 10v468q0 4 3 7l188 172h275l188 -172q2 -2 2 -7v-468q0 -10 -9 -10zM241 454v-161h257v161
q-26 23 -52.5 46t-52.5 46h-47q-26 -23 -52.5 -46t-52.5 -46z" />
    <glyph glyph-name="FL00C6h" unicode="&#xc6;" horiz-adv-x="1160" 
d="M1098 101v-91q0 -10 -9 -10h-580q-9 0 -9 10v172h-255v-172q0 -10 -9 -10h-182q-10 0 -10 10v468q0 4 3 7l188 172h854q9 0 9 -10v-91q0 -10 -9 -10h-389v-163h296q10 0 10 -9v-92q0 -9 -10 -9h-296v-162h389q9 0 9 -10zM244 454v-161h256v253h-151q-26 -23 -52.5 -46
t-52.5 -46z" />
    <glyph glyph-name="FL00C7h" unicode="&#xc7;" horiz-adv-x="746" 
d="M526 -48l-81 -84q-3 -3 -7 -3h-199q-9 0 -9 10v91q0 10 9 10h89v24h-96l-188 172q-3 3 -3 7v299q0 4 3 7l188 172h369q4 0 7 -3l86 -94v-95q0 -10 -10 -10h-182q-9 0 -9 10v81h-147q-26 -23 -52.5 -46t-52.5 -46v-251q26 -23 52.5 -46t52.5 -46h147v81q0 10 9 10h182
q10 0 10 -10v-109q0 -3 -3 -6l-86 -77h-79v-48z" />
    <glyph glyph-name="FL00C8h" unicode="&#xc8;" horiz-adv-x="690" 
d="M350 839l96 -134q4 -5 1.5 -10.5t-9.5 -5.5h-126q-5 0 -8 3l-117 135q-5 5 -2 10.5t9 5.5h148q7 0 8 -4zM639 101v-91q0 -10 -10 -10h-578q-10 0 -10 10v637q0 10 10 10h578q10 0 10 -10v-91q0 -10 -10 -10h-388v-163h296q10 0 10 -9v-92q0 -9 -10 -9h-296v-162h388
q10 0 10 -10z" />
    <glyph glyph-name="FL00C9h" unicode="&#xc9;" horiz-adv-x="690" 
d="M233 705l96 134q1 4 8 4h147q7 0 10 -5.5t-2 -10.5l-117 -135q-3 -3 -8 -3h-126q-7 0 -9.5 5.5t1.5 10.5zM639 101v-91q0 -10 -10 -10h-578q-10 0 -10 10v637q0 10 10 10h578q10 0 10 -10v-91q0 -10 -10 -10h-388v-163h296q10 0 10 -9v-92q0 -9 -10 -9h-296v-162h388
q10 0 10 -10z" />
    <glyph glyph-name="FL00CAh" unicode="&#xca;" horiz-adv-x="690" 
d="M146 705l114 134q1 1 3.5 2.5t4.5 1.5h144q2 0 4 -1.5t3 -2.5l115 -134q5 -5 2 -10.5t-10 -5.5h-130q-5 0 -8 3l-48 57l-49 -57q-3 -3 -7 -3h-130q-7 0 -10 5.5t2 10.5zM639 101v-91q0 -10 -10 -10h-578q-10 0 -10 10v637q0 10 10 10h578q10 0 10 -10v-91q0 -10 -10 -10
h-388v-163h296q10 0 10 -9v-92q0 -9 -10 -9h-296v-162h388q10 0 10 -10z" />
    <glyph glyph-name="FL00CBh" unicode="&#xcb;" horiz-adv-x="690" 
d="M304 689h-131q-10 0 -10 10v111q0 10 10 10h131q10 0 10 -10v-111q0 -10 -10 -10zM366 699v111q0 10 10 10h131q10 0 10 -10v-111q0 -10 -10 -10h-131q-10 0 -10 10zM639 101v-91q0 -10 -10 -10h-578q-10 0 -10 10v637q0 10 10 10h578q10 0 10 -10v-91q0 -10 -10 -10
h-388v-163h296q10 0 10 -9v-92q0 -9 -10 -9h-296v-162h388q10 0 10 -10z" />
    <glyph glyph-name="FL00CCh" unicode="&#xcc;" horiz-adv-x="590" 
d="M191 546h-141q-10 0 -10 10v91q0 10 10 10h481q10 0 10 -10v-91q0 -10 -10 -10h-140v-435h140q10 0 10 -10v-91q0 -10 -10 -10h-481q-10 0 -10 10v91q0 10 10 10h141v435zM311 839l96 -134q4 -5 1.5 -10.5t-9.5 -5.5h-126q-5 0 -8 3l-117 135q-5 5 -2 10.5t10 5.5h147
q7 0 8 -4z" />
    <glyph glyph-name="FL00CDh" unicode="&#xcd;" horiz-adv-x="590" 
d="M174 705l96 134q1 4 8 4h148q6 0 9 -5.5t-2 -10.5l-117 -135q-3 -3 -8 -3h-126q-7 0 -9.5 5.5t1.5 10.5zM531 546h-140v-435h140q10 0 10 -10v-91q0 -10 -10 -10h-481q-10 0 -10 10v91q0 10 10 10h141v435h-141q-10 0 -10 10v91q0 10 10 10h481q10 0 10 -10v-91
q0 -10 -10 -10z" />
    <glyph glyph-name="FL00CEh" unicode="&#xce;" horiz-adv-x="590" 
d="M97 705l114 134q1 1 3.5 2.5t4.5 1.5h143q2 0 4.5 -1.5t3.5 -2.5l115 -134q5 -5 2 -10.5t-10 -5.5h-130q-5 0 -8 3l-48 57l-49 -57q-3 -3 -8 -3h-130q-6 0 -9 5.5t2 10.5zM531 546h-140v-435h140q10 0 10 -10v-91q0 -10 -10 -10h-481q-10 0 -10 10v91q0 10 10 10h141v435
h-141q-10 0 -10 10v91q0 10 10 10h481q10 0 10 -10v-91q0 -10 -10 -10z" />
    <glyph glyph-name="FL00CFh" unicode="&#xcf;" horiz-adv-x="590" 
d="M255 689h-131q-10 0 -10 10v111q0 10 10 10h131q9 0 9 -10v-111q0 -10 -9 -10zM317 699v111q0 10 10 10h131q9 0 9 -10v-111q0 -10 -9 -10h-131q-10 0 -10 10zM531 546h-140v-435h140q10 0 10 -10v-91q0 -10 -10 -10h-481q-10 0 -10 10v91q0 10 10 10h141v435h-141
q-10 0 -10 10v91q0 10 10 10h481q10 0 10 -10v-91q0 -10 -10 -10z" />
    <glyph glyph-name="FL00D0h" unicode="&#xd0;" horiz-adv-x="848" 
d="M603 657l187 -172q3 -3 3 -7v-299q0 -4 -3 -7l-187 -172h-455q-10 0 -10 10v263h-86q-10 0 -10 9v93q0 9 10 9h86v263q0 10 10 10h455zM424 273h-86v-162h151l52 46l52 46v251l-52 46l-52 46h-151v-162h86q9 0 9 -9v-93q0 -9 -9 -9z" />
    <glyph glyph-name="FL00D1h" unicode="&#xd1;" horiz-adv-x="748" 
d="M223 654l273 -296v289q0 10 9 10h181q10 0 10 -10v-637q0 -10 -10 -10h-181q-9 0 -9 10v125l-255 276v-401q0 -10 -9 -10h-181q-10 0 -10 10v637q0 10 10 10h165q4 0 7 -3zM560 844l9 -11q-11 -75 -41.5 -108.5t-81.5 -33.5q-20 0 -54.5 10.5t-94.5 33.5q-30 -2 -37 -38
q-2 -8 -10 -8h-73q-9 0 -9 10q0 27 10.5 53.5t28.5 46.5t42.5 32.5t53.5 12.5q23 0 52.5 -10.5t53.5 -21.5q10 -5 18 -7.5t16 -4.5h4q11 0 18.5 10.5t12.5 27.5q1 6 10 6h72z" />
    <glyph glyph-name="FL00D2h" unicode="&#xd2;" horiz-adv-x="749" 
d="M241 546v-435h256v435h-256zM130 0l-86 76q-3 3 -3 6v493q0 5 3 8l85 74h481l84 -75q2 -2 2 -7v-493q0 -4 -2 -6l-84 -76h-480zM379 839l96 -134q4 -5 1.5 -10.5t-9.5 -5.5h-126q-7 0 -7 3l-118 135q-5 5 -2 10.5t10 5.5h147q7 0 8 -4z" />
    <glyph glyph-name="FL00D3h" unicode="&#xd3;" horiz-adv-x="749" 
d="M263 705l96 134q1 4 8 4h147q7 0 10 -5.5t-2 -10.5l-118 -135q-3 -3 -7 -3h-127q-6 0 -8.5 5.5t1.5 10.5zM694 76l-86 -76h-480l-84 76q-3 3 -3 6v493q0 4 3 7l84 75h481l85 -74q2 -2 2 -8v-493q0 -4 -2 -6zM497 111v435h-256v-435h256z" />
    <glyph glyph-name="FL00D4h" unicode="&#xd4;" horiz-adv-x="749" 
d="M174 705l115 134q1 1 3.5 2.5t4.5 1.5h143q2 0 4.5 -1.5t3.5 -2.5l115 -134q4 -5 1.5 -10.5t-9.5 -5.5h-130q-5 0 -8 3l-49 57l-48 -57q-3 -3 -8 -3h-130q-7 0 -9.5 5.5t1.5 10.5zM694 76l-86 -76h-480l-84 76q-3 3 -3 6v493q0 4 3 7l84 75h481l85 -74q2 -2 2 -8v-493
q0 -4 -2 -6zM497 111v435h-256v-435h256z" />
    <glyph glyph-name="FL00D5h" unicode="&#xd5;" horiz-adv-x="749" 
d="M560 844l9 -11q-11 -75 -41.5 -108.5t-81.5 -33.5q-20 0 -54.5 10.5t-94.5 33.5q-30 -2 -37 -38q-2 -8 -10 -8h-73q-9 0 -9 10q0 27 10.5 53.5t28.5 46.5t42.5 32.5t53.5 12.5q23 0 52.5 -10.5t53.5 -21.5q10 -5 18 -7.5t16 -4.5h4q11 0 18.5 10.5t12.5 27.5q1 6 10 6h72
zM694 76l-86 -76h-480l-84 76q-3 3 -3 6v493q0 4 3 7l84 75h481l85 -74q2 -2 2 -8v-493q0 -4 -2 -6zM497 111v435h-256v-435h256z" />
    <glyph glyph-name="FL00D6h" unicode="&#xd6;" horiz-adv-x="749" 
d="M333 689h-131q-10 0 -10 10v111q0 10 10 10h131q9 0 9 -10v-111q0 -10 -9 -10zM395 699v111q0 10 9 10h131q10 0 10 -10v-111q0 -10 -10 -10h-131q-9 0 -9 10zM241 111h256v435h-256v-435zM696 575v-493q0 -4 -2 -6l-86 -76h-480l-84 76q-3 3 -3 6v493q0 4 3 7l84 75h481
l85 -74q2 -2 2 -8z" />
    <glyph glyph-name="ecircumflex" unicode="&#xd7;" horiz-adv-x="581" 
d="M539 93l-79 -77q-6 -6 -13 0l-161 161l-160 -161q-7 -4 -14 0l-79 77q-4 7 0 14l162 162l-162 160q-4 7 0 14l78 77q7 7 14 0l161 -161l161 161q7 7 13 0l77 -77q7 -7 0 -14l-160 -161l162 -161q7 -7 0 -14z" />
    <glyph glyph-name="FL00D8h" unicode="&#xd8;" horiz-adv-x="750" 
d="M41 179v299q0 4 3 7l188 172h275l188 -172q2 -2 2 -7v-299q0 -5 -2 -7l-188 -172h-274l-189 172q-3 3 -3 7zM392 111l105 90v176l-135 -266h30zM242 456v-174l134 264h-30q-26 -23 -52 -45t-52 -45z" />
    <glyph glyph-name="FL00D9h" unicode="&#xd9;" horiz-adv-x="749" 
d="M379 839l96 -134q4 -5 1.5 -10.5t-9.5 -5.5h-126q-7 0 -7 3l-118 135q-5 5 -2 10.5t10 5.5h147q7 0 8 -4zM497 111v536q0 10 9 10h181q9 0 9 -10v-565q0 -4 -2 -6l-86 -76h-480l-84 76q-3 3 -3 6v565q0 10 10 10h181q9 0 9 -10v-536h256z" />
    <glyph glyph-name="FL00DAh" unicode="&#xda;" horiz-adv-x="749" 
d="M263 705l96 134q1 4 8 4h147q7 0 10 -5.5t-2 -10.5l-118 -135q-3 -3 -7 -3h-127q-6 0 -8.5 5.5t1.5 10.5zM497 111v536q0 10 9 10h181q9 0 9 -10v-565q0 -4 -2 -6l-86 -76h-480l-84 76q-3 3 -3 6v565q0 10 10 10h181q9 0 9 -10v-536h256z" />
    <glyph glyph-name="FL00DBh" unicode="&#xdb;" horiz-adv-x="749" 
d="M174 705l115 134q1 1 3.5 2.5t4.5 1.5h143q2 0 4.5 -1.5t3.5 -2.5l115 -134q4 -5 1.5 -10.5t-9.5 -5.5h-130q-5 0 -8 3l-49 57l-48 -57q-3 -3 -8 -3h-130q-7 0 -9.5 5.5t1.5 10.5zM497 111v536q0 10 9 10h181q9 0 9 -10v-565q0 -4 -2 -6l-86 -76h-480l-84 76q-3 3 -3 6
v565q0 10 10 10h181q9 0 9 -10v-536h256z" />
    <glyph glyph-name="FL00DCh" unicode="&#xdc;" horiz-adv-x="749" 
d="M333 689h-131q-10 0 -10 10v111q0 10 10 10h131q9 0 9 -10v-111q0 -10 -9 -10zM395 699v111q0 10 9 10h131q10 0 10 -10v-111q0 -10 -10 -10h-131q-9 0 -9 10zM497 111v536q0 10 9 10h181q9 0 9 -10v-565q0 -4 -2 -6l-86 -76h-480l-84 76q-3 3 -3 6v565q0 10 10 10h181
q9 0 9 -10v-536h256z" />
    <glyph glyph-name="FL00DDh" unicode="&#xdd;" horiz-adv-x="749" 
d="M51 657h181q9 0 9 -10v-354h256v354q0 10 9 10h181q9 0 9 -10v-382q0 -5 -2 -7l-85 -76h-141v-172q0 -10 -9 -10h-181q-9 0 -9 10v172h-141l-84 76q-3 3 -3 7v382q0 10 10 10zM263 705l96 134q1 4 8 4h147q7 0 10 -5.5t-2 -10.5l-118 -135q-3 -3 -7 -3h-127
q-6 0 -8.5 5.5t1.5 10.5z" />
    <glyph glyph-name="FL00DEh" unicode="&#xde;" horiz-adv-x="748" 
d="M241 647v-82h368l84 -74q3 -3 3 -8v-309q0 -4 -3 -7l-86 -76h-366v-81q0 -10 -9 -10h-181q-10 0 -10 10v637q0 10 10 10h181q9 0 9 -10zM495 454h-254v-252h254v252z" />
    <glyph glyph-name="FL00DFh" unicode="&#xdf;" horiz-adv-x="748" 
d="M492 272h-171q-10 0 -10 9v91q0 9 10 9h171v161h-250v-666q0 -10 -10 -10h-180q-9 0 -9 10v680l85 93q3 3 7 3h464q4 0 7 -3l86 -93v-137q0 -4 -3 -7l-75 -74h68q10 0 10 -10v-232l-85 -93q-3 -3 -7 -3h-279q-10 0 -10 10v90q0 10 10 10h171v162z" />
    <glyph glyph-name="FL00E0h" unicode="&#xe0;" 
d="M359 699l95 -134q4 -5 1.5 -10t-9.5 -5h-125q-5 0 -8 3l-116 133q-5 5 -2 11t10 6h146q7 0 8 -4zM622 0h-179q-10 0 -10 10v398h-193v-298h114q10 0 10 -10v-90q0 -10 -10 -10h-226l-83 75q-3 3 -3 7v355q0 4 3 7l83 74h494q9 0 9 -10v-498q0 -10 -9 -10z" />
    <glyph glyph-name="FL00E1h" unicode="&#xe1;" 
d="M246 565l95 134q1 4 8 4h146q7 0 10 -6t-2 -11l-116 -133q-3 -3 -8 -3h-125q-7 0 -9.5 5t1.5 10zM622 0h-179q-10 0 -10 10v398h-193v-298h114q10 0 10 -10v-90q0 -10 -10 -10h-226l-83 75q-3 3 -3 7v355q0 4 3 7l83 74h494q9 0 9 -10v-498q0 -10 -9 -10z" />
    <glyph glyph-name="FL00E2h" unicode="&#xe2;" 
d="M158 565l113 134q1 1 3.5 2.5t4.5 1.5h142q2 0 4.5 -1.5t3.5 -2.5l114 -134q4 -5 1.5 -10t-9.5 -5h-129q-5 0 -8 3l-48 56l-48 -56q-3 -3 -8 -3h-129q-6 0 -9 5t2 10zM622 0h-179q-10 0 -10 10v398h-193v-298h114q10 0 10 -10v-90q0 -10 -10 -10h-226l-83 75q-3 3 -3 7
v355q0 4 3 7l83 74h494q9 0 9 -10v-498q0 -10 -9 -10z" />
    <glyph glyph-name="FL00E3h" unicode="&#xe3;" 
d="M540 704l9 -12q-11 -75 -41 -107.5t-81 -32.5q-20 0 -54 10t-94 33q-29 -1 -37 -38q-1 -7 -9 -7h-73q-9 0 -9 9q0 28 10.5 54t28.5 46t42.5 32.5t53.5 12.5q23 0 52 -10.5t53 -21.5q16 -8 33 -12h4q20 0 31 37q1 7 10 7h71zM622 0h-179q-10 0 -10 10v398h-193v-298h114
q10 0 10 -10v-90q0 -10 -10 -10h-226l-83 75q-3 3 -3 7v355q0 4 3 7l83 74h494q9 0 9 -10v-498q0 -10 -9 -10z" />
    <glyph glyph-name="FL00E4h" unicode="&#xe4;" 
d="M314 550h-130q-9 0 -9 9v111q0 10 9 10h130q10 0 10 -10v-111q0 -9 -10 -9zM376 559v111q0 10 10 10h130q9 0 9 -10v-111q0 -9 -9 -9h-130q-10 0 -10 9zM622 0h-179q-10 0 -10 10v398h-193v-298h114q10 0 10 -10v-90q0 -10 -10 -10h-226l-83 75q-3 3 -3 7v355q0 4 3 7
l83 74h494q9 0 9 -10v-498q0 -10 -9 -10z" />
    <glyph glyph-name="FL00E5h" unicode="&#xe5;" 
d="M622 0h-179q-10 0 -10 10v398h-193v-298h114q10 0 10 -10v-90q0 -10 -10 -10h-226l-83 75q-3 3 -3 7v355q0 4 3 7l83 74h494q9 0 9 -10v-498q0 -10 -9 -10zM342 609h15v11h-15v-11zM275 559v111q0 10 10 10h130q9 0 9 -10v-111q0 -9 -9 -9h-130q-10 0 -10 9z" />
    <glyph glyph-name="FL00E6h" unicode="&#xe6;" horiz-adv-x="1092" 
d="M939 0h-493q-9 0 -9 10v398h-193v-298h114q9 0 9 -10v-90q0 -10 -9 -10h-227l-82 75q-3 3 -3 7v355q0 4 3 7l82 74h809l83 -74q3 -3 3 -7v-223q0 -10 -10 -10h-381v-94h304q10 0 10 -10v-90q0 -10 -10 -10zM635 408v-93h193v93h-193z" />
    <glyph glyph-name="FL00E7h" unicode="&#xe7;" horiz-adv-x="631" 
d="M466 -47l-80 -84q-3 -3 -7 -3h-197q-10 0 -10 10v90q0 10 10 10h88v24h-143l-83 75q-3 3 -3 7v355q0 4 3 7l83 74h441q10 0 10 -10v-90q0 -10 -10 -10h-328v-298h328q10 0 10 -10v-90q0 -10 -10 -10h-102v-47z" />
    <glyph glyph-name="FL00E8h" unicode="&#xe8;" 
d="M345 699l96 -134q3 -5 1 -10t-9 -5h-125q-5 0 -8 3l-116 133q-5 5 -2 11t9 6h147q1 0 3.5 -1t3.5 -3zM128 0l-83 74q-3 3 -3 7v356q0 4 3 7l83 74h418l82 -74q3 -3 3 -7v-223q0 -10 -9 -10h-382v-94h305q9 0 9 -10v-90q0 -10 -9 -10h-417zM240 408v-93h193v93h-193z" />
    <glyph glyph-name="FL00E9h" unicode="&#xe9;" 
d="M233 565l95 134q1 4 8 4h146q7 0 9.5 -6t-1.5 -11l-117 -133q-3 -3 -8 -3h-125q-6 0 -8.5 5t1.5 10zM128 0l-83 74q-3 3 -3 7v356q0 4 3 7l83 74h418l82 -74q3 -3 3 -7v-223q0 -10 -9 -10h-382v-94h305q9 0 9 -10v-90q0 -10 -9 -10h-417zM240 408v-93h193v93h-193z" />
    <glyph glyph-name="FL00EAh" unicode="&#xea;" 
d="M144 565l114 134q1 1 3 2.5t4 1.5h143q2 0 4.5 -1.5t3.5 -2.5l113 -134q5 -5 2 -10t-10 -5h-129q-4 0 -7 3l-48 56l-49 -56q0 -3 -7 -3h-129q-7 0 -10 5t2 10zM128 0l-83 74q-3 3 -3 7v356q0 4 3 7l83 74h418l82 -74q3 -3 3 -7v-223q0 -10 -9 -10h-382v-94h305q9 0 9 -10
v-90q0 -10 -9 -10h-417zM240 408v-93h193v93h-193z" />
    <glyph glyph-name="FL00EBh" unicode="&#xeb;" 
d="M301 550h-130q-10 0 -10 9v111q0 10 10 10h130q10 0 10 -10v-111q0 -9 -10 -9zM363 559v111q0 10 9 10h130q10 0 10 -10v-111q0 -9 -10 -9h-130q-9 0 -9 9zM128 0l-83 74q-3 3 -3 7v356q0 4 3 7l83 74h418l82 -74q3 -3 3 -7v-223q0 -10 -9 -10h-382v-94h305q9 0 9 -10
v-90q0 -10 -9 -10h-417zM240 408v-93h193v93h-193z" />
    <glyph glyph-name="FL00ECh" unicode="&#xec;" horiz-adv-x="280" 
d="M170 699l95 -134q4 -5 1.5 -10t-8.5 -5h-125q-5 0 -8 3l-117 133q-4 5 -1.5 11t9.5 6h146q7 0 8 -4zM227 0h-179q-10 0 -10 10v498q0 10 10 10h179q10 0 10 -10v-498q0 -10 -10 -10z" />
    <glyph glyph-name="FL00EDh" unicode="&#xed;" horiz-adv-x="280" 
d="M8 565l96 134q1 4 7 4h147q6 0 9 -6t-2 -11l-116 -133q-3 -3 -8 -3h-125q-7 0 -9 5t1 10zM227 0h-179q-10 0 -10 10v498q0 10 10 10h179q10 0 10 -10v-498q0 -10 -10 -10z" />
    <glyph glyph-name="FL00EEh" unicode="&#xee;" horiz-adv-x="280" 
d="M-55 565l113 134q1 1 3.5 2.5t4.5 1.5h143q2 0 4 -1.5t3 -2.5l114 -134q5 -5 2 -10t-10 -5h-129q-7 0 -7 3l-49 56l-48 -56q-3 -3 -7 -3h-129q-7 0 -10 5t2 10zM227 0h-179q-10 0 -10 10v498q0 10 10 10h179q10 0 10 -10v-498q0 -10 -10 -10z" />
    <glyph glyph-name="FL00EFh" unicode="&#xef;" horiz-adv-x="280" 
d="M102 550h-130q-10 0 -10 9v111q0 10 10 10h130q9 0 9 -10v-111q0 -9 -9 -9zM163 559v111q0 10 10 10h130q10 0 10 -10v-111q0 -9 -10 -9h-130q-10 0 -10 9zM227 0h-179q-10 0 -10 10v498q0 10 10 10h179q10 0 10 -10v-498q0 -10 -10 -10z" />
    <glyph glyph-name="FL00F0h" unicode="&#xf0;" horiz-adv-x="749" 
d="M277 452h-181q-9 0 -9 9v110q0 5 3 8l84 73h120v94q0 10 9 10h178q9 0 9 -10v-94h117l83 -74q2 -2 2 -7v-489q0 -5 -2 -7l-82 -75h-479l-84 75q-2 2 -2 7v199q0 5 2 7l90 89q3 3 7 3h351v162h-207v-81q0 -9 -9 -9zM493 271h-251v-161h251v161z" />
    <glyph glyph-name="FL00F1h" unicode="&#xf1;" 
d="M622 0h-179q-10 0 -10 10v398h-193v-398q0 -10 -9 -10h-179q-10 0 -10 10v427q0 4 3 7l83 74h417l83 -73q3 -3 3 -8v-427q0 -10 -9 -10zM526 704l10 -12q-11 -75 -41 -107.5t-81 -32.5q-20 0 -54.5 10t-94.5 33q-28 -1 -36 -38q-1 -7 -10 -7h-72q-10 0 -10 9
q0 28 10.5 54t28.5 46t42.5 32.5t53.5 12.5q23 0 52 -10.5t53 -21.5q19 -9 34 -12h4q22 0 30 37q1 7 10 7h71z" />
    <glyph glyph-name="FL00F2h" unicode="&#xf2;" 
d="M42 82v355q0 5 3 8l84 73h417l82 -74q3 -3 3 -7v-355q0 -4 -3 -7l-82 -75h-416l-85 75q-3 3 -3 7zM240 110h193v298h-193v-298zM345 699l96 -134q3 -5 1 -10t-9 -5h-125q-5 0 -8 3l-116 133q-5 5 -2 11t9 6h147q1 0 3.5 -1t3.5 -3z" />
    <glyph glyph-name="FL00F3h" unicode="&#xf3;" 
d="M233 565l95 134q1 4 8 4h146q7 0 9.5 -6t-1.5 -11l-117 -133q-3 -3 -8 -3h-125q-6 0 -8.5 5t1.5 10zM240 110h193v298h-193v-298zM631 437v-355q0 -4 -3 -7l-84 -75h-416l-83 75q-3 3 -3 7v355q0 4 3 7l83 74h417l83 -73q3 -3 3 -8z" />
    <glyph glyph-name="FL00F4h" unicode="&#xf4;" 
d="M144 565l114 134q1 1 3 2.5t4 1.5h143q2 0 4.5 -1.5t3.5 -2.5l113 -134q5 -5 2 -10t-10 -5h-129q-4 0 -7 3l-48 56l-49 -56q0 -3 -7 -3h-129q-7 0 -10 5t2 10zM240 110h193v298h-193v-298zM631 437v-355q0 -4 -3 -7l-84 -75h-416l-83 75q-3 3 -3 7v355q0 4 3 7l83 74h417
l83 -73q3 -3 3 -8z" />
    <glyph glyph-name="FL00F5h" unicode="&#xf5;" 
d="M526 704l10 -12q-11 -75 -41 -107.5t-81 -32.5q-20 0 -54.5 10t-94.5 33q-28 -1 -36 -38q-1 -7 -10 -7h-72q-10 0 -10 9q0 28 10.5 54t28.5 46t42.5 32.5t53.5 12.5q23 0 52 -10.5t53 -21.5q19 -9 34 -12h4q22 0 30 37q1 7 10 7h71zM240 110h193v298h-193v-298zM631 437
v-355q0 -4 -3 -7l-84 -75h-416l-83 75q-3 3 -3 7v355q0 4 3 7l83 74h417l83 -73q3 -3 3 -8z" />
    <glyph glyph-name="FL00F6h" unicode="&#xf6;" 
d="M301 550h-130q-10 0 -10 9v111q0 10 10 10h130q10 0 10 -10v-111q0 -9 -10 -9zM363 559v111q0 10 9 10h130q10 0 10 -10v-111q0 -9 -10 -9h-130q-9 0 -9 9zM240 110h193v298h-193v-298zM631 437v-355q0 -4 -3 -7l-84 -75h-416l-83 75q-3 3 -3 7v355q0 4 3 7l83 74h417
l83 -73q3 -3 3 -8z" />
    <glyph glyph-name="FL00F7h" unicode="&#xf7;" horiz-adv-x="565" 
d="M344 392h-131q-10 0 -10 10v111q0 10 10 10h131q10 0 10 -10v-111q0 -10 -10 -10zM40 281v93q0 9 10 9h457q10 0 10 -9v-93q0 -9 -10 -9h-457q-10 0 -10 9zM344 132h-131q-10 0 -10 10v111q0 10 10 10h131q10 0 10 -10v-111q0 -10 -10 -10z" />
    <glyph glyph-name="FL00F8h" unicode="&#xf8;" 
d="M628 75l-84 -75h-416l-83 75q-3 3 -3 7v355q0 4 3 7l83 74h417l83 -73q3 -3 3 -8v-355q0 -4 -3 -7zM320 408h-80v-162zM433 110v163q-20 -42 -40.5 -80t-41.5 -83h82z" />
    <glyph glyph-name="FL00F9h" unicode="&#xf9;" 
d="M345 699l96 -134q3 -5 1 -10t-9 -5h-125q-5 0 -8 3l-116 133q-5 5 -2 11t9 6h147q1 0 3.5 -1t3.5 -3zM442 518h180q9 0 9 -10v-427q0 -5 -3 -8l-83 -73h-417l-83 74q-3 3 -3 7v427q0 10 10 10h179q9 0 9 -10v-398h192v398q0 10 10 10z" />
    <glyph glyph-name="FL00FAh" unicode="&#xfa;" 
d="M233 565l95 134q1 4 8 4h146q7 0 9.5 -6t-1.5 -11l-117 -133q-3 -3 -8 -3h-125q-6 0 -8.5 5t1.5 10zM442 518h180q9 0 9 -10v-427q0 -5 -3 -8l-83 -73h-417l-83 74q-3 3 -3 7v427q0 10 10 10h179q9 0 9 -10v-398h192v398q0 10 10 10z" />
    <glyph glyph-name="FL00FBh" unicode="&#xfb;" 
d="M144 565l114 134q1 1 3 2.5t4 1.5h143q2 0 4.5 -1.5t3.5 -2.5l113 -134q5 -5 2 -10t-10 -5h-129q-4 0 -7 3l-48 56l-49 -56q0 -3 -7 -3h-129q-7 0 -10 5t2 10zM442 518h180q9 0 9 -10v-427q0 -5 -3 -8l-83 -73h-417l-83 74q-3 3 -3 7v427q0 10 10 10h179q9 0 9 -10v-398
h192v398q0 10 10 10z" />
    <glyph glyph-name="FL00FCh" unicode="&#xfc;" 
d="M301 550h-130q-10 0 -10 9v111q0 10 10 10h130q10 0 10 -10v-111q0 -9 -10 -9zM363 559v111q0 10 9 10h130q10 0 10 -10v-111q0 -9 -10 -9h-130q-9 0 -9 9zM442 518h180q9 0 9 -10v-427q0 -5 -3 -8l-83 -73h-417l-83 74q-3 3 -3 7v427q0 10 10 10h179q9 0 9 -10v-398h192
v398q0 10 10 10z" />
    <glyph glyph-name="FL00FDh" unicode="&#xfd;" 
d="M442 518h180q9 0 9 -10v-632q0 -10 -9 -10h-180q-10 0 -10 10v124h-304l-83 74q-3 3 -3 7v427q0 10 10 10h179q9 0 9 -10v-398h192v398q0 10 10 10zM233 565l95 134q1 4 8 4h146q7 0 9.5 -6t-1.5 -11l-117 -133q-3 -3 -8 -3h-125q-6 0 -8.5 5t1.5 10z" />
    <glyph glyph-name="FL00FEh" unicode="&#xfe;" 
d="M240 642v-124h305l83 -73q3 -3 3 -8v-355q0 -4 -3 -7l-84 -75h-304v-124q0 -10 -9 -10h-179q-10 0 -10 10v766q0 10 10 10h179q9 0 9 -10zM240 110h193v298h-193v-298z" />
    <glyph glyph-name="FL00FFh" unicode="&#xff;" 
d="M442 518h180q9 0 9 -10v-632q0 -10 -9 -10h-180q-10 0 -10 10v124h-304l-83 74q-3 3 -3 7v427q0 10 10 10h179q9 0 9 -10v-398h192v398q0 10 10 10zM301 550h-130q-10 0 -10 9v111q0 10 10 10h130q10 0 10 -10v-111q0 -9 -10 -9zM363 559v111q0 10 9 10h130q10 0 10 -10
v-111q0 -9 -10 -9h-130q-9 0 -9 9z" />
    <glyph glyph-name="FL0152h" unicode="&#x152;" horiz-adv-x="1154" 
d="M1083 102l10 -91q0 -11 -10 -11h-848l-188 172q-3 3 -3 7v299q0 4 3 7l188 172h848q10 0 10 -10v-91q0 -10 -10 -10h-388v-163h296q9 0 9 -9v-92q0 -9 -9 -9h-296v-162h378q8 0 10 -9zM244 454v-251q26 -23 52.5 -46t52.5 -46h146v435h-146q-26 -23 -52.5 -46t-52.5 -46z
" />
    <glyph glyph-name="FL0153h" unicode="&#x153;" horiz-adv-x="1092" 
d="M131 0l-82 75q-3 3 -3 7v355q0 4 3 7l82 74h809l83 -74q3 -3 3 -7v-223q0 -10 -10 -10h-381v-94h304q10 0 10 -10v-90q0 -10 -10 -10h-808zM244 408v-298h193v298h-193zM635 408v-93h193v93h-193z" />
    <glyph glyph-name="FL0160h" unicode="&#x160;" horiz-adv-x="749" 
d="M550 828l-115 -135q-1 -1 -3 -2.5t-4 -1.5h-144q-2 0 -4.5 1.5t-3.5 2.5l-114 135q-5 5 -2 10t10 5h130q4 0 7 -3l49 -57l48 57q3 3 8 3h130q7 0 10 -5t-2 -10zM642 455h-181q-10 0 -10 10v81h-209v-163h355q3 0 6 -3l91 -90q2 -2 2 -7v-201q0 -4 -2 -6l-85 -76h-482
l-83 76q-3 3 -3 6v110q0 10 10 10h182q9 0 9 -10v-81h254v162h-355q-3 0 -6 3l-91 91q-3 3 -3 7v201q0 4 3 7l84 75h436l85 -74q3 -3 3 -8v-110q0 -10 -10 -10z" />
    <glyph glyph-name="FL0161h" unicode="&#x161;" horiz-adv-x="662" 
d="M517 687l-113 -133q-1 -1 -3.5 -2.5t-4.5 -1.5h-142q-2 0 -4.5 1.5t-3.5 2.5l-114 133q-5 5 -2 10.5t10 5.5h129q5 0 8 -3l48 -57l48 57q3 3 8 3h129q6 0 9 -5.5t-2 -10.5zM42 10v90q0 10 9 10h359v94h-283l-82 74q-3 3 -3 7v152q0 4 3 7l82 74h471q10 0 10 -10v-90
q0 -10 -10 -10h-358v-93h282l83 -75q3 -3 3 -7v-152q0 -4 -3 -7l-83 -74h-471q-9 0 -9 10z" />
    <glyph glyph-name="FL0178h" unicode="&#x178;" horiz-adv-x="749" 
d="M51 657h181q9 0 9 -10v-354h256v354q0 10 9 10h181q9 0 9 -10v-382q0 -5 -2 -7l-85 -76h-141v-172q0 -10 -9 -10h-181q-9 0 -9 10v172h-141l-84 76q-3 3 -3 7v382q0 10 10 10zM333 689h-131q-10 0 -10 10v111q0 10 10 10h131q9 0 9 -10v-111q0 -10 -9 -10zM395 699v111
q0 10 9 10h131q10 0 10 -10v-111q0 -10 -10 -10h-131q-9 0 -9 10z" />
    <glyph glyph-name="FL017Eh" unicode="&#x17d;" horiz-adv-x="682" 
d="M530 828l-114 -135q-1 -1 -3.5 -2.5t-4.5 -1.5h-144q-2 0 -4.5 1.5t-3.5 2.5l-114 135q-5 5 -2 10t10 5h130q4 0 7 -3l49 -57l48 57q3 3 8 3h130q7 0 10 -5t-2 -10zM41 465v182q0 10 10 10h570q10 0 10 -10v-95l-363 -441h162v81q0 10 10 10h181q10 0 10 -10v-182
q0 -10 -10 -10h-570q-10 0 -10 10v95l363 441h-163v-81q0 -10 -10 -10h-180q-10 0 -10 10z" />
    <glyph glyph-name="FL017Fh" unicode="&#x17e;" horiz-adv-x="632" 
d="M515 687l-113 -133q-1 -1 -3.5 -2.5t-4.5 -1.5h-143q-2 0 -4 1.5t-3 2.5l-114 133q-5 5 -2 10.5t10 5.5h129q7 0 7 -3l49 -57l48 57q3 3 7 3h129q7 0 10 -5.5t-2 -10.5zM569 0h-518q-10 0 -10 10v94l290 304h-280q-10 0 -10 10v90q0 10 10 10h518q10 0 10 -10v-94
l-288 -304h278q10 0 10 -10v-90q0 -10 -10 -10z" />
    <glyph glyph-name="FL0192h" unicode="&#x192;" horiz-adv-x="629" 
d="M518 80v90q0 10 -10 10h-268v227h326q10 0 10 10v90q0 10 -10 10h-439l-83 -75q-3 -3 -3 -7v-560q0 -10 10 -10h179q10 0 10 10v195h268q10 0 10 10z" />
    <glyph glyph-name="FL02C6h" unicode="&#x2c6;" horiz-adv-x="438" 
d="M22 705l114 134q1 1 3.5 2.5t4.5 1.5h144q2 0 4 -1.5t3 -2.5l115 -134q5 -5 2 -10.5t-10 -5.5h-130q-5 0 -8 3l-48 57l-49 -57q-3 -3 -8 -3h-130q-6 0 -9 5.5t2 10.5z" />
    <glyph glyph-name="FL02DCh" unicode="&#x2dc;" horiz-adv-x="356" 
d="M432 844l9 -11q-11 -75 -41.5 -108.5t-81.5 -33.5q-20 0 -54.5 10.5t-94.5 33.5q-30 -2 -37 -38q-2 -8 -10 -8h-73q-10 0 -10 10q0 27 10.5 53.5t28.5 46.5t43 32.5t54 12.5q23 0 52.5 -10.5t53.5 -21.5q10 -5 18 -7.5t16 -4.5h4q11 0 18.5 10.5t12.5 27.5q1 6 10 6h72z
" />
    <glyph glyph-name="FL2013h" unicode="&#x2013;" horiz-adv-x="455" 
d="M399 273h-350q-10 0 -10 9v93q0 9 10 9h350q10 0 10 -9v-93q0 -9 -10 -9z" />
    <glyph glyph-name="FL2014h" unicode="&#x2014;" horiz-adv-x="564" 
d="M40 282v93q0 9 10 9h456q10 0 10 -9v-93q0 -9 -10 -9h-456q-10 0 -10 9z" />
    <glyph glyph-name="FL2018h" unicode="&#x2018;" horiz-adv-x="280" 
d="M48 657h180q10 0 10 -10v-275q0 -10 -10 -10h-180q-10 0 -10 10v275q0 10 10 10z" />
    <glyph glyph-name="FL2019h" unicode="&#x2019;" horiz-adv-x="280" 
d="M48 657h180q10 0 10 -10v-275q0 -10 -10 -10h-180q-10 0 -10 10v275q0 10 10 10z" />
    <glyph glyph-name="FL201Ah" unicode="&#x201a;" horiz-adv-x="280" 
d="M48 202h180q10 0 10 -10v-166q0 -4 -3 -7l-90 -91q-3 -3 -7 -3h-90q-10 0 -10 10v257q0 10 10 10z" />
    <glyph glyph-name="FL201Ch" unicode="&#x201c;" horiz-adv-x="519" 
d="M281 657h181q10 0 10 -10v-275q0 -10 -10 -10h-181q-9 0 -9 10v275q0 10 9 10zM49 657h181q10 0 10 -10v-275q0 -10 -10 -10h-181q-9 0 -9 10v275q0 10 9 10z" />
    <glyph glyph-name="FL201Dh" unicode="&#x201d;" horiz-adv-x="519" 
d="M281 657h181q10 0 10 -10v-275q0 -10 -10 -10h-181q-9 0 -9 10v275q0 10 9 10zM49 657h181q10 0 10 -10v-275q0 -10 -10 -10h-181q-9 0 -9 10v275q0 10 9 10z" />
    <glyph glyph-name="FL201Eh" unicode="&#x201e;" horiz-adv-x="520" 
d="M282 202h181q10 0 10 -10v-166q0 -4 -3 -7l-91 -91q-3 -3 -6 -3h-91q-9 0 -9 10v257q0 10 9 10zM49 202h181q10 0 10 -10v-166q0 -4 -3 -7l-91 -91q0 -3 -6 -3h-91q-9 0 -9 10v257q0 10 9 10z" />
    <glyph glyph-name="FL2020h" unicode="&#x2020;" horiz-adv-x="493" 
d="M157 0h171q9 0 9 10v401h99q10 0 10 10v92q0 10 -10 10h-99v127q0 10 -9 10h-171q-10 0 -10 -10v-127h-98q-9 0 -9 -10v-92q0 -10 9 -10h98v-401q0 -10 10 -10z" />
    <glyph glyph-name="FL2021h" unicode="&#x2021;" horiz-adv-x="493" 
d="M157 0h171q9 0 9 10v118h99q10 0 10 10v92q0 10 -10 10h-99v171h99q10 0 10 10v92q0 10 -10 10h-99v127q0 10 -9 10h-171q-10 0 -10 -10v-127h-98q-9 0 -9 -10v-92q0 -10 9 -10h98v-171h-98q-9 0 -9 -10v-92q0 -10 9 -10h98v-118q0 -10 10 -10z" />
    <glyph glyph-name="FL2022h" unicode="&#x2022;" horiz-adv-x="749" 
d="M696 82v493q0 6 -2 8l-85 74h-481l-84 -75q-3 -3 -3 -7v-493q0 -3 3 -6l84 -76h480l86 76q2 2 2 6z" />
    <glyph glyph-name="FL2026h" unicode="&#x2026;" horiz-adv-x="812" 
d="M748 0h-180q-10 0 -10 10v182q0 10 10 10h180q10 0 10 -10v-182q0 -10 -10 -10zM490 0h-180q-10 0 -10 10v182q0 10 10 10h180q10 0 10 -10v-182q0 -10 -10 -10zM232 0h-180q-10 0 -10 10v182q0 10 10 10h180q10 0 10 -10v-182q0 -10 -10 -10z" />
    <glyph glyph-name="FL2030h" unicode="&#x2030;" horiz-adv-x="1683" 
d="M841 657h-183q-8 0 -9 -6l-314 -637q-3 -5 0 -9.5t8 -4.5h184q2 0 5 2t3 4l315 637q3 5 0 9.5t-9 4.5zM1136 10v269q0 4 -3 7l-64 56h-309l-63 -57q-3 -3 -3 -6v-269q0 -4 3 -7l63 -57h309l64 56q3 3 3 8zM940 52h-50v183h50v-183zM491 379v269q0 5 -3 8l-64 55h-310
l-63 -56q-3 -3 -3 -7v-269q0 -3 3 -6l63 -58h310l64 57q3 3 3 7zM295 422h-51v183h51v-183zM1610 10v269q0 4 -3 7l-64 56h-310l-63 -57q-3 -3 -3 -6v-269q0 -4 3 -7l63 -57h310l64 56q3 3 3 8zM1414 52h-51v183h51v-183z" />
    <glyph glyph-name="FL2039h" unicode="&#x2039;" horiz-adv-x="408" 
d="M185 657h188q6 0 8 -4.5t0 -9.5l-154 -315l154 -314q2 -5 0 -9.5t-8 -4.5h-188q-6 0 -8 6l-157 318q-1 4 0 8l157 319q2 6 8 6z" />
    <glyph glyph-name="FL203Ah" unicode="&#x203a;" horiz-adv-x="408" 
d="M225 651l156 -319q1 -4 0 -8l-156 -318q-2 -6 -9 -6h-187q-6 0 -8.5 4.5t-0.5 9.5l155 314q-38 79 -77.5 158t-77.5 157q-2 5 0.5 9.5t8.5 4.5h187q7 0 9 -6z" />
    <glyph glyph-name="FL20ACh" unicode="&#x20ac;" horiz-adv-x="807" 
d="M505 191h-161l92 -80h116v81q0 10 10 10h181q10 0 10 -10v-109q0 -3 -3 -6l-85 -77h-344l-187 172q-3 3 -3 7v12h-79q-10 0 -10 10v92q0 10 10 10h79v51h-79q-10 0 -10 10v92q0 10 10 10h79v12q0 4 3 7l187 172h340q4 0 7 -3l85 -94v-95q0 -10 -10 -10h-181q-10 0 -10 10
v81h-116l-92 -80h161q9 0 9 -10v-92q0 -10 -9 -10h-174v-51h174q9 0 9 -10v-92q0 -10 -9 -10z" />
    <glyph glyph-name="FL2122h" unicode="&#x2122;" horiz-adv-x="359" 
d="M158 514v167q4 12 12 14q-1 -1 -1 -6q2 8 10 8t23.5 -18t23.5 -41l1 -5l3 -10q1 -4 1.5 -6.5t1.5 -5t2 -7.5q1 1 1 6t1 6q0 2 1 5t1 5q13 44 26.5 57.5t33.5 13.5h6q10 0 10 -10v-173q0 -9 -10 -9h-16q-10 0 -10 9v80l-23 -76q-4 -10 -5.5 -11.5t-13.5 -1.5h-4
q-6 0 -10 2t-9 13l-21 66v-72q0 -9 -10 -9h-16q-9 0 -9 9zM60 514v135h-41q-10 0 -10 10v28q0 10 10 10h122q10 0 10 -10v-28q0 -10 -10 -10h-40v-135q0 -9 -9 -9h-23q-9 0 -9 9z" />
    </font>
</defs>
</svg>
